<svg width="24" height="24" viewBox="0 0 24 24" fill="none" xmlns="http://www.w3.org/2000/svg">
<path fill-rule="evenodd" clip-rule="evenodd" d="M13.3432 6.54368L14.7682 7.94702L8.44998 14.3628C8.13295 14.6863 8.13295 15.2071 8.44998 15.5307C8.75083 15.8378 9.2534 15.8364 9.55103 15.529L16.5024 8.46741C17.5172 7.43179 17.5172 5.76857 16.5024 4.73294C15.5342 3.74484 13.821 3.76682 12.8721 4.73482L5.28478 12.437C3.57178 14.1844 3.57178 16.9904 5.28478 18.7378C6.94819 20.4346 9.80568 20.407 11.4431 18.7362L20.2921 9.74899L21.7172 11.1522L12.8699 20.1378C10.456 22.6008 6.31032 22.6409 3.85657 20.1379C1.38118 17.6127 1.38118 13.562 3.85828 11.0352L11.4456 3.33301C13.169 1.57494 16.1703 1.53644 17.9309 3.33316C19.7077 5.14642 19.7077 8.05393 17.9293 9.86883L10.9821 16.9262C9.90743 18.0361 8.10958 18.0411 7.02138 16.9304C5.94248 15.8292 5.94248 14.0643 7.02318 12.9612L13.3432 6.54368Z" fill="#E30613"/>
</svg>
