<svg width="24" height="25" viewBox="0 0 24 25" fill="none" xmlns="http://www.w3.org/2000/svg">
<path fill-rule="evenodd" clip-rule="evenodd" d="M20.1111 11.5C20.602 11.5 21 11.102 21 10.6111C21 6.68375 17.8162 3.5 13.8889 3.5C13.398 3.5 13 3.89797 13 4.38889C13 4.87981 13.398 5.27778 13.8889 5.27778C16.8344 5.27778 19.2222 7.66559 19.2222 10.6111C19.2222 11.102 19.6202 11.5 20.1111 11.5ZM17.4444 11.5C17.9354 11.5 18.3333 11.102 18.3333 10.6111C18.3333 8.15651 16.3435 6.16667 13.8889 6.16667C13.398 6.16667 13 6.56464 13 7.05556C13 7.54648 13.398 7.94444 13.8889 7.94444C15.3616 7.94444 16.5556 9.13835 16.5556 10.6111C16.5556 11.102 16.9535 11.5 17.4444 11.5ZM13.778 14.7611L9.73891 10.722L10.4121 10.0488C11.5275 8.93344 11.5275 7.12507 10.4121 6.00971L9.73891 5.33652C8.62354 4.22116 6.81518 4.22116 5.69981 5.33652L5.02663 6.00971C4.98975 6.04658 4.95471 6.08459 4.92149 6.12363C4.9067 6.13269 4.89266 6.14368 4.87975 6.15658L4.29225 6.74409C2.6699 8.36644 2.5603 10.8872 4.04745 12.3743C5.55525 14.3717 6.77922 15.8405 7.71936 16.7806C8.87356 17.9348 10.3423 19.1588 12.1257 20.4525C13.6128 21.9397 16.1336 21.8301 17.7559 20.2078L18.3434 19.6202C18.3563 19.6073 18.3673 19.5933 18.3764 19.5785C18.4154 19.5453 18.4534 19.5102 18.4903 19.4734L19.1635 18.8002C20.2788 17.6848 20.2788 15.8765 19.1635 14.7611L18.4903 14.0879C17.3749 12.9725 15.5666 12.9725 14.4512 14.0879L13.778 14.7611ZM8.39254 9.37562L9.06573 8.70244C9.43752 8.33065 9.43752 7.72786 9.06573 7.35607L8.39254 6.68289C8.02076 6.3111 7.41797 6.3111 7.04618 6.68289L6.37299 7.35607L5.56862 8.16307C4.69004 9.03903 4.72064 10.3548 5.39382 11.028L5.48739 11.1216L5.56712 11.2272C7.02638 13.1603 8.1997 14.5682 9.06573 15.4343C10.1431 16.5116 11.5429 17.6665 13.2501 18.905L13.3656 18.9997L13.472 19.1062C14.1452 19.7794 15.461 19.81 16.3277 18.9399L17.1423 18.1253L17.8171 17.4538C18.1889 17.082 18.1889 16.4792 17.8171 16.1075L17.1439 15.4343C16.7721 15.0625 16.1693 15.0625 15.7976 15.4343L15.1244 16.1075C14.3808 16.851 13.1752 16.851 12.4316 16.1075L8.39254 12.0684C7.64897 11.3248 7.64897 10.1192 8.39254 9.37562Z" fill="#E30613"/>
</svg>
