<svg width="43" height="35" viewBox="0 0 43 35" fill="none" xmlns="http://www.w3.org/2000/svg">
<path d="M18.8275 3.8502C16.8366 4.99392 15.2269 5.98938 13.9985 6.83659C12.7701 7.64143 11.5204 8.72161 10.2496 10.0771C9.06354 11.3479 8.1528 12.6823 7.5174 14.0802C6.882 15.478 6.43722 17.2783 6.18306 19.4811H9.23298C11.8593 19.4811 13.9138 20.1376 15.3964 21.4508C16.9213 22.7216 17.6838 24.6066 17.6838 27.1059C17.6838 28.885 17.0061 30.5582 15.6505 32.1255C14.3374 33.6505 12.5159 34.413 10.1861 34.413C6.54312 34.413 3.93798 33.2269 2.37065 30.8547C0.80333 28.4402 0.0196686 25.2844 0.0196686 21.3873C0.0196686 18.6339 0.61271 16.1346 1.79879 13.8895C2.98487 11.6021 4.42512 9.56881 6.11952 7.78969C7.85628 5.9682 9.69895 4.42206 11.6475 3.15126C13.5961 1.88046 15.2269 0.842636 16.5401 0.0377944L18.8275 3.8502ZM42.3374 3.8502C40.3465 4.99392 38.7368 5.98938 37.5083 6.83659C36.2799 7.64143 35.0303 8.72161 33.7595 10.0771C32.531 11.3903 31.5991 12.7458 30.9637 14.1437C30.3707 15.4992 29.9471 17.2783 29.6929 19.4811H32.7428C35.3691 19.4811 37.4236 20.1376 38.9062 21.4508C40.4312 22.7216 41.1937 24.6066 41.1937 27.1059C41.1937 28.885 40.5159 30.5582 39.1604 32.1255C37.8472 33.6505 36.0257 34.413 33.6959 34.413C30.053 34.413 27.4478 33.2269 25.8805 30.8547C24.3132 28.4402 23.5295 25.2844 23.5295 21.3873C23.5295 18.6339 24.1225 16.1346 25.3086 13.8895C26.4947 11.6021 27.935 9.56881 29.6294 7.78969C31.3661 5.9682 33.2088 4.42206 35.1573 3.15126C37.1059 1.88046 38.7368 0.842636 40.0499 0.0377944L42.3374 3.8502Z" fill="black"/>
</svg>
