<svg width="24" height="25" viewBox="0 0 24 25" fill="none" xmlns="http://www.w3.org/2000/svg">
<path fill-rule="evenodd" clip-rule="evenodd" d="M11 13.7578L13.2 12.4999L11 11.242V13.7578ZM15.4585 11.5383C15.9865 11.8569 16.1578 12.5458 15.8409 13.0769C15.7468 13.2347 15.6154 13.3669 15.4585 13.4616L10.6887 16.34C10.1606 16.6587 9.47572 16.4865 9.1589 15.9554C9.05492 15.7811 9 15.5816 9 15.3784V9.62146C9 9.00209 9.4992 8.5 10.115 8.5C10.3171 8.5 10.5154 8.55524 10.6887 8.65982L15.4585 11.5383ZM10 18.5C10.5523 18.5 11 18.9477 11 19.5C11 20.0523 10.5523 20.5 10 20.5H7C4.23858 20.5 2 18.2614 2 15.5V9.5C2 6.73858 4.23858 4.5 7 4.5H17C19.7614 4.5 22 6.73858 22 9.5V15.5C22 18.2614 19.7614 20.5 17 20.5H14C13.4477 20.5 13 20.0523 13 19.5C13 18.9477 13.4477 18.5 14 18.5H17C18.6569 18.5 20 17.1569 20 15.5V9.5C20 7.84315 18.6569 6.5 17 6.5H7C5.34315 6.5 4 7.84315 4 9.5V15.5C4 17.1569 5.34315 18.5 7 18.5H10Z" fill="#E30613"/>
</svg>
