<svg width="24" height="25" viewBox="0 0 24 25" fill="none" xmlns="http://www.w3.org/2000/svg">
<path fill-rule="evenodd" clip-rule="evenodd" d="M18.9956 8.49937C18.9952 9.0519 19.4431 9.5 19.9956 9.5C20.5476 9.5 20.9953 9.05276 20.9957 8.50077L21 2.95297C21.0001 2.79117 20.9246 2.6413 20.8022 2.5604C20.6798 2.47946 20.5291 2.4799 20.4076 2.56153L3.19323 14.1268C3.05921 14.2168 2.98446 14.3893 3.00272 14.5668C3.02098 14.7442 3.12874 14.8929 3.27748 14.946L8.9894 16.9858L11.5054 22.2643C11.5555 22.3592 11.6184 22.4253 11.697 22.4637C11.7462 22.4878 11.798 22.4997 11.8493 22.5C11.95 22.5006 12.0491 22.4568 12.124 22.3733L15.0255 19.1414L20.4758 21.0878C20.5135 21.1013 20.5522 21.108 20.5906 21.1083C20.6738 21.1088 20.7559 21.079 20.8244 21.0213C20.9246 20.937 20.9837 20.8029 20.9839 20.6601L20.9869 16.5007C20.9873 15.9481 20.5395 15.5 19.987 15.5C19.435 15.5 18.9874 15.9473 18.9871 16.4993L18.9862 18.1485C18.9861 18.1714 18.9822 18.1941 18.9745 18.2156C18.9374 18.3196 18.8229 18.3739 18.7189 18.3367L15.6981 17.2579L14.6868 16.8968C14.5339 16.8421 14.3631 16.8854 14.2546 17.0062L12.7301 18.7044C12.705 18.7323 12.6666 18.7439 12.6304 18.7344C12.5769 18.7204 12.5449 18.6658 12.5589 18.6124L13.1937 16.1838L17.4602 8.91561C17.5271 8.80348 17.508 8.65617 17.4151 8.56805C17.3106 8.46897 17.1506 8.4793 17.0577 8.5911L10.7225 15.2273C10.6134 15.3415 10.4475 15.3809 10.2988 15.3278L7.20547 14.2248C7.16515 14.2105 7.1305 14.1835 7.10663 14.148C7.04503 14.0563 7.06942 13.9321 7.16111 13.8705L18.6854 6.12802C18.7185 6.10583 18.7573 6.094 18.7971 6.09404C18.9076 6.09414 18.9971 6.18376 18.997 6.29422L18.9956 8.49937ZM20 10.5C19.4477 10.5 19 10.9477 19 11.5V13.5C19 14.0523 19.4477 14.5 20 14.5C20.5523 14.5 21 14.0523 21 13.5V11.5C21 10.9477 20.5523 10.5 20 10.5Z" fill="#E30613"/>
</svg>
