<svg width="24" height="25" viewBox="0 0 24 25" fill="none" xmlns="http://www.w3.org/2000/svg">
<path fill-rule="evenodd" clip-rule="evenodd" d="M13.6 11.5H12.4C12.1791 11.5 12 11.3209 12 11.1V10.5C12 8.84315 13.3431 7.5 15 7.5H16.6C16.8209 7.5 17 7.67909 17 7.9V9.1C17 9.32091 16.8209 9.5 16.6 9.5H15C14.4477 9.5 14 9.94772 14 10.5V11.1C14 11.3209 13.8209 11.5 13.6 11.5ZM12 20.5V14.5H10.4C10.1791 14.5 10 14.3209 10 14.1V12.9C10 12.6791 10.1791 12.5 10.4 12.5H16.6C16.8209 12.5 17 12.6791 17 12.9V14.1C17 14.3209 16.8209 14.5 16.6 14.5H14V20.5H16C18.2091 20.5 20 18.7091 20 16.5V8.5C20 6.29086 18.2091 4.5 16 4.5H8C5.79086 4.5 4 6.29086 4 8.5V16.5C4 18.7091 5.79086 20.5 8 20.5H12ZM8 2.5H16C19.3137 2.5 22 5.18629 22 8.5V16.5C22 19.8137 19.3137 22.5 16 22.5H8C4.68629 22.5 2 19.8137 2 16.5V8.5C2 5.18629 4.68629 2.5 8 2.5Z" fill="#E30613"/>
</svg>
