<svg width="24" height="25" viewBox="0 0 24 25" fill="none" xmlns="http://www.w3.org/2000/svg">
<path fill-rule="evenodd" clip-rule="evenodd" d="M7.51203 12.5669C7.17351 11.9535 7 11.3781 7 10.842C7 10.2347 7.16266 9.72369 7.47985 9.27835C7.54684 9.18431 7.61866 9.09594 7.70264 9.00364C7.72242 8.9819 7.74805 8.95477 7.81262 8.88707C7.84119 8.85724 7.84119 8.85724 7.86038 8.83733L7.86813 8.82934C7.86725 8.83025 7.86725 8.83025 7.85914 8.83814L7.87244 8.82504C8.07405 8.61216 8.3351 8.5 8.59278 8.5C8.79751 8.5 8.93748 8.50244 9.05964 8.50832C9.08545 8.50894 9.08545 8.50894 9.10629 8.50883C9.37163 8.50742 9.51201 8.59649 9.65956 8.89611C9.6716 8.92118 9.6716 8.92118 9.67721 8.9332L9.67769 8.93423C9.68333 8.94668 9.68333 8.94668 9.69664 8.9769C9.75439 9.11113 9.82347 9.27335 10.0237 9.74481C10.2818 10.3521 10.4055 10.6394 10.4339 10.6943C10.533 10.886 10.5396 11.0375 10.4538 11.2037C10.4317 11.2471 10.4317 11.2471 10.419 11.272C10.405 11.2993 10.405 11.2993 10.3805 11.347C10.3604 11.3852 10.342 11.4175 10.3225 11.4487C10.2868 11.5057 10.2472 11.5584 10.1979 11.614C10.151 11.6675 10.151 11.6675 10.0763 11.7553C9.97636 11.873 9.92805 11.9282 9.88615 11.9724L9.64904 12.2223L9.83437 12.5135C10.1776 13.0527 10.5936 13.5499 11.0598 13.9519C11.4455 14.2845 11.8404 14.5515 12.2609 14.7687C12.4122 14.8469 12.7151 14.9829 12.95 15.0832L13.2353 15.205L13.4425 14.9723C13.7236 14.6566 14.0129 14.3106 14.1187 14.1569C14.2895 13.9091 14.4324 13.8754 14.7853 13.9996C14.945 14.0559 15.7685 14.4361 16.4408 14.7613C16.5169 14.7976 16.5169 14.7976 16.6363 14.8535C16.7094 14.8881 16.7523 14.9103 16.7913 14.9335C16.8709 14.9808 16.9144 15.0208 16.9471 15.0736C17.045 15.2315 17.0101 15.7521 16.8166 16.2768C16.636 16.7663 15.7633 17.3585 15.1058 17.4534C14.5277 17.5371 14.038 17.5098 13.5431 17.3577C13.0057 17.1929 12.6245 17.0574 12.1611 16.8639C11.3408 16.5215 10.5449 15.9996 9.77749 15.3104C9.32973 14.9082 8.9111 14.4669 8.52171 13.9918C8.42572 13.8746 8.27697 13.6825 8.12988 13.4874C8.0746 13.4141 8.04738 13.3776 8.00303 13.3172C7.81425 13.0694 7.66877 12.8509 7.51203 12.5669ZM4.44233 20.0559L7.52375 19.1314C8.80122 19.9954 10.3417 20.5 12 20.5C16.4183 20.5 20 16.9183 20 12.5C20 8.08172 16.4183 4.5 12 4.5C7.58172 4.5 4 8.08172 4 12.5C4 14.1573 4.50394 15.6969 5.36693 16.9739L4.44233 20.0559ZM3.19671 17.2477C2.43335 15.8352 2 14.2182 2 12.5C2 6.97715 6.47715 2.5 12 2.5C17.5228 2.5 22 6.97715 22 12.5C22 18.0228 17.5228 22.5 12 22.5C10.2806 22.5 8.66263 22.0661 7.24951 21.3018L3.41608 22.4518C2.83419 22.6264 2.22096 22.2962 2.04639 21.7143C1.98454 21.5081 1.98454 21.2883 2.04639 21.0821L3.19671 17.2477Z" fill="#E30613"/>
</svg>
