<svg width="24" height="25" viewBox="0 0 24 25" fill="none" xmlns="http://www.w3.org/2000/svg">
<path fill-rule="evenodd" clip-rule="evenodd" d="M17 8.5C16.4477 8.5 16 8.05228 16 7.5C16 6.94772 16.4477 6.5 17 6.5C17.5523 6.5 18 6.94772 18 7.5C18 8.05228 17.5523 8.5 17 8.5ZM8 4.5C5.79086 4.5 4 6.29086 4 8.5V16.5C4 18.7091 5.79086 20.5 8 20.5H16C18.2091 20.5 20 18.7091 20 16.5V8.5C20 6.29086 18.2091 4.5 16 4.5H8ZM8 2.5H16C19.3137 2.5 22 5.18629 22 8.5V16.5C22 19.8137 19.3137 22.5 16 22.5H8C4.68629 22.5 2 19.8137 2 16.5V8.5C2 5.18629 4.68629 2.5 8 2.5ZM10.1304 17.1385C9.61823 16.9319 9.37051 16.3492 9.57711 15.837C9.78371 15.3248 10.3664 15.0771 10.8786 15.2837C11.2313 15.4259 11.6097 15.5 12 15.5C13.6569 15.5 15 14.1569 15 12.5C15 10.8431 13.6569 9.5 12 9.5C10.3431 9.5 9 10.8431 9 12.5C9 12.8915 9.07451 13.271 9.21763 13.6246C9.42482 14.1366 9.17777 14.7195 8.66582 14.9267C8.15388 15.1339 7.5709 14.8869 7.3637 14.3749C7.12452 13.7839 7 13.1498 7 12.5C7 9.73858 9.23858 7.5 12 7.5C14.7614 7.5 17 9.73858 17 12.5C17 15.2614 14.7614 17.5 12 17.5C11.3522 17.5 10.7199 17.3762 10.1304 17.1385Z" fill="#E30613"/>
</svg>
