<svg width="42" height="42" viewBox="0 0 42 42" fill="none" xmlns="http://www.w3.org/2000/svg">
<rect width="42" height="42" rx="21" fill="#F9F9F9"/>
<path fill-rule="evenodd" clip-rule="evenodd" d="M19.0926 5.08101C16.4035 5.4351 14.0202 6.33977 11.892 7.81426C10.9785 8.44715 10.3871 8.94818 9.55171 9.79707C8.76142 10.6001 7.96113 11.6224 7.35381 12.6047C6.18696 14.492 5.40876 16.6788 5.11931 18.8835C4.96023 20.0955 4.96023 21.8902 5.11931 23.1022C5.40876 25.3069 6.18696 27.4937 7.35381 29.381C7.95992 30.3613 8.76042 31.3845 9.55171 32.1901C11.8327 34.5124 14.6407 36.0448 17.7836 36.6827C19.0795 36.9458 20.1815 37.035 21.5569 36.9881C23.8985 36.9082 26.0076 36.3748 28.1322 35.3253C28.9866 34.9033 30.1243 34.1895 30.8452 33.623C32.1139 32.6262 33.4119 31.2293 34.2754 29.9316C35.1615 28.5999 35.9403 26.9464 36.355 25.5166C36.8735 23.7286 37.0914 21.7341 36.9649 19.9323C36.8862 18.8123 36.6569 17.5102 36.355 16.4691C35.9403 15.0393 35.1615 13.3858 34.2754 12.0541C33.4119 10.7564 32.1139 9.35954 30.8452 8.3627C30.1243 7.79624 28.9866 7.08242 28.1322 6.6604C26.6581 5.9322 25.297 5.49073 23.5611 5.17776C22.5226 4.99056 20.1668 4.93958 19.0926 5.08101ZM23.3091 6.58274C26.2115 7.07641 28.6587 8.27089 30.9012 10.2886C31.4695 10.7999 32.2853 11.7188 32.7868 12.4123C33.2544 13.0591 33.6749 13.7624 34.0694 14.5575C35.0837 16.6021 35.5497 18.6278 35.5497 20.9929C35.5497 23.372 35.0859 25.3765 34.0524 27.464C33.6278 28.3219 32.4832 30.0986 32.3918 30.0421C32.3605 30.0227 32.3294 29.7887 32.3228 29.5219C32.3042 28.7742 32.1789 27.5281 32.0554 26.8627C31.7677 25.3131 31.1044 23.3573 30.6035 22.582C30.3296 22.1579 30.3254 22.1549 29.9095 22.1045C29.3545 22.037 27.9691 21.7503 27.3574 21.5763C26.9774 21.4682 26.7974 21.3682 26.5554 21.1305C26.3838 20.962 26.1914 20.7145 26.1279 20.5806C25.9711 20.2501 26.0249 19.7262 26.28 19.098C26.4722 18.6246 26.4832 18.5393 26.4826 17.5249C26.4821 16.7519 26.4466 16.3025 26.3557 15.916C26.2862 15.6211 26.1704 14.9454 26.0981 14.4145C25.7422 11.7983 25.1133 10.3153 23.8723 9.16576C23.3106 8.64543 22.5021 8.20568 21.8193 8.04908C21.6024 7.99939 21.2006 7.97643 20.8902 7.9961C19.9479 8.05566 18.8939 8.52273 18.1096 9.22819C17.7463 9.55503 17.1556 10.3583 16.8838 10.8953C16.4386 11.775 16.058 13.0369 15.8441 14.343C15.7765 14.7559 15.6549 15.3833 15.5739 15.7373C15.3901 16.5406 15.327 17.9047 15.4457 18.5102C15.4937 18.7548 15.6103 19.139 15.7047 19.364C15.7992 19.5889 15.8766 19.9039 15.8766 20.064C15.8766 20.4502 15.6675 20.8415 15.278 21.1846C14.9961 21.4328 14.8534 21.4914 14.0422 21.692C13.0848 21.9287 12.5949 22.0258 11.9621 22.1042C11.6503 22.1427 11.556 22.1897 11.416 22.3762C10.9747 22.9642 10.4015 24.4575 9.98444 26.1054C9.82586 26.732 9.68535 27.8021 9.54549 29.4489C9.52005 29.7483 9.47688 29.9151 9.432 29.8874C9.28235 29.7948 8.34213 28.2929 7.97085 27.5532C7.3388 26.2938 6.9215 25.041 6.60755 23.4597C6.50492 22.9431 6.47969 22.4566 6.47969 20.9929C6.47969 19.0483 6.5205 18.6931 6.91528 17.2031C7.42213 15.2897 8.366 13.4286 9.63482 11.8403C10.4959 10.7625 11.865 9.52765 13.0882 8.72558C13.831 8.2385 15.2134 7.55113 16.0016 7.27698C16.9353 6.95221 18.1607 6.64874 18.9139 6.55572C19.2677 6.51203 19.6536 6.46319 19.7715 6.4471C20.2556 6.38103 22.6668 6.47356 23.3091 6.58274Z" fill="#DFDFDF"/>
</svg>
