<svg width="87" height="87" viewBox="0 0 87 87" fill="none" xmlns="http://www.w3.org/2000/svg">
<path fill-rule="evenodd" clip-rule="evenodd" d="M0 0H87V87H0V0Z" fill="#E30613"/>
<path d="M2.15529 1.61255H85.3601V85.3601H1.61256V1.61255H2.15529ZM2.698 84.2708H84.2707V2.698H2.698V84.2708Z" fill="white"/>
<path fill-rule="evenodd" clip-rule="evenodd" d="M28.8152 59.8676C28.8723 59.7779 28.9471 59.7009 29.0351 59.6411C29.123 59.5813 29.2222 59.5402 29.3267 59.5201C29.4287 59.4998 29.5337 59.5 29.6356 59.5208C29.7376 59.5416 29.8343 59.5825 29.9202 59.6412C30.0166 59.6905 30.1014 59.7599 30.1688 59.8448C30.2361 59.9297 30.2845 60.028 30.3106 60.1331C30.3514 60.3472 30.3065 60.5687 30.1857 60.7501C30.1302 60.8412 30.0559 60.9194 29.9676 60.9793C29.8794 61.0393 29.7793 61.0796 29.6742 61.0975C29.5691 61.1195 29.4607 61.1201 29.3554 61.0993C29.2501 61.0785 29.15 61.0368 29.0612 60.9765C28.9729 60.919 28.8979 60.8433 28.8414 60.7544C28.7848 60.6655 28.7479 60.5655 28.7332 60.4611C28.694 60.2575 28.73 60.0466 28.8347 59.8676H28.8152ZM26.1914 57.8607L26.8278 57.1423L26.5428 56.8768L26.7068 56.6738L27.0113 56.9393L27.5228 57.3883L27.8117 57.6343L27.6477 57.8412L27.3588 57.5952L25.5979 59.6217L25.8634 59.8676L25.6994 60.0511L25.4144 59.8286L24.7779 59.2742C24.5144 59.0664 24.3042 58.7986 24.1649 58.4932C24.1073 58.3458 24.0959 58.1843 24.1321 58.0302C24.1684 57.8761 24.2506 57.7366 24.368 57.6303C24.4588 57.5212 24.5702 57.431 24.6959 57.3648C24.8172 57.3031 24.9504 57.2684 25.0864 57.2633C25.2565 57.2876 25.4222 57.3363 25.5784 57.4078C25.7939 57.5326 25.9932 57.6834 26.1719 57.8568L26.1914 57.8607ZM26.0274 58.0442C25.9499 57.9548 25.8522 57.8852 25.7423 57.8412C25.622 57.78 25.4854 57.7581 25.3519 57.7787C25.2551 57.7988 25.1634 57.8382 25.0822 57.8945C25.001 57.9509 24.9321 58.0231 24.8794 58.1067C24.8041 58.1837 24.7496 58.2785 24.7209 58.3823C24.6922 58.4861 24.6904 58.5955 24.7155 58.7002C24.7999 58.8905 24.9349 59.0539 25.1059 59.1726L26.0664 58.0442H26.0274ZM23.919 56.2638C24.1415 56.0942 24.323 55.8767 24.45 55.6273C24.5467 55.4453 24.5901 55.2395 24.5749 55.0339C24.5543 54.8594 24.4822 54.6949 24.368 54.5614C24.2657 54.4375 24.1303 54.3454 23.9775 54.2959C23.7847 54.233 23.5769 54.233 23.384 54.2959C22.838 54.4806 22.3793 54.8601 22.0956 55.3618C22.0133 55.5483 21.9771 55.7519 21.9901 55.9553C22.022 56.1195 22.0929 56.2735 22.1971 56.4044C22.2861 56.5076 22.3964 56.5904 22.5204 56.647C22.6444 56.7036 22.7792 56.7327 22.9155 56.7323C23.3029 56.7087 23.6675 56.5416 23.9385 56.2638H23.919ZM24.4304 56.8768C24.2133 57.0578 23.9518 57.1777 23.673 57.2243C23.3751 57.2737 23.0694 57.2385 22.7905 57.1228C22.4834 57.0149 22.2127 56.8228 22.0096 56.5683C21.7962 56.3179 21.6546 56.0143 21.5997 55.6898C21.535 55.3958 21.5567 55.0894 21.6621 54.8074C21.7487 54.5357 21.9113 54.2945 22.1307 54.1124C22.3515 53.9222 22.6228 53.8002 22.9116 53.761C23.2065 53.7095 23.5098 53.7378 23.7901 53.843C24.0907 53.9703 24.3571 54.1668 24.5674 54.4165C24.7777 54.6661 24.9261 54.962 25.0005 55.2799C25.0632 55.5805 25.0415 55.8926 24.938 56.1818C24.8429 56.4552 24.6723 56.6962 24.4461 56.8768H24.4304ZM18.8158 52.1445L19.5967 51.6721L19.7411 51.8985C19.6623 51.9524 19.5958 52.0224 19.546 52.1038C19.4962 52.1852 19.4643 52.2763 19.4522 52.371C19.4285 52.5797 19.4797 52.79 19.5967 52.9645C19.6989 53.1279 19.8488 53.2561 20.0262 53.3315C20.216 53.4254 20.4314 53.4542 20.6392 53.4135C20.9105 53.363 21.1692 53.2595 21.4005 53.109C21.6898 52.9183 21.9166 52.6467 22.0526 52.3281C22.104 52.1787 22.1198 52.0193 22.0988 51.8628C22.0778 51.7062 22.0205 51.5567 21.9316 51.4261C21.8311 51.2812 21.7 51.1602 21.5475 51.0718C21.3949 50.9834 21.2248 50.9298 21.0491 50.9146L21.0726 50.6296C21.3051 50.6702 21.5268 50.7585 21.7237 50.8889C21.9205 51.0192 22.0884 51.1888 22.2166 51.3871C22.383 51.632 22.4887 51.9131 22.525 52.207C22.5724 52.5154 22.5219 52.8308 22.3806 53.109C22.2483 53.3894 22.0434 53.6294 21.7871 53.8039C21.529 53.969 21.2337 54.067 20.9281 54.089C20.6252 54.098 20.326 54.0208 20.0652 53.8664C19.7863 53.7102 19.5595 53.4752 19.4131 53.1909C19.2726 52.933 19.2077 52.6407 19.2257 52.3476H18.9407L18.8158 52.1445ZM17.1173 48.9897L17.9373 48.5797L18.0583 48.8257C17.9761 48.8717 17.9058 48.9362 17.8529 49.0142C17.8 49.0921 17.7661 49.1814 17.7537 49.2747C17.7061 49.4771 17.7354 49.69 17.8357 49.8721C17.9108 50.0477 18.0506 50.1875 18.2262 50.2626C18.4136 50.3691 18.6279 50.4192 18.8431 50.407C19.1203 50.3793 19.3874 50.2885 19.624 50.1415C19.9345 49.9855 20.1864 49.7336 20.3424 49.4231C20.4104 49.2809 20.4421 49.1241 20.4346 48.9667C20.4271 48.8093 20.3807 48.6562 20.2995 48.5212C20.2098 48.3705 20.0881 48.2414 19.943 48.1429C19.798 48.0444 19.6331 47.979 19.46 47.9511L19.503 47.6622C19.731 47.7219 19.9447 47.8271 20.1312 47.9713C20.3177 48.1155 20.4732 48.2959 20.5884 48.5016C20.7294 48.7691 20.8132 49.063 20.8344 49.3645C20.8383 49.5952 20.795 49.8243 20.7071 50.0376C20.6192 50.2509 20.4886 50.444 20.3233 50.6049C20.158 50.7659 19.9614 50.8913 19.7458 50.9734C19.5302 51.0556 19.3001 51.0927 19.0696 51.0825C18.7662 51.0811 18.4716 50.9811 18.2301 50.7975C17.9607 50.6188 17.7533 50.361 17.6366 50.0595C17.5122 49.7983 17.4765 49.5035 17.5351 49.2201L17.2266 49.2006L17.1251 48.9741L17.1173 48.9897ZM18.6518 46.3854L16.3599 45.6514L16.2544 45.6709L16.3794 46.0379L16.1139 46.1199L15.9889 45.7724L15.7859 45.1164L15.6609 44.7494L15.9303 44.6674L16.0514 45.0149L18.6127 44.195L18.4878 43.828L18.7416 43.7304L18.8665 44.0974L19.0696 44.7533L19.1945 45.1008L18.9485 45.1828L18.8236 44.8353L16.8167 45.4913L19.093 46.2292L19.257 46.1668L19.132 45.8192L19.3975 45.7177L19.503 46.0848L19.7255 46.7407L19.8505 47.1077L19.5849 47.1897L19.4795 46.8227L16.9182 47.6622L17.0236 48.0097L16.7776 48.0917L16.6527 47.7442L16.4262 47.0687L16.3247 46.7212L16.5902 46.6392L16.6956 47.0062L18.6479 46.3698L18.6518 46.3854ZM15.3134 41.3096L17.9763 40.841L17.8943 40.4506L18.1598 40.4115L18.2418 40.802L18.3472 41.4774L18.4292 41.8679L18.1598 41.907L18.0778 41.5399L17.0744 41.7234C17.0687 41.7794 17.0752 41.836 17.0934 41.8892C17.1115 41.9424 17.141 41.9911 17.1798 42.0319C17.2551 42.1011 17.3463 42.1507 17.4453 42.1764L18.3238 42.4614C18.4147 42.4927 18.4943 42.5502 18.5527 42.6266C18.611 42.703 18.6455 42.7949 18.6518 42.8909C18.6963 43.0787 18.7108 43.2725 18.6947 43.4648L18.4292 43.5273V43.4844C18.4208 43.4773 18.4142 43.4683 18.4101 43.4581C18.406 43.4478 18.4045 43.4367 18.4058 43.4258C18.4058 43.3438 18.3668 43.2813 18.3238 43.2618C18.2424 43.1713 18.1367 43.1063 18.0193 43.0744L17.4453 42.8714C17.3689 42.8536 17.2976 42.8182 17.2373 42.768C17.177 42.7179 17.1292 42.6543 17.0978 42.5824H17.0744C17.0813 42.7175 17.0531 42.852 16.9924 42.9729C16.9507 43.1066 16.8738 43.2266 16.7698 43.3204C16.6623 43.4212 16.5256 43.4854 16.3794 43.5039C16.2155 43.5444 16.0429 43.5307 15.8874 43.4648C15.7311 43.3911 15.5966 43.2781 15.497 43.1369C15.3688 42.9542 15.2847 42.7444 15.251 42.5238L15.0479 41.3955L14.9855 41.005L15.251 40.9464L15.3134 41.3369V41.3096ZM15.4384 41.9889C15.4774 42.5395 15.7429 42.805 16.2544 42.7464C16.3675 42.7452 16.4782 42.7143 16.5756 42.6567C16.6729 42.5991 16.7534 42.517 16.8089 42.4184C16.8925 42.201 16.8925 41.9604 16.8089 41.743L15.4384 41.9889ZM16.8089 36.7023C16.9178 36.704 17.0251 36.7286 17.1239 36.7743C17.2228 36.82 17.311 36.8859 17.3828 36.9678C17.456 37.0433 17.5123 37.1335 17.548 37.2325C17.5837 37.3314 17.5979 37.4369 17.5898 37.5417C17.5904 37.6492 17.569 37.7556 17.5266 37.8543C17.4843 37.9531 17.4221 38.0421 17.3438 38.1157C17.263 38.188 17.1685 38.2433 17.0658 38.2782C16.9632 38.3131 16.8545 38.3269 16.7464 38.3187C16.642 38.3217 16.5384 38.3011 16.443 38.2585C16.3477 38.216 16.2632 38.1525 16.1958 38.0727C16.1186 37.9952 16.0586 37.9023 16.0195 37.8001C15.9805 37.6978 15.9635 37.5885 15.9694 37.4792C15.9702 37.373 15.9943 37.2682 16.0402 37.1724C16.0861 37.0765 16.1526 36.992 16.2349 36.9248C16.3095 36.8494 16.3992 36.7906 16.4981 36.7523C16.597 36.7139 16.7029 36.6969 16.8089 36.7023ZM18.3707 33.403L18.2887 33.7505L18.2262 34.1175L17.9607 34.0784L18.0427 33.688L15.4149 33.1882L15.251 33.9691L15.6024 34.0316L15.5399 34.3205L14.9464 34.1956L15.4774 31.4117L16.0709 31.5327L16.0319 31.8177L15.6844 31.7592L15.5399 32.5166L18.1832 33.0281L18.2418 32.6611L18.5112 32.7197L18.4487 33.1101L18.3863 33.4381L18.3707 33.403ZM17.8201 30.3887L18.7416 30.6581L18.8431 30.2872L19.1086 30.3692L18.9876 30.7596L18.8002 31.4351L18.6986 31.7826L18.4331 31.7006L18.5346 31.3531L15.9538 30.6151L15.8522 30.9626L15.5867 30.9002L15.6883 30.5332L15.9343 29.7327C16.0109 29.4047 16.1574 29.0971 16.3637 28.8308C16.4761 28.716 16.6211 28.6387 16.779 28.6094C16.937 28.58 17.1001 28.6001 17.2462 28.6668C17.3851 28.7089 17.5168 28.7721 17.6366 28.8542C17.7463 28.9397 17.8313 29.0529 17.8826 29.1822C17.9453 29.3369 17.9733 29.5035 17.9646 29.6703C17.9391 29.9198 17.892 30.1667 17.824 30.4082L17.8201 30.3887ZM17.5741 30.3301C17.611 30.2154 17.6384 30.0979 17.6561 29.9787C17.6489 29.84 17.6059 29.7054 17.5312 29.5883C17.395 29.4417 17.216 29.3419 17.0197 29.3032C16.92 29.2702 16.8138 29.2622 16.7103 29.2799C16.6068 29.2976 16.5092 29.3405 16.4262 29.4048C16.2777 29.5464 16.1837 29.7357 16.1607 29.9397L17.5741 30.3496V30.3301ZM18.7806 26.9488L17.6561 25.7775L17.5117 26.1054L17.2462 26L17.6366 25.0786L17.8826 25.184L17.742 25.512L19.6435 27.4642C19.7529 27.5635 19.844 27.6811 19.9129 27.8117C19.944 27.8756 19.9601 27.9457 19.9601 28.0167C19.9601 28.0877 19.944 28.1578 19.9129 28.2217C19.8532 28.3591 19.7607 28.4797 19.6435 28.5731L19.3194 28.2217C19.4289 28.1727 19.5164 28.0851 19.5654 27.9757C19.5849 27.9158 19.5876 27.8517 19.5731 27.7905C19.5587 27.7292 19.5276 27.6731 19.4835 27.6282L19.378 27.5462L16.8167 27.7922L16.7152 28.0577L16.4692 27.9562L16.9807 26.6872L17.2266 26.7887L17.0861 27.1362L18.765 26.9957L18.8665 27.0152V26.9957L18.765 26.9332L18.7806 26.9488ZM18.8236 23.0131L21.9472 23.5675L22.1307 23.2395L23.1381 23.833L22.8921 24.2625L22.1112 23.8135L20.9398 25.8829L21.7207 26.3124L21.4552 26.7653L20.4361 26.1601L20.6196 25.8556L18.7963 23.6417L18.6322 23.9502L18.3863 23.8057L18.5698 23.4777L18.8392 23.0053L18.8236 23.0131ZM19.3155 23.8135L20.729 25.5354L21.5099 24.1805L19.3585 23.751L19.214 23.6925V23.712L19.339 23.8135H19.3155ZM23.5363 19.8387C23.6212 19.9049 23.6907 19.9888 23.7399 20.0846C23.7891 20.1803 23.8169 20.2856 23.8213 20.3932C23.8278 20.5009 23.8128 20.6088 23.7773 20.7106C23.7418 20.8125 23.6864 20.9063 23.6144 20.9867C23.5452 21.0657 23.4608 21.1299 23.3662 21.1755C23.2716 21.2211 23.1688 21.2472 23.0639 21.2522C22.9577 21.2638 22.8502 21.2535 22.7481 21.222C22.646 21.1904 22.5515 21.1382 22.4704 21.0686C22.3141 20.9162 22.2183 20.7123 22.201 20.4947C22.1892 20.3912 22.1999 20.2863 22.2322 20.1873C22.2645 20.0883 22.3178 19.9974 22.3884 19.9207C22.4599 19.8369 22.5476 19.7685 22.6462 19.7195C22.7449 19.6705 22.8524 19.642 22.9623 19.6357C23.0672 19.6232 23.1735 19.635 23.273 19.6702C23.3726 19.7054 23.4627 19.7631 23.5363 19.8387ZM25.7697 17.1798L26.5896 18.2067L26.8786 17.9607L27.0426 18.1832L26.7536 18.4097L26.1992 18.8392L25.9141 19.0656L25.7306 18.8587L26.0352 18.6362L24.3758 16.5043L24.0908 16.7308L23.9072 16.5238L24.2118 16.3013L24.7662 15.8483L25.0552 15.6219L25.2153 15.8483L24.9302 16.0748L25.6057 16.9533L26.7536 16.0553L26.0586 15.1924L25.7697 15.4188L25.6057 15.2119L25.8946 14.9894L26.4452 14.5364L26.7341 14.3139L26.9176 14.5364L26.6092 14.7629L28.2686 16.8713L28.5575 16.6488L28.741 16.8518L28.4326 17.0978L27.882 17.5273L27.5931 17.7537L27.4291 17.5507L27.718 17.3047L26.9176 16.2778L25.7697 17.1798ZM30.2755 14.8371L29.026 15.5126L29.1119 16.188L29.4165 16.0045L29.5414 16.2505L28.7215 16.719L28.577 16.477L28.8855 16.313L28.495 13.1347L28.823 12.9512L31.4039 14.9035L31.7319 14.7199L31.8568 14.9659L30.5878 15.6648L30.4629 15.4384L30.7909 15.2549L30.2677 14.8371H30.2755ZM28.823 13.7711L28.987 15.247L30.0529 14.6536L28.8425 13.7516L28.8035 13.6462V13.6696L28.8425 13.7711H28.823ZM32.3878 13.3182L32.7978 14.2006L33.1453 14.0562L33.2468 14.3022L32.8993 14.4466L32.2668 14.7317L31.9154 14.8956L31.8138 14.6536L32.1418 14.4896L31.0564 12.0297L30.7089 12.1937L30.6074 11.9282L30.9549 11.7838L31.7123 11.4363C32.0223 11.297 32.3566 11.2201 32.6963 11.2098C32.9813 11.2098 33.2077 11.3933 33.3717 11.7642C33.4329 11.8926 33.4674 12.0321 33.4732 12.1742C33.4874 12.316 33.4589 12.4588 33.3913 12.5842C33.3119 12.7368 33.2 12.8702 33.0633 12.9746C32.8575 13.1248 32.6296 13.242 32.3878 13.3221V13.3182ZM32.2863 13.0957C32.4061 13.0651 32.518 13.0092 32.6143 12.9317C32.7262 12.8442 32.8059 12.7219 32.8407 12.5842C32.8811 12.3864 32.8433 12.1807 32.7353 12.0102C32.7011 11.9116 32.6417 11.8236 32.5629 11.7551C32.4841 11.6866 32.3887 11.6399 32.2863 11.6198C32.0809 11.6007 31.8744 11.6428 31.6928 11.7408L32.2863 13.0957ZM34.8047 11.9478C34.8672 12.2214 34.9855 12.4793 35.1522 12.7052C35.2781 12.8673 35.4493 12.9882 35.6441 13.0527C35.81 13.1114 35.9897 13.1182 36.1595 13.0722C36.308 13.0238 36.4422 12.9393 36.55 12.8263C36.6892 12.6718 36.7813 12.4808 36.8155 12.2757C36.8519 11.9946 36.8306 11.7089 36.753 11.4363C36.675 11.1574 36.5509 10.8934 36.386 10.6554C36.26 10.4976 36.0881 10.383 35.894 10.3274C35.7275 10.2726 35.5489 10.2658 35.3786 10.3079C35.2508 10.3448 35.1329 10.4099 35.0336 10.4984C34.9343 10.587 34.8561 10.6966 34.8047 10.8193C34.6705 11.1835 34.6705 11.5836 34.8047 11.9478ZM34.0238 12.1508C33.9518 11.8756 33.9518 11.5865 34.0238 11.3113C34.1061 11.0236 34.2622 10.7625 34.4767 10.5538C34.7076 10.3219 34.9981 10.1584 35.3162 10.0814C35.6361 9.99334 35.973 9.98662 36.2962 10.0619C36.5854 10.1286 36.8509 10.273 37.0642 10.4793C37.2775 10.6857 37.4304 10.9464 37.5066 11.2332C37.582 11.509 37.5752 11.8007 37.4871 12.0727C37.4121 12.3635 37.2548 12.6265 37.0341 12.8302C36.8033 13.0621 36.5128 13.2256 36.1947 13.3026C35.8911 13.3953 35.5683 13.4061 35.2592 13.3342C34.95 13.2622 34.6652 13.1099 34.4338 12.8926C34.2291 12.688 34.0811 12.4337 34.0043 12.1547L34.0238 12.1508ZM39.533 9.20289L40.9699 12.0102L41.3369 11.9673L41.4814 13.1386L40.9894 13.2011L40.8645 12.2992L38.5218 12.5881L38.6233 13.4861L38.1118 13.5486L37.9712 12.3772L38.3383 12.3382L39.0137 9.55038L38.6662 9.58943L38.6233 9.32393L39.0137 9.26146L39.5252 9.20289H39.533ZM39.205 10.0814L38.6545 12.2328L40.2163 12.0493L39.2714 10.0619L39.2324 9.91741H39.1894V10.0814H39.205ZM42.2584 10.6163C42.2532 10.8983 42.3091 11.178 42.4224 11.4363C42.5012 11.6238 42.6381 11.7811 42.8128 11.8853C42.9527 11.9789 43.117 12.0291 43.2853 12.0297C43.4513 12.0231 43.6128 11.9733 43.7538 11.8853C43.9302 11.7726 44.0668 11.6073 44.1442 11.4128C44.2536 11.1471 44.3029 10.8604 44.2887 10.5734C44.284 10.2945 44.2271 10.0191 44.1208 9.76123C44.0343 9.57331 43.8996 9.41165 43.7304 9.29269C43.5785 9.21302 43.4099 9.17023 43.2384 9.16775C43.1043 9.17208 42.9728 9.20538 42.8528 9.26536C42.7329 9.32535 42.6273 9.4106 42.5434 9.51525C42.3125 9.83608 42.2095 10.2314 42.2545 10.6241L42.2584 10.6163ZM41.4775 10.6163C41.4738 10.3363 41.5438 10.0603 41.6805 9.8159C41.8334 9.55176 42.0528 9.33232 42.3169 9.17946C42.6064 9.02069 42.9282 8.92988 43.2579 8.91395C43.5852 8.91294 43.9079 8.99062 44.1989 9.14042C44.4684 9.28253 44.6949 9.4942 44.8549 9.75343C44.998 9.98917 45.0761 10.2586 45.0813 10.5343C45.0932 10.8214 45.0227 11.1059 44.8783 11.3543C44.7254 11.6184 44.506 11.8378 44.2419 11.9907C43.9569 12.1581 43.6312 12.2432 43.3009 12.2367C42.9733 12.2512 42.6475 12.1799 42.356 12.0297C42.0976 11.8809 41.8803 11.6703 41.7235 11.4167C41.5667 11.1717 41.4815 10.8877 41.4775 10.5968V10.6163ZM47.4982 10.7374V10.7608C47.7084 10.795 47.9025 10.8948 48.0527 11.0458C48.1255 11.1249 48.1797 11.2191 48.2115 11.3218C48.2432 11.4245 48.2516 11.5329 48.2361 11.6393C48.2326 11.7729 48.1949 11.9034 48.1266 12.0182C48.0582 12.1331 47.9615 12.2285 47.8457 12.2952C47.5929 12.4445 47.2966 12.5024 47.0062 12.4592L45.4444 12.2562V11.9868L45.8349 12.0493L46.1629 9.36687L45.7724 9.32393L45.8154 9.05843L47.3108 9.24194C47.6022 9.25295 47.8798 9.36951 48.0917 9.56991C48.2077 9.7157 48.2735 9.89514 48.2791 10.0814C48.2728 10.1765 48.2474 10.2693 48.2043 10.3542C48.1612 10.4392 48.1014 10.5146 48.0285 10.5758C47.9555 10.6371 47.871 10.683 47.7799 10.7108C47.6887 10.7385 47.5929 10.7476 47.4982 10.7374ZM46.4635 12.1039L46.7524 12.143C46.9321 12.1675 47.1144 12.1244 47.2639 12.0219C47.3414 11.975 47.4049 11.9083 47.4482 11.8287C47.4914 11.7492 47.5127 11.6595 47.5099 11.569C47.5404 11.4696 47.5391 11.3631 47.5062 11.2644C47.4734 11.1657 47.4105 11.0797 47.3264 11.0185C47.1852 10.9251 47.0227 10.8687 46.854 10.8545L46.6275 10.8115L46.4635 12.1039ZM46.6705 10.5421L46.893 10.5616C46.9758 10.5756 47.0607 10.572 47.1421 10.5512C47.2234 10.5303 47.2995 10.4927 47.3655 10.4406C47.428 10.3962 47.4793 10.3377 47.5152 10.2699C47.5512 10.2021 47.5707 10.1269 47.5724 10.0502C47.5856 9.91883 47.5478 9.78747 47.467 9.68314C47.4106 9.61936 47.3416 9.56802 47.2642 9.53239C47.1869 9.49676 47.1031 9.47763 47.0179 9.4762L46.7915 9.43716L46.6705 10.5421ZM50.5008 10.5851L50.4383 10.7061L49.1498 12.467C49.0791 12.5539 48.9962 12.6302 48.9038 12.6935C48.8525 12.7272 48.7939 12.7483 48.7328 12.7551C48.6717 12.7619 48.6099 12.7541 48.5524 12.7325C48.4435 12.7038 48.3404 12.6562 48.2479 12.592L48.5954 12.1196C48.6109 12.1539 48.6335 12.1845 48.6618 12.2094C48.6901 12.2343 48.7233 12.253 48.7594 12.264C48.8185 12.2734 48.879 12.2622 48.9309 12.2324C48.9827 12.2026 49.0228 12.1558 49.0444 12.1L50.5203 10.1478L50.1728 10.0658L50.2353 9.80028L50.6023 9.90179L51.0942 10.0267L51.3832 13.1816L51.7073 13.2636L51.6253 13.5096L50.2743 13.1581L50.368 12.8848L50.7155 12.9863L50.5125 10.7334V10.6124V10.5929L50.5008 10.5851ZM53.9641 13.4939L52.6326 12.9785L52.1797 13.4705L52.5077 13.5954L52.4062 13.8414L51.5042 13.4939L51.5862 13.2479L51.9337 13.369L54.1046 11.0263L54.4756 11.1707L54.663 14.4466L54.991 14.5716L54.8894 14.8137L53.5346 14.3022L53.64 14.0367L53.9875 14.1811V13.5056L53.9641 13.4939ZM53.8391 11.6901L52.8161 12.7755L53.9406 13.205L53.8821 11.7135L53.9016 11.612H53.8821L53.8391 11.694V11.6901ZM59.0243 13.5134L58.5948 14.3139L58.3488 14.1889C58.3895 14.1022 58.4107 14.0075 58.4107 13.9117C58.4107 13.8159 58.3895 13.7212 58.3488 13.6345C58.283 13.4392 58.1427 13.2777 57.9584 13.1855C57.791 13.0872 57.5972 13.0435 57.4039 13.0605C57.1859 13.081 56.979 13.1667 56.8104 13.3065C56.5955 13.4788 56.4209 13.696 56.2989 13.9429C56.1406 14.2521 56.0767 14.6012 56.1154 14.9464C56.1368 15.101 56.1966 15.2478 56.2894 15.3733C56.3822 15.4988 56.5049 15.599 56.6465 15.6648C56.8048 15.7457 56.9801 15.7879 57.1579 15.7879C57.3358 15.7879 57.5111 15.7457 57.6694 15.6648L57.7944 15.9499C57.5702 16.0258 57.333 16.0559 57.0969 16.0385C56.8608 16.021 56.6306 15.9564 56.42 15.8483C56.1503 15.7079 55.9185 15.5043 55.7445 15.2549C55.5721 15.0181 55.4681 14.7385 55.4439 14.4466C55.4267 14.1348 55.4913 13.8239 55.6313 13.5447C55.7732 13.2751 55.9849 13.0486 56.2443 12.8887C56.5029 12.727 56.8021 12.6417 57.1072 12.6428C57.4267 12.6584 57.7365 12.7581 58.0052 12.9317C58.2582 13.0858 58.4584 13.3132 58.5792 13.5837L58.8251 13.4432L59.0321 13.5447L59.0243 13.5134ZM58.8174 17.4179L58.5323 17.1915L58.2239 16.9689L58.4074 16.762L58.6963 16.9885L60.3557 14.8761L59.7388 14.4076L59.5358 14.6731L59.2898 14.5091L59.6802 14.0171L61.9136 15.7585L61.5232 16.2505L61.2772 16.067L61.4841 15.7976L60.9102 15.3056L59.2507 17.4375L59.5397 17.6639L59.3757 17.8904L59.0672 17.6444L58.8213 17.4375L58.8174 17.4179ZM61.5232 18.5463L63.9205 18.2184L64.0025 18.1364L63.737 17.8709L63.9401 17.6835L64.186 17.9294L64.678 18.4409L64.9435 18.7103L64.7405 18.9134L64.475 18.6283L62.5461 20.4908L62.8116 20.7797L62.6086 20.9632L62.3431 20.6743L61.8707 20.1862L61.6052 19.9168L61.8082 19.7333L62.0542 19.9988L63.5925 18.5229L61.2147 18.8743L61.0702 18.9954L61.3396 19.2609L61.1522 19.4483L60.8867 19.1789L60.4182 18.6869L60.1488 18.4019L60.3362 18.2184L60.6017 18.5034L62.554 16.6175L62.2885 16.352L62.472 16.1685L62.7375 16.434L63.2294 16.9455L63.4754 17.2149L63.2919 17.3984L63.0264 17.1095L61.531 18.5463H61.5232ZM65.7634 20.2878L64.9435 20.9437L65.5799 21.7246L65.8454 21.5021L66.0094 21.7051L65.2715 22.2986L65.1075 22.1151L65.3535 21.8886L64.717 21.1077L63.7565 21.8886L64.5765 22.8921L64.842 22.6695L65.006 22.8725L64.475 23.302L62.8351 21.2756L63.0381 21.1116L63.2841 21.3966L65.373 19.6982L65.127 19.4092L65.334 19.2453L66.9309 21.1975L66.4389 21.6075L66.2749 21.4005L66.5209 21.1975L65.7634 20.276V20.2878ZM67.4033 25.9219C67.2134 26.0218 66.9918 26.0429 66.7864 25.9805C66.6826 25.9526 66.5856 25.9034 66.5016 25.8362C66.4177 25.7691 66.3484 25.6852 66.2984 25.5901C66.1944 25.3945 66.1719 25.1657 66.2359 24.9536C66.3072 24.7518 66.4526 24.5847 66.6425 24.4861C66.8325 24.3875 67.0528 24.3648 67.2589 24.4226C67.4617 24.4853 67.6315 24.6257 67.7313 24.8131C67.8305 25.0031 67.8529 25.2239 67.7938 25.43C67.7663 25.5345 67.7174 25.6323 67.6502 25.7169C67.583 25.8016 67.4989 25.8714 67.4033 25.9219ZM71.0697 30.0373L70.2106 30.3457L70.1287 30.0802C70.2126 30.0427 70.2883 29.9888 70.3513 29.9218C70.4144 29.8548 70.4634 29.7759 70.4957 29.6898C70.5371 29.5929 70.5583 29.4886 70.5583 29.3833C70.5583 29.2779 70.5371 29.1737 70.4957 29.0768C70.437 28.8896 70.3225 28.7248 70.1677 28.6043C69.992 28.484 69.7868 28.4138 69.5742 28.4013C69.3064 28.384 69.0383 28.4322 68.7933 28.5419C68.465 28.6599 68.1803 28.875 67.9773 29.1588C67.8925 29.2872 67.8407 29.4346 67.8264 29.5878C67.8121 29.741 67.8358 29.8954 67.8953 30.0373C67.9561 30.2061 68.0567 30.3577 68.1886 30.4793C68.3204 30.601 68.4797 30.6891 68.6528 30.7362L68.5474 31.0212C68.3312 30.9308 68.1361 30.7967 67.9742 30.6274C67.8123 30.4581 67.6871 30.2572 67.6064 30.0373C67.4944 29.752 67.4529 29.444 67.4853 29.1392C67.5162 28.8372 67.6373 28.5515 67.8328 28.3193C68.0213 28.0683 68.2772 27.876 68.5708 27.7649C68.8583 27.6556 69.1702 27.6273 69.4727 27.6829C69.761 27.7474 70.0291 27.8815 70.2536 28.0733C70.4851 28.2968 70.6488 28.581 70.7261 28.8933C70.8081 29.1737 70.8081 29.4718 70.7261 29.7523L71.0111 29.8147L71.0736 30.0373H71.0697ZM69.8007 31.9036C69.5258 31.9523 69.2615 32.0488 69.0198 32.1887C68.85 32.3087 68.7153 32.4718 68.6294 32.6611C68.5665 32.8172 68.5515 32.9884 68.5864 33.1531C68.6132 33.3227 68.6924 33.4797 68.8129 33.6021C68.9539 33.7431 69.1308 33.843 69.3244 33.891C69.6072 33.954 69.9005 33.954 70.1833 33.891C70.4641 33.8502 70.7314 33.7446 70.9642 33.5826C71.1422 33.4734 71.2794 33.3088 71.3547 33.114C71.4179 32.9579 71.4315 32.7862 71.3937 32.6221C71.3695 32.4867 71.3142 32.3588 71.2322 32.2484C71.1503 32.1379 71.0438 32.048 70.9213 31.9856C70.5679 31.8263 70.1695 31.7972 69.7968 31.9036H69.8007ZM69.6562 31.1032C69.9386 31.0613 70.2268 31.0895 70.4957 31.1852C70.7745 31.2925 71.0216 31.4684 71.2141 31.6967C71.4186 31.952 71.5532 32.2561 71.6046 32.5791C71.679 32.8847 71.6685 33.2048 71.5742 33.5048C71.4799 33.8048 71.3055 34.0734 71.0697 34.2815C70.8583 34.4793 70.596 34.6145 70.3122 34.6719C70.0303 34.7273 69.7385 34.6988 69.4727 34.5899C69.1837 34.492 68.928 34.3147 68.7348 34.0784C68.538 33.8274 68.4041 33.5328 68.3443 33.2195C68.2818 32.8915 68.3033 32.553 68.4068 32.2355C68.5001 31.9491 68.6702 31.6938 68.8987 31.4976C69.112 31.3023 69.3735 31.1675 69.6562 31.1071V31.1032ZM69.0627 36.3274L69.1252 37.7213L71.7451 37.6393V37.2489H72.0302V37.6003L72.0536 38.3148V38.7053H71.7881L71.7647 38.3148L69.0823 38.4202V38.8497L67.9109 38.8888V38.3382L68.8129 38.2953L68.7113 35.6519L68.6879 35.2849L68.9769 35.2615V35.6324L71.6592 35.5504V35.16H71.9286V35.5309V36.2259L71.9482 36.6164H71.6632V36.2259L69.0198 36.3079L69.0627 36.3274ZM69.5352 40.3452L71.2961 41.9851H71.3976L71.4601 41.5946L71.7256 41.6375L71.6866 42.0046L71.6046 42.68L71.5421 43.0705L71.2727 43.0275L71.3157 42.6605L68.6528 42.3325L68.6098 42.6996L68.3443 42.68L68.3873 42.2896L68.4693 41.6102L68.5083 41.2432H68.7738L68.7348 41.6336L70.8432 41.8796L69.0823 40.2397L68.9183 40.2202L68.8558 40.6107L68.5903 40.5716L68.6333 40.2046L68.7348 39.5057L68.7738 39.1387L69.0432 39.1777L69.0003 39.5682L71.6632 39.8961L71.7061 39.5252H71.9716L71.9325 39.9156L71.8506 40.6107L71.8076 40.9816L71.5421 40.9582L71.5811 40.5677L69.5352 40.3217V40.3452ZM68.5513 45.2219L68.9183 43.8475L68.3873 43.457L68.3053 43.785L68.0398 43.7264L68.2818 42.7816L68.5513 42.844L68.4693 43.1915L71.0072 45.1164L70.9057 45.5069L67.7118 46.0184L67.6064 46.3659L67.3409 46.2878L67.7313 44.8939L67.9773 44.9525L67.8953 45.3429L68.5513 45.2414V45.2219ZM70.3317 44.9134L69.1604 44.0115L68.8324 45.1828L70.3083 44.9564L70.4293 44.9798V44.9564L70.3278 44.9173L70.3317 44.9134ZM68.9808 48.7242L68.8792 48.6422L67.3409 47.1038C67.2649 47.0192 67.2029 46.923 67.1574 46.8188C67.1335 46.7633 67.1229 46.7031 67.1263 46.6428C67.1296 46.5825 67.147 46.5238 67.1769 46.4713C67.2292 46.3697 67.2907 46.273 67.3604 46.1824L67.7704 46.6119C67.734 46.6222 67.7004 46.6405 67.672 46.6655C67.6436 46.6905 67.6212 46.7216 67.6064 46.7563C67.5673 46.8383 67.6064 46.9398 67.7118 47.0648L69.4297 48.8257L69.5742 48.4977L69.8202 48.5992L69.6757 48.9272L69.4727 49.3997L66.3179 49.2162L66.1734 49.5012L65.9274 49.3997L66.5014 48.1073L66.7474 48.2322L66.6029 48.5602L68.8558 48.7047L68.9808 48.7437V48.7242ZM66.0094 50.9146L66.9114 53.1285L67.0129 53.1909L67.2198 52.8825L67.4424 53.027L67.2394 53.3354L66.8489 53.9289L66.6654 54.2569L66.4194 54.1124L66.6263 53.7844L64.35 52.3515L64.147 52.6794L63.9205 52.535L64.1275 52.207L64.4945 51.6135L64.678 51.3051L64.9044 51.4495L64.721 51.7775L66.5014 52.902L65.5995 50.6686L65.4589 50.5671L65.252 50.8951L65.0255 50.7506L65.2324 50.4461L65.5995 49.8526L65.7869 49.5246L66.0329 49.6652L65.8259 49.9932L68.1022 51.4066L68.3053 51.102L68.5317 51.2426L68.3248 51.5706L67.9578 52.1641L67.7743 52.4725L67.5478 52.3281L67.7313 52.0001L65.9899 50.9146H66.0094ZM64.393 54.5029L64.5765 54.6668L64.475 54.7879C64.4133 54.8529 64.3667 54.9307 64.3384 55.0157C64.3101 55.1007 64.3007 55.1909 64.311 55.2799C64.3212 55.3665 64.3502 55.4498 64.3961 55.524C64.442 55.5982 64.5036 55.6615 64.5765 55.7093C64.6372 55.755 64.7067 55.7876 64.7806 55.805C64.8545 55.8225 64.9313 55.8245 65.006 55.8109C65.143 55.764 65.2637 55.6786 65.3535 55.5649C65.4104 55.5021 65.4529 55.4276 65.4779 55.3467C65.5028 55.2657 65.5097 55.1802 65.4979 55.0963C65.4738 54.9425 65.393 54.8033 65.2715 54.7059L65.455 54.5029L66.0289 54.9948L65.865 55.1979L65.6814 55.1354C65.6997 55.2868 65.6812 55.4404 65.6275 55.5831C65.5738 55.7258 65.4865 55.8535 65.373 55.9553C65.2236 56.1564 65.0054 56.2954 64.76 56.3458C64.5721 56.3907 64.3741 56.3597 64.2089 56.2595C64.0438 56.1594 63.9247 55.9982 63.8776 55.8109C63.8662 55.644 63.8943 55.4768 63.9596 55.3228L64.022 55.2408V55.2174L63.9401 55.2994C63.7778 55.4126 63.5967 55.4959 63.4051 55.5454C63.2294 55.5612 63.054 55.5111 62.9132 55.4048C62.8001 55.3248 62.7064 55.2205 62.6388 55.0995C62.5713 54.9786 62.5316 54.8441 62.5227 54.7059C62.5235 54.5074 62.5635 54.311 62.6406 54.128C62.7177 53.945 62.8302 53.7792 62.9717 53.64C63.1544 53.4103 63.4064 53.2459 63.6902 53.1714L63.5067 53.0465L63.6902 52.8435L64.3266 53.3745L64.1626 53.5814C64.0271 53.4804 63.8579 53.4357 63.6902 53.4564C63.4948 53.5093 63.3221 53.6245 63.1982 53.7844C63.0653 53.9449 62.9996 54.1506 63.0147 54.3584C63.0244 54.4556 63.0571 54.5492 63.11 54.6313C63.163 54.7135 63.2347 54.7818 63.3192 54.8308C63.3971 54.8975 63.4914 54.942 63.5924 54.9599C63.6933 54.9777 63.7972 54.9682 63.8932 54.9324C64.0429 54.8571 64.1758 54.7522 64.2836 54.6239L64.3891 54.5029H64.393ZM60.9492 57.2048L61.5622 59.6451L60.7813 60.3206L60.6173 60.1136L60.9023 59.8676L59.1219 57.8607L58.833 58.1067L58.669 57.9037L58.9579 57.6577L59.4694 57.2048L59.7544 56.9588L59.9184 57.1657L59.6334 57.4117L61.1483 59.1531L60.4924 56.6933L60.7813 56.4473L63.124 57.4117L61.6091 55.6898L61.3201 55.9358L61.1561 55.7289L61.4451 55.4829L61.6481 55.2994L61.9175 55.0534L62.101 55.2603L61.8121 55.5063L63.5769 57.5327L63.862 57.2868L64.0455 57.4937L63.7604 57.7397L63.2685 58.1692L60.9531 57.2048H60.9492ZM56.1545 60.957C56.0475 60.77 56.0181 60.5485 56.0725 60.3401C56.0966 60.2341 56.1442 60.1349 56.2118 60.0497C56.2794 59.9646 56.3652 59.8957 56.4629 59.8481C56.556 59.7979 56.658 59.7666 56.7632 59.7559C56.8684 59.7451 56.9747 59.7553 57.0759 59.7856C57.2782 59.8369 57.4538 59.9623 57.5679 60.1371C57.6746 60.3227 57.7041 60.5429 57.6499 60.7501C57.6258 60.8561 57.5782 60.9553 57.5106 61.0404C57.443 61.1256 57.3572 61.1945 57.2595 61.242C57.17 61.3007 57.0684 61.3386 56.9623 61.3528C56.8562 61.367 56.7482 61.3571 56.6465 61.324C56.4446 61.2629 56.2705 61.1331 56.1545 60.957Z" fill="white"/>
<path fill-rule="evenodd" clip-rule="evenodd" d="M27.7219 50.2821C27.3627 50.7546 27.2183 52.1602 27.9094 52.5584C28.4521 52.8786 28.8581 53.0192 29.7445 52.4921C30.6308 51.965 32.2238 48.5876 32.6689 48.1971L34.9218 46.3073C34.8828 46.2644 34.6915 46.0731 34.4103 45.7997C34.4572 45.7529 35.1053 45.2336 35.1561 45.1555C36.2582 46.4422 37.5145 47.5883 38.8966 48.568C39.0098 48.65 40.5053 50.1298 42.3443 50.7038C45.6202 51.7463 49.4231 51.5706 50.7077 51.1879C52.0704 50.7975 54.4131 49.9346 55.2643 49.2357C56.1275 48.4997 56.9125 47.6767 57.607 46.7798C59.2117 44.3629 59.6685 41.0753 59.5592 38.6701C59.4004 36.9133 59.0682 35.1764 58.5675 33.485C58.5206 33.321 57.443 30.3965 56.6972 29.4633C56.5489 29.2759 54.335 25.5588 53.4057 24.4539C48.693 18.89 47.1585 18.1676 45.8622 16.9846C46.6431 18.1989 50.3798 21.3381 52.9177 25.184C54.2491 27.2026 55.3619 28.8074 55.7836 30.0373C56.2052 31.2672 57.0252 34.668 57.1345 34.9999L57.4703 35.0468L57.6421 38.1118L57.8959 38.2289L56.9783 41.6415L57.2634 41.7781L55.4165 44.9017L55.6313 45.1594L52.8591 47.2444L52.9684 47.5607L50.368 48.6383L50.4735 49.0014L47.4631 48.9624L47.3577 49.2279L44.6245 48.6149L44.566 49.0053L42.6137 48.1268L42.4068 48.4002L40.517 47.3147L40.392 47.4201L38.7443 46.1785L38.5725 46.2878L37.1162 44.8314L36.9483 44.972L35.4607 43.5273L33.8989 45.2492L33.157 44.7104C32.3449 45.5186 32.6299 46.4557 30.6659 47.9043C28.6317 49.4036 27.9679 49.9502 27.7024 50.2977L27.7219 50.2821Z" fill="white"/>
<path fill-rule="evenodd" clip-rule="evenodd" d="M41.9577 22.1151L36.1595 27.8117L59.2468 50.6296C59.247 51.151 59.0423 51.6517 58.6768 52.0235C58.4827 52.1903 58.2564 52.3152 58.0118 52.3905C57.7672 52.4657 57.5098 52.4897 57.2555 52.4608L34.9257 29.0338L30.9549 32.9383L27.7532 29.7327L31.7435 26.0352L31.236 25.4144L32.5049 24.1767L33.1023 24.7428L35.406 22.5524L41.9499 22.1151H41.9577Z" fill="white"/>
<path fill-rule="evenodd" clip-rule="evenodd" d="M41.9109 26.3554L41.7273 26.2538L41.5204 26.1523L41.3174 26.0703L41.1339 25.9688L40.9269 25.8868L40.7434 25.8244L40.5599 25.7619L40.3959 25.6799L40.2085 25.6409L40.0445 25.5784L39.861 25.5354L39.697 25.4964L39.533 25.4769L39.369 25.4339L39.205 25.4144H39.0645L38.9005 25.391H38.7365L38.592 25.3714H38.1196L37.979 25.391H37.8346L37.6706 25.4144H37.569H37.4832L37.3816 25.4339L37.2801 25.4534H37.1786L37.0732 25.4769L36.9717 25.4964L36.8702 25.5159H36.7686L36.6632 25.5393L36.5617 25.5588L36.4602 25.5979L36.3587 25.6213L36.2532 25.6409H36.1517L36.0502 25.6838L35.9487 25.7033L35.8472 25.7424L35.7417 25.7853L35.6207 25.8048L35.5192 25.8478L35.4138 25.8868L35.2927 25.9298L35.1912 25.9688L35.0858 26.0118L34.9648 26.0508L34.8632 26.0938L34.7383 26.1328L34.6173 26.1953L34.5118 26.2343L34.3908 26.2773L34.2659 26.3163L34.0004 26.4178L33.7349 26.5233L33.4693 26.6248L33.2038 26.7068L32.9344 26.7888L32.6689 26.8708L32.4034 26.9332L32.1379 27.0152L31.8724 27.0543L31.5835 27.1168L31.318 27.1792L31.0525 27.2183L30.7635 27.2612L30.498 27.3003L30.2325 27.3198L29.9436 27.3627L29.6781 27.3823H29.4126L29.1236 27.4057L28.8581 27.4252H28.3076L28.0421 27.4447H26.9762L26.7302 27.4252H26.4412L32.1184 54.663L32.6104 54.581L33.0789 54.499L33.5513 54.417L33.9808 54.3155L34.3908 54.1905L34.7813 54.089L35.1717 53.968L35.5387 53.843L36.2767 53.597L36.6242 53.476L37.3231 53.23L37.6706 53.1246L37.9986 53.0231L38.3461 52.9411L38.6935 52.8591L39.0215 52.7966L39.412 52.7576H39.7595H40.1265H40.517L40.884 52.8201L41.2744 52.902L41.6649 53.0036L42.0319 53.148L42.4419 53.312L42.8323 53.515L43.2423 53.7415V27.1558L43.0158 27.0113L42.7698 26.8473L42.5668 26.7263L42.3404 26.5818L42.1334 26.4569L41.9304 26.3554H41.9109ZM45.0852 26.3554L45.2922 26.2538L45.4952 26.1523L45.7021 26.0508L45.8856 25.9688L46.0691 25.8868L46.2527 25.8244L46.4401 25.7424L46.6236 25.6799L46.8071 25.6409L46.9711 25.5784L47.1351 25.5354L47.3186 25.4964L47.4826 25.4534L47.6466 25.4339L47.791 25.4144H47.955L48.119 25.391L48.283 25.3714H48.8765L49.0405 25.391H49.1967L49.3372 25.4144H49.4426H49.5442L49.6457 25.4339H49.7706L49.8721 25.4534L49.9736 25.4769L50.0752 25.4964L50.1806 25.5159H50.2626L50.3836 25.5393L50.4851 25.5588L50.5906 25.5784L50.6921 25.6213L50.8951 25.6604L51.0005 25.7033L51.102 25.7228L51.2036 25.7619L51.3051 25.7853L51.4066 25.8244L51.5315 25.8673L51.6331 25.9064L51.7346 25.9493L51.8595 25.9883L51.961 26.0313L52.086 26.0703L52.1875 26.1133L52.3085 26.1523L52.414 26.1953L52.535 26.2538L52.656 26.2968L52.781 26.3359L53.0465 26.4374L53.2925 26.5428L53.558 26.6248L53.8274 26.7263L54.0929 26.8083L54.3779 26.8903L54.9128 27.0113L55.1783 27.0738L55.4634 27.1363L55.7328 27.1753L55.9983 27.2378L56.2833 27.2807L56.5527 27.3198L56.8182 27.3393L57.1033 27.3823L57.3688 27.4018H57.6382L57.9037 27.4252H58.177L58.4425 27.4447H58.7119L58.9774 27.4642H59.7778L60.0238 27.4447H60.5744L54.9011 54.663H54.8777L54.3896 54.6005L53.9172 54.5185L53.4643 54.4365L53.0348 54.335L52.6248 54.2101L52.2344 54.1085L51.8439 53.9875L51.4535 53.8626L51.063 53.7415L50.7155 53.597L50.368 53.4721L50.0205 53.3706L49.673 53.2495L49.3216 53.1441L48.9975 53.0426L48.6461 52.9606L48.2986 52.8786L47.9511 52.8162L47.6036 52.7771H47.2522H46.8852H46.5182L46.1472 52.8396L45.7568 52.9216L45.3898 53.0231L44.9993 53.1675L44.6089 53.3315L44.1989 53.5346L43.8085 53.761V27.1558L44.0349 26.9918L44.4878 26.7029L44.7104 26.5818L44.9173 26.4569L45.1204 26.3554H45.0852ZM43.4883 26.6638C45.9481 25.0044 47.7286 24.6569 49.388 24.8209C50.6335 24.9866 51.8486 25.3311 52.9957 25.8439C55.6156 26.9489 58.6494 27.0152 61.2733 26.8903L55.3501 55.2643C49.7784 54.7723 47.9941 51.6995 43.7733 54.4248L43.4883 54.6083L43.2228 54.4248C39.0215 51.6917 37.2176 54.7723 31.6655 55.2838L25.7462 26.8903C28.3466 27.0113 31.3804 26.9723 34.0238 25.8439C35.1604 25.3287 36.3692 24.9903 37.6081 24.8404C39.2675 24.6569 41.0519 25.0044 43.4883 26.6638Z" fill="white"/>
<path fill-rule="evenodd" clip-rule="evenodd" d="M15.9421 78.047V64.0962H20.1667V69.2345H20.2214L22.7359 64.0962H27.6282L23.6222 70.6714L28.0148 78.047H22.8491L20.2214 72.3815H20.1667V78.047H15.9421ZM29.3111 78.047V64.0962H40.8879V78.047H36.5929V67.5751H33.6372V78.047H29.3111ZM43.6796 78.047V64.0962H48.6813C49.4989 64.0773 50.313 64.2097 51.0825 64.4866C51.749 64.7185 52.3604 65.0854 52.8786 65.5643C53.3565 66.0345 53.7327 66.598 53.9836 67.2198C54.2563 67.8858 54.3892 68.6008 54.374 69.3204C54.3854 70.0125 54.2919 70.7023 54.0968 71.3664C53.9065 71.999 53.5663 72.5763 53.1051 73.0492C52.6222 73.5395 52.0369 73.9169 51.391 74.1542C50.5488 74.4505 49.6597 74.5907 48.7672 74.568H47.9355V78.0509L43.6796 78.047ZM47.9316 67.5751V71.0892H48.568C48.7752 71.103 48.983 71.0733 49.178 71.002C49.373 70.9308 49.5509 70.8195 49.7003 70.6753C49.8661 70.4938 49.9916 70.2792 50.0683 70.0456C50.145 69.8121 50.1713 69.5649 50.1454 69.3204C50.1454 68.684 50.0049 68.2154 49.7003 67.9656C49.3874 67.6942 48.9817 67.5542 48.568 67.5751H47.9316ZM61.6364 78.047V76.0596H60.9101C59.0321 76.0596 57.5952 75.6145 56.5723 74.7594C55.5493 73.9043 55.0807 72.5768 55.0807 70.7807C55.0807 69.1538 55.5779 67.8836 56.5723 66.9699C57.5679 66.0289 58.9774 65.5877 60.8281 65.5877H61.6286V63.8463H65.8571V65.5955H66.638C68.4614 65.5955 69.8709 66.0367 70.8939 66.9777C71.9169 67.9187 72.3855 69.1603 72.3855 70.7885C72.3855 72.5846 71.8883 73.9108 70.8939 74.7672C69.8709 75.6223 68.4341 76.0674 66.5561 76.0674H65.8376V78.0548L61.6364 78.047ZM65.8649 69.0666V72.5807C66.4559 72.6289 67.0466 72.4836 67.5478 72.1668C67.7445 71.9979 67.8976 71.7842 67.9941 71.5435C68.0906 71.3029 68.1277 71.0426 68.1022 70.7846C68.1022 69.6523 67.3565 69.0705 65.8649 69.0705V69.0666ZM61.6364 69.0666C60.1449 69.0666 59.3991 69.6484 59.3991 70.7807C59.3751 71.0357 59.4097 71.2929 59.5004 71.5325C59.5911 71.772 59.7354 71.9877 59.9223 72.1629C60.4368 72.4756 61.0359 72.6203 61.6364 72.5768V69.0627V69.0666Z" fill="white"/>
</svg>
