<svg width="526" height="330" viewBox="0 0 526 330" fill="none" xmlns="http://www.w3.org/2000/svg">
<path fill-rule="evenodd" clip-rule="evenodd" d="M297.763 0.0499758C309.42 1.12178 320.355 5.15072 330.654 12.1695L333.258 13.9439L336.547 13.1738C338.356 12.75 340.571 12.0413 341.469 11.5988C344.118 10.294 350.359 7.93632 353.855 6.92051C363.933 3.99191 374.6 2.89595 384.842 3.7372C393.751 4.46894 401.966 6.41136 410.275 9.75084C415.797 11.9705 423.114 16.2613 427.821 20.0404C430.475 22.1714 435.072 26.7562 437.19 29.3864C438.163 30.5941 439.656 32.632 440.507 33.9152C442.398 36.7653 444.86 41.5633 446.047 44.7123L446.93 47.0543L448.887 47.6485C451.764 48.5216 456.194 50.6943 459.184 52.6985C462.128 54.6719 465.859 57.9272 468.012 60.4015C471.64 64.5715 474.567 69.0824 477.678 75.3027C481.093 82.1302 482.292 85.1933 486.889 98.8273C490.065 108.249 491.196 111.312 492.751 114.711C493.781 116.96 495.929 120.207 496.544 120.443C496.739 120.519 497.196 121.175 497.558 121.901C498.239 123.267 498.589 125.493 498.207 126.033C498.087 126.202 497.188 126.744 496.208 127.237C492.431 129.136 489.992 130.981 489.163 132.566C488.36 134.103 488.832 136.349 490.405 138.471C490.803 139.009 492.686 141.363 494.588 143.703C498.843 148.939 500.907 151.695 502.707 154.545C504.677 157.662 506.042 160.158 507.564 163.421C508.816 166.107 508.88 166.354 508.746 168.02C508.656 169.14 508.335 170.332 507.865 171.296C506.975 173.117 504.287 175.858 501.801 177.48L500.003 178.652L502.075 179.409C505.508 180.662 509.012 182.668 511.024 184.533C512.043 185.478 513.344 186.955 513.914 187.815C516.323 191.448 517.286 196.874 516.377 201.692C515.335 207.212 512.773 212.5 509.581 215.716L507.709 217.603L510.801 220.794C515.713 225.865 518.837 230.189 521.436 235.513C525.723 244.295 526.989 253.742 525.237 263.865C523.984 271.106 521.713 277.464 517.577 285.31C515.659 288.948 513.049 293.278 511.412 295.537C510.693 296.529 509.806 297.207 507.524 298.505C499.001 303.356 489.469 307.167 480.858 309.168C475.255 310.471 468.244 311.449 460.987 311.941C458.725 312.094 442.074 312.915 423.984 313.765L391.092 315.311L387.94 317.42C379.285 323.213 368.341 327.245 356.282 329.086C349.496 330.122 341.021 330.294 335.177 329.516C323.653 327.98 314.656 324.102 308.489 318.013C307.33 316.869 304.49 313.92 302.176 311.46C295.954 304.843 288.293 298.042 281.18 292.821C273.259 287.007 260.749 279.566 258.896 279.566C258.489 279.566 256.744 278.935 255.019 278.164C250.94 276.341 247.457 275.454 243.629 275.263C240.148 275.089 237.514 275.406 234.036 276.416C226.821 278.512 220.235 283.396 212.578 292.328C207.833 297.864 203.851 304.474 197.308 317.672C195.5 321.32 193.91 324.304 193.775 324.304C193.641 324.304 191.728 323.209 189.526 321.869C165.274 307.123 135.922 297.413 99.866 292.211C83.8218 289.896 69.0813 288.562 46.384 287.37L42.9246 287.189L42.7424 284.818C41.7893 272.415 38.6677 259.673 33.6953 247.892C30.5158 240.359 28.0128 235.639 19.4141 220.966C16.5833 216.136 12.9981 209.713 11.447 206.694C5.91821 195.932 2.74719 186.759 0.714783 175.649C0.00897217 171.792 -0.0304565 171.145 0.0114746 164.151C0.122986 145.614 1.74347 128.713 4.77441 114.472C6.45764 106.563 9.40881 97.0232 12.1824 90.5246C14.055 86.1363 17.6813 79.1761 20.0667 75.3906C26.8794 64.5798 36.0728 54.9192 47.0407 47.0469C59.9558 37.7767 78.423 29.4866 97.3287 24.4723C111.258 20.7779 123.424 18.9922 137.006 18.6486C148.653 18.3541 159.965 19.5082 169.459 21.9601L172.036 22.6254L173.571 21.6411C176.242 19.9276 182.095 16.7723 186.069 14.904C191.184 12.4988 195.704 10.7247 201.829 8.71856C212.704 5.15649 223.285 2.84847 234.721 1.54364C241.968 0.716663 247.027 0.438076 254.73 0.44137C262.452 0.444389 267.919 0.719957 273.896 1.40668C277.546 1.82607 278.008 1.82689 279.926 1.41766C284.008 0.546217 287.552 0.141923 292.007 0.0400949C294.494 -0.0169949 297.084 -0.0126033 297.763 0.0499758ZM287.21 2.91324C285.401 3.06859 282.811 3.38808 281.454 3.62357C278.776 4.08825 277.283 4.05229 266.927 3.27445C259.491 2.71618 253.025 2.87592 249.933 3.69494C246.997 4.47251 244.766 5.60525 242.944 7.24246L241.436 8.59724L243.218 8.20914C247.39 7.3001 256.726 7.45654 263.912 8.5558C269.707 9.44261 275.948 11.281 278.757 12.9292C280.386 13.8855 282.333 15.6709 282.861 16.6936C283.282 17.5098 283.482 19.4874 283.174 19.7956C282.973 19.9971 281.409 19.7597 273.094 18.2663C264.248 16.6771 261.541 16.3362 257.762 16.3348C254.313 16.3334 252.019 16.7172 250.371 17.5702C249.949 17.789 249.193 18.4359 248.691 19.0082L247.779 20.0481L248.993 20.2348C263.652 22.4887 271.095 24.3222 277.047 27.1456C281.677 29.3417 285.922 32.6507 288.629 36.1743L289.853 37.7671L288.258 37.5566C287.38 37.4407 284.442 37.3491 281.728 37.3526C276.327 37.36 274.544 37.6661 271.734 39.0689C269.808 40.0306 267.708 42.138 266.604 44.2174C264.629 47.937 264.113 52.2058 265.142 56.3092C265.788 58.8842 267.946 63.3512 269.59 65.5165C272.985 69.9874 278.09 75.081 285.802 81.6899L288.779 84.2417L288.68 98.2588C288.588 111.256 288.617 112.395 289.084 113.911C289.703 115.92 290.643 117.808 292.082 119.933L293.178 121.552L294.773 118.424C295.702 116.601 296.953 114.638 297.77 113.719C299.396 111.893 301.958 110.351 304.594 109.613C305.585 109.335 308.309 108.862 310.645 108.561C316.138 107.854 317.674 107.572 319.56 106.922C321.81 106.147 323.84 104.904 325.636 103.204C326.504 102.382 327.247 101.709 327.286 101.709C327.325 101.709 329.28 102.581 331.631 103.647C336.198 105.718 341.021 107.429 344.359 108.163C345.58 108.432 348.326 108.676 351.12 108.764L355.825 108.913L355.677 109.909C354.717 116.361 353.953 118.708 352.64 119.249C351.695 119.638 350.403 119.286 349.087 118.281L348.115 117.539L348.293 118.338C349.009 121.553 349.079 122.415 348.774 124.267C348.177 127.882 345.922 131.23 342.178 134.054C340.974 134.963 338.931 136.284 337.638 136.989C335.135 138.356 330.691 140.264 330.488 140.06C330.42 139.993 331.719 137.423 333.374 134.349C335.028 131.276 336.34 128.719 336.288 128.668C336.237 128.617 335.478 128.783 334.602 129.038C333.353 129.402 332.355 129.47 329.981 129.352C327.688 129.239 326.123 128.968 323.528 128.238L320.102 127.274L319.083 127.938C318.523 128.303 317.413 129.303 316.616 130.159C311.889 135.24 311.011 136.067 309.622 136.747C308.652 137.223 307.53 137.51 306.303 137.598L304.448 137.731L304.112 136.608C303.791 135.536 303.694 135.46 301.934 134.913C299.698 134.217 296.221 133.876 294.259 134.16C289.762 134.81 286.502 138.873 285.431 145.161C285.272 146.095 285.085 147.122 285.015 147.443C284.903 147.954 285.149 148.118 287.008 148.777C291.493 150.365 296.493 153.224 300.139 156.285C301.582 157.497 301.868 157.927 303.09 160.728C305.386 165.995 308.88 171.318 312.948 175.75C313.743 176.617 314.537 177.746 314.712 178.259C314.887 178.772 315.031 180.331 315.031 181.723C315.031 184.623 314.291 187.938 312.765 191.873C312.239 193.231 311.827 194.367 311.851 194.396C311.874 194.425 312.995 194.587 314.341 194.754C316.024 194.963 317.663 195.409 319.597 196.183L322.407 197.307L320.98 198.299C319.323 199.452 317.5 202.001 316.804 204.139C316.544 204.94 315.598 207.651 314.702 210.162L313.073 214.728L311.421 213.901C310.009 213.194 309.568 213.098 308.388 213.238C307.629 213.328 306.984 213.436 306.955 213.479C306.925 213.521 305.958 214.93 304.806 216.609L302.71 219.663L304.455 220.523C305.415 220.996 306.412 221.706 306.67 222.102C307.839 223.889 307.659 225.731 306.244 226.464C305.096 227.058 301.918 226.984 300.027 226.319C299.169 226.017 298.432 225.77 298.389 225.77C298.346 225.77 298.31 226.603 298.308 227.622C298.305 229.564 297.498 233.712 296.132 238.807C295.562 240.934 295.318 242.485 295.309 244.054C295.294 246.617 295.843 250.07 296.816 253.537C297.634 256.449 299.87 262.856 300.159 263.115C300.459 263.383 308.483 258.827 312.975 255.839C315.086 254.434 317.799 252.484 319.005 251.505C321.841 249.202 325.839 245.04 327.331 242.839C330.111 238.736 331.37 234.742 331.11 230.847C331.03 229.64 330.87 228.404 330.755 228.103C330.636 227.79 330.936 227.997 331.451 228.583C332.159 229.388 332.556 229.612 333.277 229.612C334.538 229.612 335.707 228.527 338.548 224.721C340.118 222.618 340.957 221.705 341.146 221.894C341.299 222.047 341.483 223.094 341.556 224.22C341.659 225.828 341.556 226.699 341.077 228.28C340.741 229.386 340.217 230.781 339.913 231.378L339.359 232.465L340.162 233.166C344.742 237.16 346.273 238.65 347.04 239.859C347.534 240.639 348.194 242.132 348.504 243.176C349.235 245.633 350.985 253.759 350.862 254.128C350.81 254.284 350.497 253.972 350.165 253.436C349.443 252.265 347.479 250.408 346.339 249.818C345.886 249.583 344.829 249.283 343.99 249.151L342.465 248.912L342.28 249.755C342.178 250.218 342.092 253.873 342.089 257.877C342.082 267.781 342.652 271.909 345.465 282.31C346.867 287.491 347.608 291.167 347.827 294.011C347.924 295.275 348.076 296.308 348.165 296.308C348.254 296.308 350.209 294.426 352.51 292.126C355.853 288.784 356.693 288.071 356.693 288.576C356.693 288.924 356.435 291.517 356.119 294.337C355.684 298.224 355.581 300.395 355.696 303.307C355.779 305.421 356.031 307.879 356.255 308.769L356.663 310.388L355.925 310.965C353.712 312.695 351.331 314.91 350.354 316.148C348.513 318.479 347.518 320.779 345.887 326.469L345.463 327.947L348.406 327.755C357.334 327.173 367.649 324.892 375.275 321.812C379.163 320.242 380.85 319.42 383.939 317.589C388.694 314.77 392.647 311.367 395.397 307.726C397.342 305.149 398.72 302.343 399.342 299.689C399.922 297.214 399.732 292.584 398.93 289.652C397.947 286.057 395.983 280.914 392.039 271.606C389.961 266.7 387.986 261.775 387.652 260.662C386.976 258.413 386.978 258.233 387.836 245.943C388.338 238.752 388.397 229.561 387.962 226.319C387.368 221.887 386.313 218.064 384.939 215.367C384.059 213.641 381.264 210.341 379.818 209.323C379.084 208.806 378.433 208.343 378.372 208.295C378.31 208.247 379.446 206.983 380.896 205.487C386.759 199.437 389.319 193.548 388.959 186.943C388.705 182.281 387.357 178.944 383.402 173.186L381.125 169.87L377.201 170.497C372.231 171.292 371.402 171.493 368.143 172.699L365.477 173.685L362.935 172.972C358.044 171.601 355.638 171.719 351.219 173.546C348.291 174.758 346.332 174.96 343.872 174.305C342.859 174.036 341.597 173.597 341.07 173.331C339.623 172.601 338.667 171.433 338.349 170.007C338.014 168.507 338.22 161.416 338.648 159.715C339.131 157.792 341.096 156.394 342.018 157.317C342.373 157.673 342.432 158.029 342.281 158.905C342 160.531 342.089 165.18 342.426 166.431C343.107 168.965 344.95 170.483 346.963 170.168C347.566 170.074 349.478 169.361 351.211 168.584C353.994 167.336 354.572 167.172 356.145 167.187C357.125 167.196 359.407 167.547 361.216 167.966C363.025 168.385 365.43 168.793 366.561 168.871C368.88 169.033 370.143 168.767 375.703 166.95C379.008 165.87 379.257 165.738 379.709 164.837C380.6 163.062 380.941 160.957 380.932 157.289C380.924 154.078 380.85 153.534 380.187 151.847C379.783 150.816 378.864 149.132 378.145 148.105C377.427 147.078 375.255 144.447 373.318 142.258C368.925 137.292 367.207 134.985 365.638 131.943C364.081 128.925 363.133 126.105 362.57 122.816C362.326 121.397 361.953 120.041 361.74 119.803C361.176 119.172 361.265 118.354 361.97 117.699C362.309 117.384 364.143 116.38 366.045 115.468C367.948 114.556 369.895 113.481 370.372 113.079C371.93 111.767 372.4 110.171 371.749 108.406C371.524 107.795 371 107.394 369.488 106.676C368.028 105.983 366.982 105.198 365.437 103.639C363.633 101.818 363.132 101.079 361.696 98.1233C359.872 94.3704 358.922 91.6093 356.414 82.7708C354.272 75.2237 352.66 70.2034 351.214 66.5771C347.716 57.8017 342.948 50.1009 337.195 43.9341C336.236 42.906 334.39 41.1112 333.094 39.9461L330.737 37.8277L332.544 36.6261C333.537 35.9655 334.629 35.0051 334.969 34.4921C335.329 33.95 335.588 33.1392 335.588 32.556C335.588 31.0206 334.333 28.8317 332.16 26.5761C331.077 25.4527 330.326 24.4921 330.491 24.4418C330.656 24.3913 332.518 24.1446 334.629 23.8934C336.739 23.642 338.764 23.3481 339.128 23.2399C339.737 23.0593 339.513 22.8071 336.312 20.0607C327.199 12.2422 319.204 7.73074 309.566 4.96847C302.552 2.95853 294.894 2.25452 287.21 2.91324ZM369.439 6.32683C358.608 7.44666 348.962 10.1592 338.2 15.111L336.014 16.1163L337.24 17.1009C337.914 17.6424 340.254 19.8865 342.44 22.0874L346.415 26.0892L345.044 26.2281L343.674 26.3672L346.004 27.0361C347.285 27.4039 350.122 28.3511 352.308 29.1408C361.93 32.6169 369.904 36.4653 378.058 41.5677L380.922 43.3597L379.566 43.9742C377.455 44.9307 373.984 45.9512 371.748 46.2729C368.339 46.7634 366.01 46.2751 360.53 43.9199C355.721 41.8537 354.046 41.4845 349.567 41.5037C347.532 41.5122 345.573 41.639 345.214 41.785C344.632 42.0219 344.949 42.2217 348.167 43.6459C354.223 46.3259 358.69 49.1008 361.538 51.9525C363.21 53.6273 364.263 55.1852 366.021 58.5886C368.439 63.27 371.868 65.903 379.133 68.6595C380.093 69.0237 380.937 69.3218 381.008 69.3218C381.078 69.3218 381.092 67.9939 381.037 66.3712C380.957 63.9861 380.811 63.1358 380.274 61.9341C379.909 61.1165 378.954 59.5309 378.151 58.4105L376.691 56.3731L379.643 57.9535C390.718 63.8815 399.742 70.3274 404.205 75.4973C408.452 80.418 410.388 84.128 413.52 93.3546C414.644 96.6664 415.957 100.364 416.437 101.572C417.706 104.764 420.319 109.866 422.173 112.77C423.059 114.159 423.748 115.336 423.704 115.385C423.659 115.434 423.149 115.165 422.57 114.787C420.823 113.647 418.856 113.146 416.776 113.311C415.765 113.391 414.291 113.673 413.5 113.937C412.361 114.318 412.064 114.538 412.076 114.994C412.085 115.311 412.19 116.937 412.311 118.607C412.462 120.705 412.674 121.864 412.996 122.357C413.555 123.211 414.988 123.941 416.106 123.941C416.891 123.941 416.923 123.992 417.079 125.503C417.169 126.376 417.466 127.369 417.752 127.752C418.033 128.13 418.847 128.934 419.56 129.539L420.856 130.639L423.242 129.458C424.554 128.809 427.17 127.403 429.054 126.334C434.906 123.015 441.684 119.686 444.404 118.796C445.836 118.327 448.344 117.727 449.977 117.463C452.529 117.05 453.365 117.026 455.937 117.296C459.472 117.666 462.659 118.664 466.558 120.624C469.574 122.139 471.337 122.621 475.732 123.132L478.691 123.475L478.556 124.189C478.481 124.581 478.343 125.952 478.247 127.235C478.152 128.518 477.957 130.025 477.815 130.585C477.464 131.956 476.396 133.164 474.828 133.959C474.114 134.322 473.211 134.998 472.821 135.461C472.432 135.925 471.283 137.919 470.269 139.892C469.254 141.866 467.884 144.082 467.223 144.818C465.627 146.596 463.259 147.74 460.68 147.978C459.523 148.085 458.662 148.051 458.566 147.895C458.477 147.751 459.079 147.048 459.905 146.334C461.902 144.608 462.603 143.231 462.619 141.005C462.634 138.888 462.431 138.695 459.52 138.046C457.806 137.664 456.584 137.613 452.5 137.753C449.781 137.846 447.186 138.024 446.734 138.149C446.066 138.333 445.696 138.786 444.766 140.559C444.135 141.76 443.499 143.426 443.351 144.261C443.037 146.031 443.307 147.853 444.12 149.448C444.427 150.05 444.678 150.597 444.678 150.664C444.678 150.731 443.722 150.24 442.554 149.572C441.385 148.905 439.443 147.977 438.237 147.511C435.431 146.425 431.073 145.44 427.41 145.063C425.827 144.9 424.282 144.717 423.978 144.657C423.673 144.597 419.676 140.639 415.097 135.862C409.314 129.83 406.71 127.29 406.572 127.549C406.463 127.754 406.085 129.403 405.731 131.215C405.196 133.956 405.087 135.382 405.084 139.723C405.08 143.875 405.179 145.302 405.566 146.722C407.22 152.783 409.792 156.442 416.435 162.179C423.241 168.058 425.573 170.633 427.404 174.287C428.014 175.505 428.766 177.49 429.073 178.698C429.381 179.906 429.719 182.35 429.823 184.13L430.014 187.367L433.682 183.496L437.35 179.625L438.122 180.366C439.157 181.36 440.723 184.597 441.231 186.795C442.153 190.788 442.375 197.109 441.771 202.2C441.635 203.346 441.707 203.569 442.509 204.483C443.533 205.651 445.831 206.89 448.191 207.547L449.831 208.004L448.917 209.27C448.414 209.967 447.388 211.14 446.636 211.877C445.649 212.846 444.905 213.31 443.957 213.552L442.644 213.885L442.318 215.642C441.875 218.033 440.775 221.089 439.602 223.189C439.066 224.149 437.727 226.264 436.627 227.891C435.527 229.517 434.123 231.712 433.507 232.769C431.526 236.168 430.296 240.496 429.748 245.998L429.578 247.699L430.749 248.015C435.262 249.232 440.103 249.638 443.956 249.122C450.401 248.258 456.283 245.204 461.41 240.059C464.475 236.982 466.731 233.995 470.063 228.599L470.435 227.997L473.242 229.226C478.176 231.387 483.218 234.284 486.751 236.989C488.984 238.697 491.864 241.65 493.152 243.551C494.739 245.895 495.904 248.361 496.533 250.707C497.33 253.68 497.327 259.175 496.526 262.977C495.803 266.409 494.078 271.853 492.447 275.845C491.452 278.282 485.95 290.717 481.097 301.498C480.662 302.465 480.338 303.29 480.378 303.33C480.419 303.37 484.213 302.255 488.809 300.852C493.406 299.448 499.923 297.459 503.292 296.432L509.418 294.563L511.21 291.799C517.457 282.164 521.443 272.976 523.244 264.061C524.085 259.895 524.392 253.105 523.911 249.279C522.643 239.195 517.507 229.971 509.053 222.596C507.68 221.398 505.512 219.647 504.235 218.704L501.914 216.992L502.693 216.71C505.936 215.537 508.844 213.691 510.577 211.707C512.014 210.062 513.236 207.681 513.926 205.184C514.307 203.805 514.415 202.435 514.402 199.146C514.389 195.678 514.276 194.486 513.792 192.696C512.909 189.432 511.732 187.249 509.812 185.317C508.037 183.531 505.98 182.36 503.713 181.842C502.583 181.584 497.581 181.427 496.849 181.626C496.723 181.661 496.126 181.217 495.523 180.64C494.92 180.063 493.748 179.267 492.919 178.87C491.553 178.217 491.114 178.15 488.259 178.164C484.893 178.18 482.83 178.601 478.059 180.247C475.696 181.062 475.644 181.067 472.989 180.752C471.513 180.578 469.506 180.167 468.529 179.841C467.16 179.383 466.612 179.036 466.141 178.329C465.297 177.062 464.417 174.624 464.094 172.66C463.643 169.905 464.32 166.451 465.661 164.667C466.419 163.659 467.209 163.382 467.895 163.883C468.425 164.271 468.441 164.642 468.219 171.03C468.117 173.951 468.141 174.11 468.848 175.182C470.217 177.258 472.488 178.116 474.962 177.493C475.648 177.319 477.903 176.451 479.973 175.563C485.874 173.032 485.843 173.038 492.361 173.243C498.3 173.431 500.318 173.226 502.238 172.241C503.437 171.626 504.572 170.441 504.991 169.366C505.493 168.075 505.358 165.187 504.696 163.053C503.906 160.509 502.3 157.188 500.717 154.819C500.01 153.762 497.504 150.493 495.148 147.554C489.196 140.131 488.594 139.248 487.676 136.592C487.077 134.861 487.043 134.148 487.489 132.66C487.982 131.011 489.807 129.187 492.447 127.704C493.734 126.981 494.86 126.199 494.949 125.966C495.217 125.267 495.132 123.397 494.804 122.757C494.635 122.427 494.209 121.848 493.857 121.469C492.916 120.457 489.663 113.916 488.017 109.727C487.229 107.721 485.224 102.04 483.563 97.1014C479.692 85.5943 477.988 81.1506 475.464 75.9892C472.209 69.3319 468.084 63.5637 463.865 59.7708C460.526 56.7697 455.77 53.7999 451.667 52.1548C450.612 51.7315 448.643 51.0525 447.292 50.6455L444.835 49.9052L444.24 47.7427C443.429 44.7982 442.529 42.4951 440.98 39.4087C436.911 31.2986 429.629 23.51 420.832 17.857C411.051 11.5725 398.709 7.40055 386.433 6.22884C382.436 5.84733 373.582 5.89838 369.439 6.32683ZM293.815 15.2487C296.776 15.8427 299.568 16.9057 301.487 18.1697C303.251 19.3312 305.629 21.8185 306.944 23.877C307.503 24.7523 308.393 26.381 308.922 27.4961C309.969 29.7023 310.026 29.7333 312.358 29.3474L313.386 29.1773V27.5768C313.386 25.3122 312.513 23.1661 310.915 21.5067C309.781 20.3278 309.698 20.1697 310.294 20.3193C310.672 20.4143 312.342 21.1068 314.005 21.858C315.667 22.6092 317.1 23.151 317.19 23.0618C317.279 22.9726 317.352 22.1791 317.352 21.2983C317.352 19.9776 317.169 19.3471 316.312 17.7041C315.381 15.9187 315.339 15.7549 315.906 16.1262C316.966 16.8209 318.547 19.119 319.458 21.2895C320.581 23.9637 321.49 27.6056 321.888 31.0187C322.212 33.7892 322.061 36.5163 321.549 37.1402C321.334 37.4026 319.026 37.4833 311.721 37.4833H302.173L302.041 36.5912C301.968 36.1008 301.768 34.4183 301.597 32.8527C301.426 31.2868 301.047 29.0636 300.754 27.9122C300.033 25.0816 298.555 22.046 297.019 20.2466C296.321 19.4284 294.6 17.893 293.193 16.8344C291.787 15.776 290.636 14.8631 290.636 14.806C290.636 14.6424 291.149 14.7138 293.815 15.2487ZM384.179 20.2021C390.216 20.7071 396.88 22.0435 401.697 23.715C406.305 25.3135 409.763 27.0175 413.94 29.7468C417.354 31.9777 419.808 34.0475 423.161 37.5242C426.071 40.5406 429.536 44.7773 429.293 45.021C429.228 45.0861 427.205 44.4529 424.798 43.6144C417.262 40.9891 414.375 40.2142 411.512 40.0485C408.276 39.8613 405.69 40.3688 402.685 41.7809L400.525 42.7956L398.961 41.2685C394.543 36.956 387.653 32.7588 379.991 29.7136C375.743 28.0248 370.512 26.4331 360.531 23.7913C355.933 22.5743 351.801 21.4625 351.348 21.3206C350.569 21.0757 350.562 21.0606 351.211 21.0329C351.588 21.0167 354.548 20.8158 357.79 20.5866C364.919 20.0824 380.105 19.8612 384.179 20.2021ZM125.905 21.6873C118.251 22.5197 112.947 23.3763 106.033 24.8966C94.8893 27.3468 84.5696 30.6374 73.827 35.1662C69.1429 37.1407 61.0475 41.2457 56.696 43.8526C52.0652 46.627 49.9637 48.044 48.3638 49.4705L47.1583 50.5456L48.3638 50.6049C49.0271 50.6375 51.9747 50.8516 54.9144 51.0808C74.2688 52.5901 87.0611 55.1512 97.6732 59.6412C99.6733 60.4874 100.914 61.2076 101.742 62.0025C103.423 63.618 108.565 69.4203 110.052 71.3803C113.85 76.3855 116.784 82.0717 119.117 88.9494C119.937 91.3666 120.754 93.6167 120.932 93.9499C121.422 94.8683 123.367 95.8789 125.787 96.4737C126.983 96.7674 130.798 97.2664 134.265 97.5826C141.008 98.1971 143.564 98.6255 145.428 99.4533C146.984 100.144 149.263 102.269 151.762 105.359C154.69 108.978 156.691 112.072 158.563 115.872C159.749 118.282 160.242 119.62 160.358 120.744C160.446 121.597 160.598 122.294 160.697 122.294C160.796 122.294 161.981 121.398 163.331 120.302C166.979 117.341 168.386 116.364 170.332 115.443C172.289 114.515 173.449 114.398 174.359 115.037C174.694 115.272 174.968 115.335 174.968 115.177C174.968 115.019 174.598 113.733 174.146 112.32C173.694 110.906 173.324 109.648 173.324 109.524C173.324 109.4 173.601 109.544 173.94 109.845C174.983 110.768 175.926 111.261 177.465 111.687C179.491 112.248 180.578 112.364 186.891 112.692C196.966 113.216 202.952 114.338 209.877 117C214.615 118.822 221.059 122.234 221.746 123.285C222.322 124.165 222.021 125.258 221.106 125.606C220.571 125.81 219.864 125.743 218.32 125.342L216.252 124.804L215.483 125.452C215.061 125.808 214.467 126.178 214.165 126.274C213.316 126.544 213.302 128.734 214.144 129.45C214.423 129.687 215.528 130.038 216.6 130.23C217.672 130.421 218.549 130.704 218.549 130.858C218.549 131.012 218.149 131.896 217.66 132.823C216.364 135.279 214.649 136.866 211.682 138.358C210.283 139.062 208.777 139.904 208.336 140.23C207.895 140.555 207.099 141.414 206.568 142.138C206.036 142.862 205.56 143.413 205.509 143.362C205.458 143.311 205.088 141.978 204.686 140.399C203.892 137.28 202.945 134.996 202.144 134.27C201.667 133.838 201.276 133.846 195.908 134.392C192.758 134.712 188.352 134.993 186.118 135.016L182.056 135.057L182.212 135.881C182.516 137.478 184.256 140.548 185.65 141.947C186.417 142.717 187.714 143.676 188.532 144.077C191.123 145.347 193.136 145.745 196.964 145.741L200.459 145.737L200.438 146.71C200.385 149.159 199.124 150.599 196.698 150.98C194.855 151.27 186.911 151.156 186.802 150.839C186.753 150.695 186.203 149.889 185.579 149.046C183.65 146.438 180.383 144.637 176.064 143.799C172.558 143.12 172.709 143.174 172.91 142.662C173.011 142.405 173.159 141.329 173.239 140.272C173.367 138.582 173.313 138.26 172.786 137.596C172.206 136.865 172.103 136.841 169.509 136.841C167.214 136.841 166.762 136.766 166.353 136.314C165.388 135.246 165.537 132.465 166.685 130.117C166.906 129.664 167.509 128.772 168.025 128.134C169.048 126.869 170.577 126.213 171.791 126.518C172.181 126.616 173.395 127.603 174.488 128.711C175.581 129.82 177.079 131.247 177.817 131.882C178.902 132.817 179.295 133.005 179.873 132.864C180.266 132.769 182.611 131.886 185.085 130.902C187.559 129.918 190.489 128.939 191.596 128.727C192.704 128.515 195.583 128.191 197.994 128.008C201.348 127.752 202.378 127.586 202.378 127.3C202.378 126.435 200.787 123.778 199.462 122.429C197.897 120.837 195.493 119.524 192.954 118.875C190.64 118.284 186.455 117.921 181.404 117.875L177.012 117.834L174.444 119.126C168.452 122.14 163.838 125.678 162.696 128.135C162.4 128.772 161.83 131.208 161.428 133.548C161.027 135.888 160.627 138.159 160.539 138.595L160.38 139.389L157.964 139.232C155.348 139.062 152.899 138.257 151.452 137.089C150.227 136.102 149.252 134.459 148.618 132.313C148.305 131.256 147.914 130.225 147.748 130.021C147.375 129.564 145.868 129.767 144.892 130.407L144.202 130.86L144.388 134.194C144.854 142.601 146.029 148.021 148.156 151.589C149.16 153.272 151.367 155.251 154.959 157.688C157.976 159.735 161.661 161.838 168.933 165.663C179.071 170.994 183.153 173.651 187.253 177.583C189.968 180.188 191.678 182.401 192.99 185.011C194.985 188.976 195.798 192.455 195.82 197.118C195.829 198.868 195.77 200.365 195.689 200.446C195.479 200.656 194.185 199.759 193.258 198.762C192.822 198.294 191.219 196.12 189.695 193.931C185.285 187.599 182.948 185.676 179.644 185.66C178.779 185.656 177.606 185.848 177.037 186.085L176.004 186.518L177.916 188.646C180.429 191.445 182.369 194.038 183.609 196.259C184.467 197.795 184.675 198.519 185.014 201.143C185.533 205.169 186.493 209.047 188.184 213.95C189.92 218.982 191.803 223.418 194.424 228.652L196.486 232.769L199.638 233.884C202.999 235.075 205.15 236.237 208.039 238.427C209.028 239.177 210.841 240.363 212.069 241.064C213.297 241.764 221.146 245.814 229.513 250.063C237.88 254.313 246.822 258.943 249.385 260.353C253.424 262.574 260.215 266.511 262.036 267.686C262.582 268.038 262.804 267.931 265.051 266.22C266.384 265.205 269.343 262.838 271.627 260.96L275.778 257.545L276.149 255.312C276.379 253.931 276.52 250.882 276.52 247.315C276.52 242.655 276.423 241.131 276.009 239.356C275.727 238.148 275.203 236.578 274.845 235.868C273.984 234.16 271.324 231.344 268.71 229.372C267.55 228.497 264.64 226.565 262.242 225.079C259.844 223.592 257.588 222.121 257.229 221.809C256.416 221.101 255.105 218.396 254.853 216.907C254.668 215.808 254.693 215.762 256.257 214.372C257.845 212.962 257.851 212.951 257.963 211.194C258.102 208.997 257.648 207.24 256.692 206.283C253.464 203.051 241.47 203.229 228.199 206.706C224.243 207.742 218.892 209.606 215.74 211.047C213.17 212.221 209.726 214.306 208.021 215.72L206.675 216.837L206.872 212.863C207.297 204.258 208.978 199.452 213.047 195.208C215.181 192.983 218.925 190.401 220.356 190.168C221.154 190.039 221.452 190.112 221.742 190.51C222.182 191.112 222.213 193.314 221.819 195.99C221.488 198.242 221.383 202.35 221.65 202.617C221.931 202.899 223.632 202.327 229.924 199.833C236.319 197.299 240.525 195.888 244.36 194.991C246.347 194.526 247.837 194.387 251.03 194.368C255.398 194.341 256.808 194.582 259.175 195.758C259.886 196.112 260.517 196.401 260.576 196.401C260.636 196.401 261.164 195.455 261.75 194.298C262.768 192.289 262.816 192.076 262.816 189.563C262.816 187.171 262.743 186.801 262.019 185.491C260.917 183.501 258.406 181.183 256.26 180.178C255.282 179.72 253.458 179.149 252.207 178.91C250.956 178.672 249.837 178.393 249.72 178.291C249.306 177.932 250.723 176.579 254.965 173.284C260.762 168.783 261.845 167.852 262.294 166.981C262.921 165.767 262.756 164.298 261.761 162.222C261.257 161.17 260.062 159.32 259.106 158.113C255.622 153.712 250.17 148.703 239.594 140.189C233.861 135.573 233.342 135.083 233.056 134.021C232.449 131.763 233.244 129.31 235.177 127.47C237.504 125.256 239.953 124.618 245.175 124.863C247.189 124.958 249.284 125.11 249.83 125.201L250.822 125.365L250.449 123.214C249.905 120.083 249.17 118.826 247.046 117.394L245.274 116.199L244.95 114.126C244.509 111.297 243.267 108.96 240.821 106.357C239.724 105.189 237.286 102.968 235.403 101.421C231.573 98.2748 231.926 98.9069 230.882 93.3379C230.543 91.5264 229.851 88.4114 229.345 86.4155C224.799 68.486 216.685 54.1049 204.997 43.2614C203.66 42.0214 201.732 40.3394 200.711 39.5242C197.278 36.7809 192.225 33.5789 187.762 31.3184C181.387 28.0895 176.085 26.1158 168.914 24.3021C164.634 23.2199 157.002 21.9647 152.355 21.5794C150.395 21.4166 148.299 21.2355 147.696 21.1765C147.093 21.1177 142.837 21.1111 138.239 21.1622C133.152 21.2185 128.323 21.424 125.905 21.6873ZM311.404 115.612C310.178 116.051 308.523 116.352 306.47 116.51C304.772 116.641 303.066 116.873 302.68 117.025C302.294 117.177 301.227 118.147 300.309 119.18C299.391 120.214 297.889 121.677 296.97 122.432C296.051 123.186 295.299 123.906 295.298 124.031C295.297 124.155 295.849 124.977 296.524 125.856C297.737 127.434 297.8 127.473 301.678 128.991C303.838 129.837 305.694 130.529 305.803 130.529C305.912 130.529 306.614 130.044 307.361 129.453C309.329 127.895 311.057 126.968 316.003 124.816L320.401 122.903L322.444 123.255C327.47 124.119 330.647 124.003 333.744 122.843L335.23 122.286L335.72 119.949C335.989 118.663 336.141 117.542 336.057 117.458C335.973 117.374 335.013 117.443 333.924 117.613C332.835 117.782 330.636 117.992 329.038 118.08C325.369 118.281 323.058 117.851 317.909 116.009C315.798 115.255 313.886 114.708 313.66 114.795C313.434 114.882 312.419 115.25 311.404 115.612ZM448.223 123.286C447.404 123.529 445.907 124.146 444.895 124.656C443.029 125.597 438.189 128.769 437.086 129.774C436.755 130.076 436.401 130.699 436.3 131.159C436.128 131.944 434.394 133.871 431.703 136.269C430.244 137.568 430.002 138.32 430.686 139.427C430.985 139.912 431.48 140.536 431.787 140.814C432.27 141.251 432.486 141.277 433.385 141.008C434.793 140.585 439.552 138.236 442.337 136.589C443.588 135.849 445.478 134.863 446.535 134.398C449.854 132.939 451.693 132.624 457.012 132.603L461.809 132.584L462.426 131.361C463.155 129.914 463.206 128.474 462.618 125.886L462.193 124.016L459.808 123.973C458.496 123.948 456.252 123.697 454.819 123.414C451.516 122.76 450.083 122.733 448.223 123.286ZM237.008 128.819C236.079 129.564 234.995 131.358 234.998 132.145C234.999 132.539 235.298 133.503 235.663 134.287C236.18 135.398 236.584 135.844 237.5 136.312L238.674 136.912L239.443 135.989C240.71 134.47 241.078 132.392 240.377 130.713C239.99 129.784 238.483 128.328 237.92 128.339C237.744 128.342 237.333 128.558 237.008 128.819ZM63.1372 131.864C60.5818 132.683 58.0755 134.24 56.0099 136.292C52.7561 139.525 50.3984 144.104 48.8719 150.157C47.7117 154.757 47.3894 157.564 47.3905 163.053C47.3916 168.355 47.7185 170.604 49.0847 174.707C49.9357 177.264 52.0731 181.603 53.5946 183.863C56.9709 188.879 61.4587 193.285 66.2981 196.336C68.4698 197.705 71.7838 199.15 75.0604 200.157C79.0424 201.38 82.0547 202.912 84.2738 204.842C85.271 205.71 87.3555 207.816 88.906 209.523C90.4566 211.23 92.4493 213.184 93.3346 213.866C94.2199 214.548 95.8582 215.529 96.9754 216.046C100.17 217.524 102.962 218.098 107.837 218.277C111.451 218.41 112.328 218.36 113.542 217.957C115.522 217.298 116.961 215.86 117.515 213.986C118.098 212.015 118.072 210.116 117.426 207.59C116.647 204.537 115.403 201.813 113.439 198.86C111.541 196.004 109.901 194.324 108.047 193.333C106.983 192.764 106.489 192.696 103.429 192.696C100.761 192.697 99.4138 192.84 97.3386 193.346C95.56 193.779 94.3471 193.934 93.6915 193.811C92.9884 193.679 92.139 193.084 90.7052 191.72C89.5609 190.631 88.4601 189.814 88.1386 189.814C87.8288 189.814 86.4863 190.204 85.1553 190.681C83.465 191.285 82.0616 191.585 80.5017 191.674C78.5395 191.786 78.0905 191.718 76.8015 191.118C75.2355 190.388 69.8515 186.293 70.1135 186.03C70.1996 185.944 71.9031 185.615 73.8988 185.3L77.5273 184.726L77.4428 183.359C77.3187 181.341 76.6743 179.608 75.5677 178.313C74.5911 177.17 72.9512 176.211 69.8962 174.996C68.6441 174.498 68.0057 174.011 66.9666 172.761C66.2359 171.882 65.2604 170.37 64.7988 169.401C63.7948 167.295 63.7101 165.552 64.5236 163.756C64.8613 163.011 66.2523 161.343 68.1019 159.466C71.3464 156.173 72.038 154.994 71.6079 153.492C71.0219 151.446 68.7737 149.317 66.8729 149.008C65.5912 148.799 63.8554 149.457 62.5808 150.633C61.0763 152.021 59.4411 154.334 58.0618 157.024C57.3684 158.378 56.8684 159.176 56.9515 158.799C57.0342 158.422 57.3431 156.976 57.6378 155.588C57.9322 154.199 58.5193 152.354 58.9422 151.487C59.8196 149.69 61.8597 147.337 63.5509 146.172C64.1848 145.735 65.2914 145.229 66.01 145.048C69.6379 144.133 75.184 146.737 81.9128 152.513C85.547 155.633 90.9322 161.224 91.6673 162.642C92.1464 163.565 92.3106 164.338 92.3182 165.704C92.3273 167.344 92.199 167.786 91.064 170.018L89.7993 172.505L92.7159 174.899C95.4555 177.147 95.6633 177.389 96.1358 178.884C97.3871 182.839 99.2093 185.381 100.514 184.99C101.414 184.72 103.162 182.94 103.73 181.717C104.01 181.113 104.242 180.187 104.245 179.659C104.249 179.13 103.896 177.957 103.462 177.051C102.662 175.382 100.31 172.501 98.4163 170.871L97.3781 169.977L98.1422 169.502C98.5627 169.241 99.1758 168.733 99.505 168.373C100.354 167.444 101.171 165.398 101.541 163.269C101.916 161.111 101.719 157.428 101.105 155.122C100.42 152.55 99.1249 149.536 97.7382 147.29C96.0394 144.537 91.3674 139.851 88.3258 137.848C83.9191 134.946 78.6552 132.678 73.827 131.601C70.7248 130.909 65.7359 131.032 63.1372 131.864ZM268.541 148.573C268.435 149.139 268.478 150.837 268.637 152.347C268.864 154.514 269.131 155.543 269.899 157.224C271.276 160.236 273.486 163.874 276.356 167.856C279.339 171.994 280.774 174.456 282.157 177.814C282.73 179.206 283.276 180.32 283.371 180.289C283.465 180.258 284.097 179.517 284.775 178.642C285.454 177.767 286.116 177.051 286.247 177.051C286.379 177.051 287.438 178.348 288.601 179.933C293.223 186.231 298.029 191.462 301.659 194.147C302.518 194.783 303.283 195.303 303.358 195.303C303.745 195.303 299.507 186.183 297.556 182.815C294.212 177.047 291.138 173.521 284.889 168.293C282.708 166.468 280.333 164.239 279.611 163.339C277.372 160.549 275.575 156.583 274.041 151.045C273.8 150.177 273.452 149.467 273.268 149.467C273.083 149.467 272.259 149.038 271.437 148.513C270.615 147.989 269.67 147.557 269.338 147.553C268.855 147.547 268.695 147.752 268.541 148.573ZM222.623 164.18C222.562 164.315 222.085 165.265 221.563 166.29L220.613 168.155L221.431 169.721L222.25 171.287L223.68 171.37C224.466 171.415 227.858 171.018 231.217 170.487C237.923 169.428 242.556 168.961 246.433 168.957C248.842 168.954 248.971 168.984 249.121 169.583C249.354 170.514 248.914 171.391 247.374 173.058C245.815 174.746 244.936 176.731 244.712 179.067C244.63 179.921 244.499 181.144 244.422 181.786L244.28 182.952H243.064C241.92 182.952 241.847 182.907 241.846 182.197C241.844 180.371 239.874 178.694 236.785 177.888C235.886 177.654 233.749 177.325 232.037 177.157C229.747 176.933 227.79 176.935 224.628 177.163C222.265 177.333 220.067 177.543 219.745 177.629C219.219 177.769 219.077 177.548 218.378 175.497C217.697 173.499 217.597 172.802 217.594 170.004C217.59 167.193 217.659 166.707 218.155 166.041C219.063 164.823 220.041 164.238 221.432 164.081C222.155 164 222.684 164.044 222.623 164.18ZM402.859 174.008C403.441 176.011 405.359 178.832 409.289 183.463C411.128 185.631 413.25 188.32 414.004 189.439C415.894 192.244 417.35 195.263 418.222 198.185C419.365 202.018 419.253 201.926 420.106 199.748C420.523 198.684 421.047 197.662 421.27 197.476C421.604 197.199 421.85 197.305 422.653 198.074C424.188 199.544 426.243 202.771 428.129 206.673C429.862 210.259 429.863 210.261 429.87 208.994C429.886 205.908 427.973 197.616 425.588 190.433C424.748 187.904 423.71 185.093 423.281 184.187C422.853 183.282 421.699 181.556 420.718 180.353L418.933 178.166L416.979 177.836C413.761 177.293 408.66 174.523 404.249 170.923L402.604 169.581L402.521 171.07C402.476 171.888 402.628 173.211 402.859 174.008ZM343.526 174.889C343.532 175.059 343.369 175.677 343.165 176.262C342.769 177.393 342.311 180.396 342.018 183.776C341.747 186.896 341.182 189.58 340.481 191.075C339.881 192.354 337.794 194.754 337.281 194.754C337.149 194.754 336.816 194.253 336.54 193.64C336.264 193.027 335.821 192.409 335.557 192.268C334.668 191.791 333.494 191.997 332.343 192.833C331.224 193.644 330.621 194.468 328.06 198.682C327.344 199.861 326.7 200.767 326.629 200.696C326.418 200.485 327.888 192.024 328.496 189.951C328.806 188.895 329.433 187.324 329.89 186.462C330.682 184.966 330.74 184.917 331.167 185.406C331.412 185.687 332.045 185.988 332.573 186.074C333.514 186.228 333.556 186.193 334.766 184.271C335.472 183.149 337.606 180.658 339.757 178.446C341.824 176.32 343.519 174.72 343.526 174.889ZM475.843 183.49C477.534 184.522 478.044 186.713 477.048 188.659C476.429 189.866 475.87 190.398 473.321 192.2C464.624 198.349 460.83 200.796 457.054 202.688C453.494 204.473 453.427 204.443 455.34 201.927C459.217 196.828 464.107 191.462 468.339 187.664C472.15 184.243 473.831 182.952 474.469 182.953C474.742 182.954 475.36 183.195 475.843 183.49ZM232.316 183.154C233.562 183.253 233.622 183.297 233.9 184.328C234.058 184.918 234.595 185.934 235.092 186.586C236.213 188.057 236.64 189.247 236.64 190.907V192.192L232.755 193.679C230.618 194.497 228.758 195.211 228.621 195.265C228.484 195.32 228.566 194.988 228.803 194.528C229.041 194.068 229.914 193.104 230.745 192.387C231.575 191.669 232.254 190.908 232.254 190.695C232.254 190.482 231.853 189.909 231.363 189.421C230.685 188.745 229.917 188.385 228.143 187.911C226.861 187.569 225.597 187.097 225.333 186.862C225.069 186.627 224.853 186.076 224.853 185.636C224.853 183.268 226.565 182.699 232.316 183.154ZM378.039 187.123C378.227 188.075 378.448 190.459 378.529 192.421C378.65 195.343 378.578 196.47 378.129 198.637C377.827 200.093 377.194 202.094 376.723 203.083C376.251 204.072 375.234 205.573 374.463 206.419L373.06 207.956L372.29 207.218C371.867 206.812 371.441 206.114 371.343 205.668L371.165 204.856L370.302 205.676C369.251 206.674 368.278 207.172 366.232 207.761C365.373 208.008 364.595 208.333 364.503 208.482C364.411 208.631 363.295 208.752 362.022 208.752C360.043 208.752 359.626 208.67 359.137 208.181C358.823 207.866 358.546 207.65 358.521 207.7C357.422 209.901 356.928 210.617 355.716 211.764C354.915 212.523 354.153 213.144 354.023 213.144C353.893 213.144 353.558 212.509 353.28 211.733L352.773 210.322L352.008 212.01C351.015 214.201 349.164 215.981 346.301 217.497L344.043 218.694L344.586 217.627C344.885 217.041 345.698 215.804 346.392 214.879C347.087 213.954 347.946 212.536 348.3 211.729C348.947 210.259 349.919 206.447 350.263 204.036C350.363 203.329 350.617 202.686 350.825 202.605C351.857 202.209 354.01 202.17 355.791 202.516L357.767 202.9L358.046 202.097C358.537 200.689 360.235 198.657 362.075 197.277C363.81 195.976 367.496 193.657 367.829 193.657C367.92 193.657 367.805 193.946 367.573 194.301C366.933 195.278 365.697 198.335 365.807 198.666C365.86 198.827 366.144 198.581 366.438 198.12C367.077 197.117 371.964 192.743 372.116 193.038C372.174 193.152 372.448 194.017 372.724 194.96C373 195.904 373.299 196.672 373.388 196.666C373.477 196.661 374.027 195.21 374.611 193.441C375.194 191.673 376.127 189.138 376.684 187.809L377.696 185.393L378.039 187.123ZM502.129 203.126C502.054 203.579 501.777 206.728 501.514 210.125L501.035 216.3L499.861 217.557C497.396 220.197 494.624 221.104 489.02 221.104H485.238L480.513 222.863C476.195 224.472 472.537 225.488 472.218 225.168C472.148 225.098 472.835 223.383 473.744 221.357C474.654 219.331 475.562 217.302 475.762 216.849C476.106 216.071 476.295 215.992 479.198 215.401C484.605 214.3 489.898 212.38 493.604 210.174C495.918 208.797 498.742 206.503 499.965 205.006C500.537 204.306 501.288 203.412 501.635 203.018L502.266 202.302L502.129 203.126ZM236.64 213.047C238.413 213.618 243.088 213.804 247.041 213.458C248.917 213.295 250.493 213.201 250.542 213.251C250.592 213.3 250.444 214.063 250.214 214.947C249.606 217.283 249.691 219.66 250.481 222.476C250.858 223.818 251.167 225.03 251.167 225.169C251.167 225.308 250.081 225.139 248.755 224.795C245.632 223.982 242.641 223.574 239.815 223.574H237.548L236.842 221.721C235.881 219.203 235.831 219.004 235.289 215.588C234.967 213.564 234.909 212.604 235.11 212.622C235.273 212.637 235.961 212.828 236.64 213.047ZM68.2365 237.778C68.333 238.193 69.0755 240.57 69.8863 243.061C71.8091 248.968 74.8351 255.062 78.4726 260.353C85.465 270.523 86.9134 272.8 88.6325 276.322C90.527 280.204 91.733 283.365 92.757 287.129C93.083 288.328 93.3724 289.336 93.3998 289.368C93.4272 289.4 99.303 290.419 106.457 291.634C113.611 292.848 119.758 293.909 120.118 293.991C120.747 294.136 120.765 294.098 120.59 293C120.318 291.296 119.445 288.985 118.439 287.302C117.467 285.676 115.701 283.61 110.808 278.374C109.063 276.507 107.071 274.127 106.381 273.086C104.633 270.449 102.163 265.672 101.786 264.195C101.531 263.2 100.98 262.462 98.9547 260.399C94.7862 256.154 89.0658 251.282 83.4203 247.168C80.6347 245.138 68.5345 237.041 68.2713 237.031C68.1554 237.026 68.1398 237.362 68.2365 237.778Z" fill="#DFDFDF"/>
</svg>
