<svg width="868" height="1041" viewBox="0 0 868 1041" fill="none" xmlns="http://www.w3.org/2000/svg">
    <path d="M79.0985 116.248C80.3945 111.84 100.669 71.9736 100.814 66.5579L125.529 1.42628L501.326 -9.54828L888.33 -22L890 521.013L894 1041L856.175 1040.5C847.849 1040.07 845.609 1039.6 841.494 1037.38C835.545 1034.17 830.408 1029.51 831.273 1028.11C831.632 1027.53 831.475 1027.34 830.917 1027.69C830.368 1028.03 829.217 1027.23 828.359 1025.93C827.502 1024.62 827.092 1023.55 827.448 1023.55C827.804 1023.55 827.333 1022.71 826.4 1021.68C825.465 1020.64 824.964 1019.12 825.285 1018.29C825.606 1017.45 825.481 1017.01 825.008 1017.3C824.535 1017.59 823.853 1016.08 823.49 1013.93C822.705 1009.29 817.283 1003.87 813.628 1003.08C812.206 1002.77 809.967 1002.31 808.654 1002.05C805.171 1001.35 784.42 1001.43 782.551 1002.15C781.638 1002.5 780.959 1002.29 780.959 1001.67C780.959 1000.95 780.393 1000.86 779.288 1001.42C778.368 1001.88 775.253 1002.34 772.364 1002.45C766.336 1002.68 757.947 1003.6 737.029 1006.31C720.38 1008.48 710.94 1010.14 658.718 1020.15C622.59 1027.07 618.154 1027.65 600.462 1027.75C589.534 1027.81 581.931 1027.4 578.497 1026.58C571.756 1024.95 562.941 1021.57 562.037 1020.27C561.651 1019.71 561.329 1019.6 561.321 1020.02C561.298 1021.24 553.449 1015.43 550.417 1011.94C545.887 1006.74 541.116 998.774 541.833 997.613C542.243 996.952 542.074 996.796 541.399 997.214C540.423 997.817 540.115 997.229 540.377 995.265C540.422 994.93 540.063 994.392 539.579 994.072C539.095 993.75 537.467 991.341 535.961 988.716C534.456 986.092 532.979 983.73 532.677 983.468C532.376 983.205 530.644 981.085 528.828 978.755C525.283 974.208 515.466 964.181 515.466 965.108C515.466 965.416 514.499 964.82 513.317 963.784C509.635 960.554 501.911 957.057 494.59 955.308C488.623 953.881 484.735 953.71 468.805 954.177C426.676 955.41 392.29 958.799 345.952 966.285C335.972 967.897 325.013 969.632 321.599 970.139C313.037 971.41 295.743 974.51 281.488 977.328C245.628 984.42 235.328 986.329 234.952 985.953C234.724 985.725 233.082 986.146 231.303 986.889C229.524 987.631 227.691 988.239 227.228 988.239C217 959.5 174.622 697.919 158.973 641.15L162.692 637.838C177.825 624.357 202.177 597.302 198.508 575.123C197.098 566.585 197.17 563.306 198.842 560.076C200.931 556.037 203.703 555.81 210.743 559.099C214.116 560.675 217.186 561.63 217.564 561.222C217.942 560.813 219.867 557.366 221.843 553.561C223.818 549.755 225.824 546.642 226.3 546.642C226.776 546.642 226.921 546.247 226.623 545.765C226.324 545.282 226.708 544.26 227.476 543.493C228.244 542.725 228.57 541.763 228.201 541.355C227.832 540.947 228.343 540.905 229.336 541.263C230.753 541.774 230.919 541.644 230.102 540.661C229.317 539.716 230.057 537.831 233.12 532.974C235.351 529.435 237.5 526.862 237.896 527.257C238.29 527.652 238.353 527.296 238.035 526.468C237.702 525.6 238.409 523.787 239.698 522.202C240.931 520.686 243.395 516.997 245.173 514.006C246.951 511.016 248.753 508.783 249.178 509.046C249.603 509.308 249.695 508.857 249.383 508.042C249.069 507.227 249.289 506.561 249.871 506.561C250.452 506.561 250.94 506.025 250.955 505.368C250.997 503.487 256.29 496.977 257.148 497.752C257.572 498.135 257.62 497.928 257.253 497.291C256.871 496.625 258.729 493.171 261.617 489.179C268.731 479.347 272.634 474.236 274.309 472.563C275.107 471.767 275.76 470.824 275.763 470.468C275.765 470.111 276.952 468.532 278.399 466.957C279.847 465.382 283.331 461.142 286.143 457.535C293.654 447.898 295.045 446.441 296.105 447.097C296.647 447.432 296.767 447.21 296.382 446.587C296.007 445.981 296.156 445.485 296.712 445.485C297.268 445.485 297.741 444.949 297.763 444.292C297.821 442.511 305.149 434.742 306.172 435.375C306.66 435.676 306.998 435.352 306.927 434.657C306.855 433.962 310.879 428.979 315.869 423.585C320.859 418.19 325.29 413.172 325.716 412.434C326.143 411.694 326.894 411.339 327.387 411.643C327.881 411.948 328.284 411.692 328.284 411.076C328.284 409.35 337.914 400.57 339.043 401.266C339.59 401.605 339.764 401.437 339.428 400.893C338.859 399.973 347.172 391.505 353.529 386.529C355.706 384.824 356.056 384.104 355.148 383.197C354.406 382.456 353.746 382.379 353.313 382.985C352.941 383.506 351.132 384.758 349.294 385.769C345.065 388.094 340.891 390.816 333.059 396.358C324.441 402.455 320.301 404.969 319.379 404.664C318.946 404.519 318.808 404.752 319.073 405.18C319.337 405.607 317.65 407.16 315.323 408.632C312.997 410.102 311.094 411.695 311.094 412.172C311.094 412.648 310.47 413.039 309.709 413.039C308.947 413.039 307.98 413.613 307.56 414.316C307.14 415.019 306.102 415.984 305.253 416.464C304.404 416.942 300.824 419.91 297.299 423.059C293.773 426.208 290.46 428.666 289.936 428.522C289.414 428.378 289.239 428.668 289.548 429.167C289.856 429.666 288.388 431.287 286.286 432.77C284.183 434.252 276.686 441.327 269.625 448.492C262.564 455.657 256.475 461.24 256.092 460.898C255.71 460.556 255.685 460.779 256.036 461.393C256.391 462.011 255.606 463.352 254.28 464.394C252.961 465.43 251.883 466.552 251.883 466.888C251.883 467.224 250.702 468.678 249.257 470.119C244.958 474.408 238.519 482.391 228.137 496.302C218.877 508.708 218.164 509.424 215.068 509.424C212 509.424 203.158 506.497 195.537 502.959C193.699 502.105 191.55 501.31 190.762 501.193C189.974 501.075 186.107 500.258 182.167 499.378C176.483 498.109 172.738 497.92 164.022 498.463C157.981 498.839 151.683 499.204 150.026 499.275C148.37 499.345 147.177 499.668 147.378 499.992C147.579 500.316 144.421 501.108 140.363 501.753C136.305 502.398 130.835 503.477 128.209 504.15C125.583 504.823 122.36 505.306 121.046 505.224C119.733 505.141 118.413 505.419 118.111 505.84C117.318 506.949 107.184 508.458 100.514 508.46C96.516 508.462 93.9174 507.913 91.9186 506.645C88.6591 504.577 83.801 500.384 83.801 499.637C83.801 499.363 81.0659 496.296 77.7224 492.821C72.4182 487.308 71.4919 485.79 70.4557 480.91C69.8025 477.834 69.558 474.404 69.9132 473.287C70.7527 470.644 74.2308 469.828 78.5618 471.256C80.4632 471.883 82.1804 472.234 82.3781 472.038C82.5748 471.84 83.949 469.328 85.4322 466.455C87.6249 462.206 89.0173 460.786 92.8879 458.845C96.3823 457.094 99.1729 456.46 103.379 456.46C106.53 456.46 110.137 456.83 111.395 457.283C113.663 458.1 113.676 458.069 113.032 453.217C112.471 448.995 112.72 447.753 114.847 444.125C117.856 438.995 121.216 436.497 122.884 438.151C123.765 439.025 123.882 438.908 123.397 437.634C122.946 436.45 123.466 435.669 125.25 434.857C126.615 434.236 127.732 433.366 127.732 432.925C127.732 432.485 128.274 432.125 128.938 432.125C130.13 432.125 130.896 430.971 133.984 424.525C136.198 419.905 135.312 414.187 131.934 411.283C129.839 409.483 129.596 408.882 130.681 408.194C131.423 407.726 133.318 407.341 134.894 407.339C137.242 407.338 153.273 405.235 168.558 402.924L171.662 402.454V392.034C171.662 382.709 171.468 381.51 169.815 380.625C168.799 380.082 162.391 379.638 155.576 379.638H143.184L138.561 383.295C136.019 385.306 127.493 393.745 119.614 402.048C103.381 419.155 100.312 422.104 98.7517 422.104C98.0211 422.104 97.5551 419.233 97.3707 413.597C97.1086 405.583 100.839 403.459 106.256 400.829C108.618 399.682 110.823 398.776 111.155 398.815C111.489 398.855 112.023 398.488 112.344 398.001C112.666 397.514 115.292 395.474 118.181 393.466C121.07 391.459 124.008 389.012 124.709 388.029C125.41 387.046 126.715 385.508 127.61 384.61C128.504 383.713 130.427 381.363 131.882 379.391C134.154 376.308 134.31 375.719 132.986 375.213C131.546 374.66 125.885 375.172 121.524 376.25C120.473 376.509 116.514 377.772 112.725 379.056C105.777 381.409 99.2913 384.571 91.4927 389.41C89.1577 390.858 86.9277 392.044 86.5381 392.044C85.372 392.044 86.4216 383.342 88.2351 377.968C89.1653 375.213 90.4822 372.958 91.1612 372.958C91.8403 372.958 92.2891 372.421 92.1574 371.765C92.0265 371.109 92.4878 370.69 93.183 370.834C93.8792 370.978 94.2059 370.704 93.9098 370.226C93.1009 368.918 95.6976 367.161 98.7584 366.945C100.249 366.84 101.898 366.271 102.424 365.68C102.949 365.088 107.046 363.693 111.527 362.578C117.566 361.076 122.635 360.552 131.105 360.557C137.391 360.56 144.104 360.998 146.023 361.531C148.781 362.296 150.275 363.677 153.156 368.123C156.948 373.975 160.45 376.715 163.305 376.063C165.603 375.537 166.269 372.117 165.489 364.836C164.897 359.318 164.508 358.447 161.799 356.589C160.132 355.447 156.406 352.256 153.517 349.499C144.19 340.595 142.6 339.32 138.57 337.513C136.39 336.534 133.52 335.644 132.192 335.534C130.865 335.425 129.99 334.993 130.249 334.576C130.926 333.481 136.659 330.535 137.601 330.798C138.039 330.921 139.218 329.977 140.223 328.701C141.228 327.426 144.092 325.191 146.589 323.735C149.086 322.279 151.559 320.602 152.084 320.009C152.61 319.414 155.123 317.45 157.669 315.644C160.216 313.837 163.869 311.069 165.787 309.491C172.034 304.355 177.268 300.43 177.87 300.43C178.194 300.43 180.045 299.217 181.985 297.735C191.257 290.647 196.971 286.785 208.367 279.902C220.704 272.452 220.731 272.441 229.377 271.709C240.928 270.731 242.305 270.436 247.975 267.725L252.838 265.399V276.358V287.316L257.828 286.655C260.573 286.29 263.258 285.631 263.797 285.188C264.8 284.362 281.57 280.154 282.029 280.612C282.168 280.752 282.385 283.443 282.51 286.592C282.756 292.792 283.984 296.074 287.117 298.907C288.753 300.386 290.463 300.694 296.399 300.582C300.401 300.506 305.451 299.966 307.619 299.382C309.789 298.799 312.268 298.185 313.131 298.019C313.992 297.854 315.498 297.303 316.477 296.795C317.456 296.287 320.62 294.688 323.509 293.24C326.398 291.793 329.486 289.985 330.372 289.223C331.259 288.461 332.451 288.126 333.023 288.478C333.594 288.831 333.954 288.766 333.823 288.333C333.692 287.901 336.591 284.541 340.265 280.867C350.768 270.365 352.644 267.875 357.293 258.258C362.071 248.377 366.479 232.22 366.486 224.562C366.488 221.938 365.562 216.661 364.427 212.834C362.862 207.559 361.464 204.978 358.641 202.158C356.594 200.112 352.972 197.496 350.591 196.344C347.101 194.656 345.182 194.35 340.674 194.758C337.6 195.037 333.055 196.274 330.575 197.508L326.066 199.75L333.621 200.352C342.85 201.088 346.618 202.013 345.798 203.339C345.423 203.944 345.643 204.053 346.353 203.615C348.886 202.05 355.005 210.404 356.302 217.2C356.958 220.64 355.495 228.933 353.575 232.653C352.484 234.768 352.37 234.314 352.496 228.359C352.605 223.198 352.158 220.729 350.508 217.384C349.293 214.922 347.038 212.273 345.255 211.213C341.212 208.812 332.364 207.719 331.666 209.535C331.372 210.299 331.595 210.562 332.214 210.18C332.788 209.826 332.506 210.68 331.589 212.08C330.218 214.171 330.027 215.879 330.517 221.669L331.113 228.713L328.311 229.328C326.769 229.666 324.395 230.819 323.033 231.889C320.636 233.773 320.608 233.912 322.153 236.356C323.803 238.967 328.337 243.649 329.216 243.649C329.491 243.649 329.624 243.926 329.51 244.266C329.396 244.607 330.106 244.674 331.087 244.419C332.448 244.063 332.99 244.593 333.38 246.663C334.65 253.401 335.051 258.756 334.481 261.35C334.015 263.471 333.321 264.166 331.67 264.166C329.306 264.166 323.514 259.314 321.684 255.796C321.063 254.604 320.857 253.142 321.224 252.547C321.593 251.952 321.474 251.725 320.96 252.043C319.855 252.724 317.341 243.696 318.233 242.253C318.57 241.708 318.341 241.263 317.723 241.263C317.041 241.263 316.78 240.328 317.058 238.877C317.309 237.565 317.19 236.491 316.795 236.491C316.4 236.491 315.795 235.375 315.452 234.01C313.9 227.831 306.242 222.224 301.111 223.512C299.758 223.85 296.186 226.286 293.174 228.923C290.161 231.56 287.239 234.069 286.681 234.498C284.894 235.873 281.646 237.446 280.596 237.446C279.978 237.446 279.574 234.921 279.569 231.004C279.558 223.348 277.251 217.701 270.658 209.198C264.377 201.095 261.259 194.774 260.588 188.776L260.001 183.527L248.54 182.767C233.912 181.798 217.382 182.57 213.867 184.386C212.058 185.321 210.077 188.055 207.737 192.852C205.834 196.748 202.94 201.272 201.304 202.907C199.625 204.585 196.065 206.592 193.13 207.516C189.841 208.553 186.481 210.545 183.988 212.939C180.09 216.682 180.054 216.781 180.596 222.074C180.898 225.018 181.408 228.716 181.73 230.292C182.179 232.49 181.796 233.731 180.092 235.606C177.537 238.418 171.626 242.874 167.159 245.353C164.658 246.741 162.27 247.006 154.266 246.784C146.852 246.579 140.353 247.222 135.133 253.05C134.214 254.076 133.452 254.528 133.441 254.053C133.385 251.777 129.642 261.875 129.642 264.301C129.642 268.12 132.239 268.992 134.692 265.996C135.73 264.727 136.952 263.797 137.408 263.928C137.864 264.059 138.237 263.711 138.237 263.156C138.237 262.6 138.733 262.451 139.34 262.825C139.958 263.208 140.185 263.092 139.856 262.56C139.534 262.039 140.972 259.954 143.051 257.925C146.175 254.877 146.831 254.56 146.826 256.099C146.815 260.113 144.775 264.949 141.461 268.817C139.358 271.273 137.457 272.661 136.632 272.344C135.884 272.057 135.509 272.205 135.799 272.674C136.328 273.528 129.199 278.596 122.956 281.806C120.877 282.875 116.931 283.641 112.514 283.835C106.734 284.088 104.846 283.794 102.347 282.25C100.66 281.208 98.5617 279.261 97.685 277.924C96.3451 275.881 95.6231 275.596 93.1592 276.137C91.5194 276.497 87.8627 279.036 84.8649 281.897C80.6036 285.965 78.6411 287.144 75.3014 287.649C68.7615 288.637 55.9634 287.295 46.7876 284.659C35.9456 281.544 21.8725 275.937 13.0872 268.759C4.12541 261.436 -1.20164 248.146 0.231829 236.685C0.7313 232.692 1.60511 230.741 4.15977 227.915C5.96665 225.917 8.52129 224.011 9.83539 223.682C11.1504 223.351 14.5503 222.019 17.3924 220.72C20.2336 219.421 22.9869 218.359 23.5112 218.359C24.0355 218.359 26.9635 217.333 30.0186 216.079C41.1311 211.519 78.0146 200.301 91.4411 197.399C98.1453 195.95 160.274 180.812 169.752 178.318C177.156 176.37 182.91 174.89 196.015 171.559C203.661 169.616 206.762 168.663 210.34 167.155C211.427 166.697 189.616 166.144 159.724 165.872L107.199 165.395L119.304 159.465C125.961 156.203 134.071 152.638 137.326 151.542C144.49 149.131 153.062 148.798 167.842 150.357C173.882 150.995 184.197 151.981 190.762 152.551C197.328 153.121 207.78 154.609 213.988 155.857C220.198 157.105 225.875 157.897 226.606 157.617C227.337 157.337 228.195 156.288 228.513 155.287C228.831 154.285 229.492 153.466 229.982 153.466C230.472 153.466 230.771 153.145 230.646 152.751C230.389 151.937 237.291 141.338 238.606 140.525C239.08 140.233 239.468 139.218 239.468 138.271C239.468 136.945 238.447 136.408 235.037 135.941C228.178 135.001 225.376 135.204 221.531 136.913C219.578 137.781 217.674 138.431 217.298 138.356C216.923 138.281 216.811 138.752 217.049 139.402C217.288 140.052 217.124 141.143 216.687 141.828C216.06 142.811 214.978 142.589 211.565 140.776C208.247 139.012 205.04 138.32 197.806 137.808C192.619 137.44 186.783 136.722 184.836 136.211C180.668 135.119 175.967 131.406 174.041 127.684C172.687 125.066 172.518 125.023 160.944 124.364C154.496 123.995 145.137 123.607 140.147 123.5C130.398 123.29 129.661 123.53 122.479 129.234C120.378 130.903 114.361 134.738 109.109 137.757C103.856 140.776 98.0545 144.363 96.2161 145.728C88.7174 151.298 82.0142 161.01 79.8425 169.451C79.2685 171.682 78.3947 173.507 77.901 173.507C77.4072 173.507 77.2687 173.077 77.5934 172.552C77.9181 172.028 77.7223 171.598 77.1589 171.598C76.5964 171.598 75.014 169.149 73.6435 166.156C71.3314 161.104 71.1901 160.027 71.6743 151.125C72.1432 142.522 74.164 133.026 79.0985 116.248Z" fill="#E30613"/>
    <path d="M96.6679 314.703C96.3575 314.201 96.3689 313.361 96.6937 312.836C97.6936 311.218 104.687 311.78 108.637 313.793C113.388 316.215 116.271 322.11 116.271 327.602C116.271 333.011 115.972 333.983 113.563 336.382C111.037 338.898 106.374 340.716 99.5587 341.842C97.9829 342.103 90.6771 342.573 83.3235 342.887C75.9699 343.201 68.1264 343.703 65.8945 344.002C62.1881 344.498 61.8358 344.364 61.8358 342.453C61.8358 340.315 67.094 334.444 71.3859 331.788C72.699 330.975 76.2307 330.061 79.2342 329.757C84.9136 329.181 89.6657 327.077 92.6597 323.811C94.9851 321.274 97.3746 315.845 96.6679 314.703Z" fill="#E30613"/>
    <path fill-rule="evenodd" clip-rule="evenodd" d="M317.441 789.32C317.649 788.994 317.921 788.713 318.241 788.496C318.561 788.279 318.922 788.129 319.301 788.056C319.672 787.982 320.054 787.983 320.425 788.058C320.796 788.134 321.148 788.283 321.46 788.496C321.811 788.676 322.119 788.928 322.364 789.237C322.609 789.545 322.785 789.903 322.88 790.286C323.028 791.064 322.865 791.87 322.425 792.529C322.224 792.861 321.953 793.145 321.633 793.363C321.312 793.581 320.948 793.728 320.565 793.793C320.183 793.873 319.789 793.875 319.406 793.799C319.023 793.724 318.659 793.572 318.336 793.353C318.015 793.144 317.742 792.868 317.536 792.545C317.33 792.222 317.196 791.858 317.143 791.478C317 790.738 317.131 789.971 317.512 789.32H317.441ZM307.898 782.021L310.213 779.408L309.176 778.442L309.773 777.704L310.88 778.669L312.741 780.302L313.791 781.197L313.195 781.95L312.144 781.055L305.74 788.425L306.705 789.32L306.109 789.987L305.072 789.178L302.757 787.161C301.799 786.406 301.034 785.432 300.528 784.321C300.318 783.785 300.277 783.198 300.409 782.637C300.541 782.077 300.84 781.569 301.266 781.183C301.597 780.786 302.002 780.458 302.459 780.217C302.9 779.992 303.385 779.866 303.879 779.848C304.498 779.936 305.101 780.113 305.669 780.373C306.452 780.827 307.177 781.376 307.827 782.006L307.898 782.021ZM307.302 782.688C307.02 782.363 306.665 782.11 306.265 781.95C305.827 781.727 305.33 781.647 304.845 781.722C304.493 781.795 304.159 781.939 303.864 782.144C303.569 782.349 303.318 782.611 303.127 782.915C302.853 783.195 302.654 783.54 302.55 783.918C302.446 784.295 302.439 784.693 302.53 785.074C302.837 785.766 303.328 786.36 303.95 786.792L307.444 782.688H307.302ZM299.633 776.213C300.443 775.596 301.103 774.805 301.565 773.898C301.917 773.236 302.074 772.487 302.019 771.739C301.944 771.105 301.682 770.506 301.266 770.021C300.895 769.57 300.402 769.235 299.846 769.055C299.145 768.827 298.389 768.827 297.688 769.055C295.702 769.727 294.034 771.107 293.002 772.932C292.702 773.61 292.571 774.351 292.618 775.091C292.734 775.688 292.992 776.248 293.371 776.724C293.694 777.099 294.096 777.4 294.547 777.606C294.998 777.812 295.488 777.918 295.984 777.917C297.393 777.831 298.719 777.223 299.704 776.213H299.633ZM301.494 778.442C300.704 779.1 299.753 779.537 298.739 779.706C297.655 779.886 296.543 779.758 295.529 779.337C294.412 778.945 293.428 778.246 292.689 777.32C291.913 776.409 291.398 775.305 291.198 774.125C290.963 773.056 291.042 771.941 291.425 770.916C291.74 769.928 292.331 769.05 293.129 768.388C293.933 767.696 294.919 767.252 295.969 767.11C297.042 766.923 298.145 767.026 299.165 767.408C300.258 767.871 301.227 768.586 301.992 769.494C302.757 770.402 303.296 771.478 303.567 772.634C303.795 773.727 303.716 774.863 303.34 775.914C302.994 776.909 302.373 777.785 301.55 778.442H301.494ZM281.073 761.231L283.913 759.512L284.438 760.336C284.152 760.532 283.91 760.786 283.729 761.083C283.548 761.379 283.431 761.71 283.388 762.054C283.301 762.813 283.488 763.578 283.913 764.213C284.285 764.807 284.83 765.273 285.475 765.548C286.165 765.889 286.949 765.994 287.705 765.846C288.691 765.662 289.632 765.286 290.474 764.738C291.526 764.045 292.351 763.057 292.845 761.898C293.032 761.355 293.09 760.775 293.013 760.206C292.937 759.636 292.729 759.093 292.405 758.618C292.04 758.091 291.563 757.651 291.008 757.329C290.453 757.008 289.835 756.813 289.196 756.758L289.281 755.721C290.127 755.869 290.933 756.19 291.649 756.664C292.365 757.138 292.975 757.755 293.442 758.476C294.047 759.367 294.432 760.389 294.564 761.458C294.736 762.579 294.552 763.727 294.038 764.738C293.557 765.758 292.812 766.631 291.88 767.266C290.941 767.866 289.867 768.223 288.755 768.303C287.654 768.335 286.566 768.055 285.617 767.493C284.603 766.925 283.778 766.071 283.246 765.037C282.734 764.099 282.498 763.035 282.564 761.969H281.527L281.073 761.231V761.231ZM274.896 749.757L277.878 748.265L278.318 749.16C278.019 749.327 277.763 749.562 277.571 749.846C277.379 750.129 277.255 750.454 277.21 750.793C277.037 751.529 277.143 752.304 277.509 752.966C277.781 753.604 278.29 754.113 278.929 754.386C279.61 754.773 280.389 754.956 281.172 754.911C282.18 754.811 283.152 754.48 284.012 753.946C285.142 753.378 286.058 752.462 286.625 751.333C286.873 750.816 286.988 750.245 286.961 749.673C286.933 749.1 286.764 748.544 286.469 748.052C286.143 747.505 285.7 747.035 285.173 746.677C284.645 746.319 284.046 746.08 283.416 745.979L283.572 744.928C284.402 745.146 285.179 745.528 285.857 746.053C286.536 746.577 287.101 747.233 287.52 747.981C288.033 748.954 288.337 750.023 288.415 751.12C288.429 751.959 288.272 752.792 287.952 753.568C287.632 754.344 287.157 755.046 286.556 755.631C285.954 756.217 285.24 756.673 284.455 756.971C283.671 757.27 282.834 757.405 281.996 757.368C280.893 757.363 279.821 756.999 278.943 756.331C277.963 755.682 277.209 754.744 276.784 753.648C276.332 752.697 276.202 751.625 276.415 750.594L275.293 750.523L274.924 749.7L274.896 749.757ZM280.476 740.285L272.141 737.615L271.757 737.686L272.212 739.021L271.246 739.319L270.792 738.055L270.053 735.669L269.599 734.335L270.579 734.036L271.019 735.3L280.334 732.318L279.88 730.983L280.803 730.628L281.258 731.963L281.996 734.349L282.45 735.613L281.556 735.911L281.101 734.647L273.802 737.033L282.081 739.717L282.678 739.489L282.223 738.226L283.189 737.856L283.572 739.191L284.382 741.577L284.836 742.912L283.87 743.21L283.487 741.875L274.171 744.928L274.555 746.192L273.66 746.49L273.206 745.227L272.382 742.77L272.013 741.506L272.978 741.208L273.362 742.543L280.462 740.228L280.476 740.285ZM268.335 721.824L278.02 720.12L277.722 718.699L278.687 718.557L278.985 719.978L279.369 722.434L279.667 723.854L278.687 723.996L278.389 722.662L274.739 723.329C274.719 723.533 274.742 723.738 274.808 723.932C274.875 724.125 274.982 724.303 275.123 724.451C275.397 724.702 275.728 724.883 276.088 724.976L279.284 726.013C279.614 726.127 279.904 726.336 280.116 726.614C280.328 726.892 280.454 727.226 280.476 727.575C280.638 728.258 280.691 728.963 280.633 729.662L279.667 729.89V729.733C279.636 729.708 279.612 729.675 279.598 729.638C279.583 729.601 279.577 729.56 279.582 729.52C279.582 729.222 279.44 728.995 279.284 728.924C278.988 728.595 278.603 728.358 278.176 728.242L276.088 727.504C275.81 727.439 275.551 727.311 275.332 727.128C275.113 726.946 274.939 726.715 274.825 726.453H274.739C274.765 726.944 274.662 727.434 274.441 727.873C274.29 728.359 274.01 728.796 273.632 729.137C273.241 729.504 272.744 729.737 272.212 729.804C271.616 729.952 270.988 729.902 270.422 729.662C269.854 729.394 269.365 728.983 269.002 728.47C268.536 727.805 268.23 727.042 268.108 726.24L267.369 722.136L267.142 720.716L268.108 720.503L268.335 721.923V721.824ZM268.789 724.295C268.931 726.297 269.897 727.263 271.757 727.05C272.168 727.045 272.571 726.933 272.925 726.723C273.279 726.514 273.572 726.215 273.774 725.857C274.078 725.066 274.078 724.191 273.774 723.4L268.789 724.295ZM273.774 705.067C274.17 705.073 274.56 705.162 274.92 705.329C275.279 705.495 275.6 705.735 275.861 706.032C276.128 706.307 276.332 706.635 276.462 706.995C276.592 707.355 276.644 707.739 276.614 708.12C276.616 708.511 276.538 708.898 276.384 709.257C276.23 709.616 276.004 709.94 275.719 710.207C275.426 710.471 275.082 710.672 274.708 710.799C274.335 710.926 273.94 710.976 273.547 710.946C273.167 710.957 272.79 710.882 272.443 710.727C272.097 710.572 271.789 710.341 271.544 710.051C271.263 709.769 271.045 709.431 270.903 709.06C270.761 708.688 270.699 708.29 270.721 707.893C270.723 707.506 270.811 707.125 270.978 706.777C271.145 706.428 271.387 706.121 271.686 705.876C271.958 705.602 272.284 705.388 272.644 705.249C273.003 705.109 273.388 705.047 273.774 705.067V705.067ZM279.454 693.067L279.156 694.331L278.929 695.666L277.963 695.524L278.261 694.104L268.704 692.286L268.108 695.126L269.386 695.353L269.158 696.404L267 695.95L268.931 685.825L271.09 686.265L270.948 687.302L269.684 687.089L269.158 689.844L278.772 691.704L278.985 690.369L279.965 690.582L279.738 692.002L279.511 693.195L279.454 693.067ZM277.452 682.104L280.803 683.084L281.172 681.735L282.138 682.033L281.698 683.453L281.016 685.91L280.647 687.174L279.681 686.876L280.05 685.612L270.664 682.928L270.294 684.192L269.329 683.964L269.698 682.63L270.593 679.718C270.872 678.525 271.404 677.407 272.155 676.438C272.563 676.021 273.091 675.739 273.665 675.633C274.24 675.526 274.833 675.599 275.364 675.842C275.87 675.995 276.349 676.225 276.784 676.523C277.183 676.834 277.492 677.246 277.679 677.716C277.907 678.279 278.009 678.885 277.977 679.491C277.884 680.399 277.713 681.297 277.466 682.175L277.452 682.104ZM276.557 681.891C276.691 681.474 276.791 681.047 276.855 680.613C276.829 680.108 276.672 679.619 276.401 679.193C275.906 678.66 275.254 678.297 274.541 678.156C274.178 678.036 273.792 678.007 273.415 678.071C273.039 678.136 272.684 678.292 272.382 678.526C271.842 679.041 271.5 679.729 271.416 680.471L276.557 681.962V681.891ZM280.945 669.593L276.855 665.333L276.33 666.526L275.364 666.143L276.784 662.791L277.679 663.175L277.168 664.367L284.083 671.468C284.481 671.829 284.813 672.257 285.063 672.732C285.176 672.964 285.235 673.219 285.235 673.477C285.235 673.736 285.176 673.99 285.063 674.223C284.846 674.722 284.51 675.161 284.083 675.501L282.905 674.223C283.303 674.045 283.621 673.726 283.799 673.328C283.87 673.11 283.88 672.877 283.827 672.654C283.775 672.431 283.662 672.227 283.501 672.064L283.118 671.766L273.802 672.661L273.433 673.626L272.538 673.257L274.399 668.642L275.293 669.011L274.782 670.275L280.888 669.764L281.258 669.835V669.764L280.888 669.537L280.945 669.593ZM281.101 655.279L292.462 657.295L293.129 656.103L296.793 658.261L295.898 659.823L293.058 658.19L288.798 665.717L291.638 667.279L290.673 668.926L286.966 666.725L287.634 665.617L281.002 657.565L280.405 658.687L279.511 658.162L280.178 656.969L281.158 655.251L281.101 655.279ZM282.891 658.19L288.031 664.453L290.871 659.525L283.047 657.963L282.521 657.75V657.821L282.976 658.19H282.891ZM298.242 643.734C298.55 643.975 298.803 644.28 298.982 644.628C299.161 644.976 299.262 645.359 299.278 645.75C299.302 646.142 299.247 646.534 299.118 646.905C298.989 647.275 298.788 647.617 298.526 647.909C298.274 648.196 297.967 648.43 297.623 648.596C297.279 648.762 296.905 648.856 296.523 648.874C296.137 648.917 295.746 648.879 295.375 648.765C295.004 648.65 294.66 648.46 294.365 648.207C293.796 647.653 293.448 646.911 293.385 646.119C293.342 645.743 293.381 645.362 293.499 645.002C293.616 644.641 293.81 644.311 294.067 644.032C294.327 643.727 294.646 643.478 295.004 643.3C295.363 643.122 295.754 643.018 296.154 642.995C296.535 642.95 296.922 642.993 297.284 643.121C297.646 643.249 297.974 643.459 298.242 643.734V643.734ZM306.364 634.063L309.347 637.798L310.397 636.903L310.994 637.713L309.943 638.536L307.926 640.098L306.89 640.922L306.222 640.169L307.33 639.36L301.295 631.606L300.258 632.43L299.591 631.677L300.698 630.868L302.715 629.221L303.766 628.397L304.348 629.221L303.311 630.044L305.768 633.239L309.943 629.973L307.415 626.835L306.364 627.658L305.768 626.906L306.819 626.096L308.821 624.449L309.872 623.64L310.539 624.449L309.418 625.273L315.453 632.941L316.504 632.132L317.171 632.87L316.049 633.765L314.047 635.327L312.996 636.151L312.4 635.412L313.451 634.517L310.539 630.783L306.364 634.063ZM322.752 625.543L318.208 627.999L318.52 630.456L319.628 629.789L320.082 630.683L317.1 632.387L316.575 631.507L317.697 630.91L316.277 619.351L317.469 618.684L326.856 625.784L328.049 625.117L328.503 626.011L323.888 628.553L323.434 627.73L324.627 627.062L322.724 625.543H322.752ZM317.469 621.666L318.066 627.034L321.943 624.875L317.54 621.595L317.398 621.211V621.297L317.54 621.666H317.469ZM330.435 620.018L331.926 623.228L333.19 622.702L333.559 623.597L332.295 624.123L329.995 625.159L328.716 625.756L328.347 624.875L329.54 624.279L325.592 615.332L324.328 615.929L323.959 614.963L325.223 614.438L327.978 613.174C329.105 612.667 330.321 612.387 331.557 612.35C332.593 612.35 333.417 613.018 334.013 614.367C334.236 614.834 334.361 615.341 334.382 615.858C334.434 616.373 334.33 616.893 334.084 617.349C333.796 617.904 333.389 618.389 332.891 618.769C332.143 619.315 331.314 619.741 330.435 620.033V620.018ZM330.066 619.209C330.501 619.098 330.908 618.895 331.258 618.613C331.666 618.294 331.955 617.85 332.082 617.349C332.229 616.63 332.091 615.881 331.699 615.261C331.574 614.902 331.358 614.583 331.071 614.333C330.785 614.084 330.438 613.915 330.066 613.841C329.318 613.772 328.567 613.925 327.907 614.281L330.066 619.209V619.209ZM339.225 615.034C339.452 616.029 339.883 616.967 340.489 617.789C340.947 618.378 341.57 618.818 342.278 619.053C342.881 619.266 343.535 619.291 344.153 619.124C344.693 618.948 345.181 618.64 345.573 618.229C346.079 617.668 346.414 616.973 346.538 616.227C346.671 615.204 346.593 614.166 346.311 613.174C346.027 612.159 345.576 611.2 344.976 610.334C344.518 609.76 343.893 609.343 343.187 609.141C342.581 608.941 341.932 608.917 341.312 609.07C340.848 609.204 340.419 609.441 340.058 609.763C339.696 610.085 339.412 610.484 339.225 610.93C338.737 612.255 338.737 613.71 339.225 615.034ZM336.385 615.772C336.123 614.772 336.123 613.72 336.385 612.719C336.684 611.673 337.252 610.723 338.032 609.964C338.872 609.121 339.928 608.526 341.085 608.246C342.249 607.926 343.474 607.901 344.65 608.175C345.701 608.418 346.667 608.943 347.443 609.693C348.219 610.444 348.775 611.392 349.052 612.435C349.326 613.438 349.301 614.499 348.981 615.488C348.708 616.546 348.136 617.503 347.334 618.243C346.494 619.087 345.437 619.682 344.28 619.962C343.176 620.299 342.002 620.338 340.878 620.076C339.753 619.815 338.718 619.261 337.876 618.471C337.132 617.726 336.593 616.802 336.314 615.787L336.385 615.772ZM356.422 605.051L361.648 615.261L362.983 615.105L363.508 619.365L361.719 619.592L361.265 616.312L352.744 617.363L353.113 620.629L351.253 620.856L350.742 616.596L352.077 616.454L354.533 606.315L353.27 606.457L353.113 605.491L354.533 605.264L356.394 605.051H356.422ZM355.229 608.246L353.227 616.071L358.907 615.403L355.471 608.175L355.329 607.65H355.172V608.246H355.229ZM366.334 610.192C366.315 611.217 366.519 612.234 366.931 613.174C367.218 613.856 367.715 614.428 368.351 614.807C368.859 615.147 369.457 615.33 370.069 615.332C370.673 615.308 371.26 615.127 371.773 614.807C372.415 614.397 372.911 613.796 373.193 613.089C373.591 612.122 373.77 611.079 373.719 610.035C373.702 609.021 373.494 608.019 373.108 607.082C372.793 606.398 372.303 605.81 371.688 605.378C371.135 605.088 370.522 604.932 369.899 604.923C369.411 604.939 368.933 605.06 368.496 605.278C368.06 605.496 367.676 605.806 367.371 606.187C366.531 607.354 366.157 608.792 366.32 610.22L366.334 610.192ZM363.494 610.192C363.481 609.173 363.735 608.169 364.233 607.28C364.788 606.32 365.587 605.522 366.547 604.966C367.6 604.388 368.77 604.058 369.97 604C371.16 603.996 372.334 604.279 373.392 604.824C374.372 605.341 375.196 606.11 375.778 607.053C376.298 607.911 376.582 608.891 376.601 609.893C376.645 610.938 376.388 611.972 375.863 612.876C375.307 613.836 374.509 614.634 373.548 615.19C372.512 615.799 371.327 616.109 370.126 616.085C368.934 616.138 367.75 615.878 366.689 615.332C365.75 614.791 364.959 614.025 364.389 613.103C363.819 612.211 363.509 611.179 363.494 610.121V610.192ZM385.392 610.632V610.717C386.156 610.842 386.862 611.204 387.408 611.754C387.673 612.041 387.87 612.384 387.986 612.757C388.101 613.131 388.132 613.525 388.076 613.912C388.063 614.398 387.926 614.873 387.677 615.29C387.428 615.708 387.077 616.055 386.655 616.298C385.736 616.841 384.658 617.051 383.602 616.894L377.922 616.156V615.176L379.342 615.403L380.535 605.647L379.115 605.491L379.271 604.525L384.71 605.193C385.77 605.233 386.779 605.657 387.55 606.386C387.972 606.916 388.211 607.569 388.232 608.246C388.209 608.592 388.116 608.929 387.96 609.238C387.803 609.547 387.586 609.822 387.32 610.044C387.055 610.267 386.747 610.434 386.416 610.535C386.085 610.636 385.736 610.669 385.392 610.632V610.632ZM381.628 615.602L382.679 615.744C383.333 615.833 383.996 615.676 384.54 615.304C384.821 615.133 385.052 614.891 385.21 614.601C385.367 614.312 385.444 613.986 385.434 613.657C385.545 613.295 385.541 612.908 385.421 612.549C385.301 612.19 385.073 611.877 384.767 611.654C384.253 611.315 383.662 611.11 383.049 611.058L382.225 610.902L381.628 615.602ZM382.381 609.922L383.19 609.993C383.492 610.043 383.8 610.031 384.096 609.955C384.392 609.879 384.669 609.742 384.909 609.553C385.136 609.391 385.323 609.178 385.454 608.932C385.584 608.685 385.655 608.411 385.661 608.132C385.709 607.655 385.572 607.177 385.278 606.798C385.073 606.566 384.822 606.379 384.541 606.249C384.26 606.12 383.954 606.05 383.645 606.045L382.821 605.903L382.381 609.922V609.922ZM396.312 610.078L396.085 610.518L391.399 616.923C391.141 617.239 390.84 617.516 390.504 617.746C390.317 617.869 390.104 617.946 389.882 617.97C389.66 617.995 389.435 617.967 389.226 617.888C388.83 617.784 388.455 617.611 388.118 617.377L389.382 615.659C389.439 615.784 389.521 615.895 389.624 615.986C389.727 616.076 389.847 616.144 389.978 616.184C390.193 616.218 390.414 616.178 390.602 616.069C390.791 615.961 390.937 615.791 391.015 615.588L396.383 608.487L395.119 608.189L395.346 607.224L396.681 607.593L398.47 608.047L399.521 619.521L400.7 619.82L400.402 620.714L395.488 619.436L395.829 618.442L397.093 618.811L396.355 610.618V610.177V610.106L396.312 610.078ZM408.908 620.658L404.066 618.783L402.418 620.572L403.611 621.027L403.242 621.921L399.962 620.658L400.26 619.763L401.524 620.203L409.419 611.683L410.768 612.208L411.45 624.123L412.643 624.577L412.274 625.457L407.346 623.597L407.729 622.631L408.993 623.157V620.7L408.908 620.658ZM408.454 614.097L404.733 618.045L408.823 619.607L408.61 614.182L408.681 613.813H408.61L408.454 614.111V614.097ZM427.312 620.729L425.75 623.64L424.856 623.185C425.004 622.87 425.081 622.526 425.081 622.177C425.081 621.828 425.004 621.484 424.856 621.169C424.616 620.458 424.106 619.871 423.435 619.536C422.827 619.178 422.122 619.019 421.419 619.081C420.626 619.156 419.874 619.467 419.26 619.976C418.479 620.602 417.844 621.392 417.4 622.291C416.824 623.415 416.592 624.685 416.733 625.94C416.81 626.503 417.028 627.036 417.365 627.493C417.703 627.949 418.149 628.314 418.664 628.553C419.24 628.847 419.878 629.001 420.524 629.001C421.171 629.001 421.809 628.847 422.385 628.553L422.839 629.59C422.024 629.866 421.161 629.975 420.302 629.912C419.444 629.849 418.606 629.613 417.84 629.221C416.859 628.71 416.017 627.969 415.384 627.062C414.756 626.201 414.378 625.184 414.29 624.123C414.228 622.988 414.463 621.858 414.972 620.842C415.488 619.862 416.258 619.038 417.201 618.456C418.142 617.868 419.23 617.558 420.34 617.562C421.502 617.619 422.628 617.981 423.606 618.613C424.526 619.173 425.254 620 425.693 620.984L426.588 620.473L427.341 620.842L427.312 620.729ZM426.56 634.929L425.523 634.106L424.401 633.296L425.069 632.544L426.119 633.367L432.155 625.685L429.911 623.981L429.173 624.946L428.278 624.35L429.698 622.56L437.821 628.894L436.401 630.683L435.506 630.016L436.259 629.036L434.171 627.247L428.136 635L429.187 635.824L428.59 636.648L427.468 635.753L426.574 635L426.56 634.929ZM436.401 639.033L445.12 637.84L445.418 637.542L444.453 636.577L445.191 635.895L446.086 636.79L447.875 638.65L448.841 639.63L448.102 640.368L447.137 639.332L440.121 646.105L441.087 647.156L440.349 647.824L439.383 646.773L437.665 644.998L436.699 644.018L437.437 643.35L438.332 644.316L443.927 638.948L435.279 640.226L434.753 640.666L435.733 641.632L435.052 642.314L434.086 641.334L432.382 639.545L431.402 638.508L432.084 637.84L433.049 638.877L440.15 632.018L439.184 631.052L439.852 630.385L440.817 631.351L442.606 633.211L443.501 634.191L442.834 634.858L441.868 633.807L436.429 639.033H436.401ZM451.823 645.367L448.841 647.753L451.155 650.593L452.121 649.783L452.717 650.522L450.033 652.68L449.437 652.013L450.332 651.189L448.017 648.349L444.524 651.189L447.506 654.839L448.471 654.029L449.068 654.768L447.137 656.33L441.172 648.96L441.911 648.363L442.805 649.4L450.403 643.223L449.508 642.172L450.261 641.575L456.069 648.676L454.279 650.167L453.683 649.414L454.578 648.676L451.823 645.324V645.367ZM457.787 665.859C457.096 666.222 456.29 666.298 455.543 666.072C455.166 665.97 454.813 665.791 454.508 665.547C454.202 665.302 453.95 664.998 453.768 664.651C453.39 663.94 453.308 663.108 453.541 662.337C453.8 661.603 454.329 660.995 455.02 660.636C455.711 660.278 456.512 660.195 457.262 660.405C457.999 660.633 458.617 661.144 458.98 661.825C459.341 662.517 459.422 663.32 459.207 664.069C459.107 664.45 458.929 664.805 458.685 665.113C458.44 665.421 458.135 665.675 457.787 665.859V665.859ZM471.122 680.826L467.997 681.948L467.699 680.982C468.005 680.846 468.28 680.65 468.509 680.406C468.738 680.162 468.917 679.876 469.034 679.562C469.185 679.21 469.262 678.831 469.262 678.447C469.262 678.064 469.185 677.685 469.034 677.333C468.821 676.652 468.404 676.053 467.841 675.614C467.202 675.177 466.456 674.921 465.683 674.876C464.708 674.813 463.734 674.989 462.842 675.387C461.648 675.816 460.613 676.599 459.875 677.631C459.566 678.098 459.378 678.634 459.326 679.191C459.274 679.749 459.36 680.31 459.576 680.826C459.798 681.44 460.163 681.991 460.643 682.434C461.123 682.876 461.702 683.197 462.331 683.368L461.948 684.405C461.162 684.076 460.452 683.588 459.863 682.972C459.274 682.357 458.819 681.626 458.526 680.826C458.118 679.789 457.967 678.668 458.085 677.56C458.197 676.462 458.638 675.422 459.349 674.578C460.034 673.665 460.965 672.965 462.033 672.561C463.079 672.164 464.213 672.061 465.314 672.263C466.362 672.498 467.337 672.985 468.154 673.683C468.996 674.496 469.591 675.529 469.872 676.665C470.17 677.685 470.17 678.769 469.872 679.789L470.909 680.017L471.136 680.826H471.122ZM466.506 687.614C465.506 687.791 464.545 688.142 463.666 688.651C463.049 689.087 462.559 689.68 462.246 690.369C462.018 690.937 461.963 691.56 462.09 692.158C462.187 692.775 462.475 693.346 462.914 693.791C463.427 694.304 464.07 694.668 464.774 694.842C465.803 695.071 466.869 695.071 467.898 694.842C468.919 694.694 469.891 694.31 470.738 693.72C471.385 693.323 471.884 692.725 472.158 692.016C472.388 691.449 472.438 690.824 472.3 690.227C472.212 689.735 472.011 689.269 471.713 688.868C471.415 688.466 471.028 688.139 470.582 687.912C469.297 687.333 467.848 687.227 466.492 687.614H466.506ZM465.981 684.703C467.008 684.551 468.056 684.653 469.034 685.001C470.048 685.391 470.947 686.031 471.647 686.861C472.391 687.79 472.88 688.896 473.067 690.071C473.338 691.182 473.3 692.346 472.957 693.437C472.614 694.529 471.979 695.505 471.122 696.262C470.353 696.982 469.399 697.474 468.367 697.682C467.342 697.884 466.28 697.78 465.314 697.384C464.262 697.028 463.332 696.383 462.63 695.524C461.914 694.611 461.427 693.54 461.209 692.4C460.982 691.207 461.06 689.976 461.437 688.821C461.776 687.779 462.395 686.851 463.226 686.137C464.001 685.427 464.953 684.937 465.981 684.717V684.703ZM463.822 703.703L464.05 708.773L473.578 708.475V707.055H474.615V708.333L474.7 710.932V712.352H473.734L473.649 710.932L463.893 711.315V712.877L459.633 713.019V711.017L462.914 710.861L462.544 701.247L462.459 699.912L463.51 699.827V701.176L473.266 700.878V699.457H474.246V700.807V703.334L474.317 704.754H473.28V703.334L463.666 703.632L463.822 703.703ZM465.541 718.316L471.945 724.28H472.314L472.542 722.86L473.507 723.017L473.365 724.351L473.067 726.808L472.84 728.228L471.86 728.072L472.016 726.737L462.331 725.544L462.175 726.879L461.209 726.808L461.366 725.388L461.664 722.917L461.806 721.582H462.772L462.63 723.002L470.298 723.897L463.893 717.933L463.297 717.862L463.07 719.282L462.104 719.14L462.26 717.805L462.63 715.263L462.772 713.928L463.751 714.07L463.595 715.49L473.28 716.683L473.436 715.334H474.402L474.26 716.754L473.962 719.282L473.806 720.631L472.84 720.546L472.982 719.126L465.541 718.231V718.316ZM461.962 736.053L463.297 731.054L461.366 729.634L461.067 730.827L460.102 730.614L460.982 727.177L461.962 727.405L461.664 728.668L470.894 735.669L470.525 737.089L458.909 738.95L458.526 740.214L457.56 739.93L458.98 734.86L459.875 735.073L459.576 736.493L461.962 736.124V736.053ZM468.438 734.931L464.177 731.651L462.985 735.911L468.352 735.087L468.793 735.172V735.087L468.423 734.945L468.438 734.931ZM463.524 748.791L463.155 748.493L457.56 742.898C457.283 742.59 457.058 742.24 456.892 741.861C456.806 741.659 456.767 741.44 456.779 741.221C456.792 741.001 456.855 740.788 456.963 740.597C457.154 740.227 457.377 739.876 457.631 739.546L459.122 741.108C458.99 741.146 458.867 741.213 458.764 741.303C458.661 741.394 458.58 741.507 458.526 741.634C458.384 741.932 458.525 742.301 458.909 742.756L465.157 749.16L465.683 747.967L466.577 748.336L466.052 749.529L465.314 751.248L453.839 750.58L453.314 751.617L452.419 751.248L454.507 746.547L455.401 747.002L454.876 748.194L463.07 748.72L463.524 748.862V748.791ZM452.717 756.758L455.998 764.809L456.367 765.037L457.12 763.915L457.929 764.44L457.191 765.562L455.771 767.72L455.103 768.913L454.208 768.388L454.961 767.195L446.682 761.983L445.944 763.176L445.12 762.651L445.873 761.458L447.207 759.299L447.875 758.178L448.699 758.703L448.031 759.896L454.507 763.986L451.226 755.863L450.715 755.494L449.962 756.686L449.139 756.161L449.891 755.053L451.226 752.895L451.908 751.702L452.803 752.213L452.05 753.406L460.329 758.547L461.067 757.439L461.891 757.95L461.138 759.143L459.804 761.302L459.136 762.424L458.312 761.898L458.98 760.705L452.646 756.758H452.717ZM446.838 769.808L447.506 770.404L447.137 770.845C446.912 771.081 446.743 771.364 446.64 771.673C446.537 771.982 446.503 772.31 446.54 772.634C446.577 772.949 446.683 773.252 446.85 773.522C447.017 773.792 447.24 774.022 447.506 774.196C447.727 774.362 447.979 774.48 448.248 774.544C448.517 774.608 448.796 774.615 449.068 774.565C449.566 774.395 450.005 774.084 450.332 773.671C450.539 773.442 450.693 773.171 450.784 772.877C450.875 772.583 450.9 772.272 450.857 771.966C450.769 771.407 450.475 770.901 450.033 770.546L450.701 769.808L452.788 771.597L452.192 772.336L451.524 772.109C451.591 772.659 451.524 773.218 451.328 773.737C451.133 774.256 450.816 774.72 450.403 775.091C449.859 775.822 449.066 776.328 448.173 776.511C447.49 776.674 446.77 776.561 446.169 776.197C445.568 775.833 445.135 775.247 444.964 774.565C444.923 773.958 445.025 773.35 445.262 772.79L445.489 772.492V772.407L445.191 772.705C444.601 773.117 443.942 773.42 443.246 773.6C442.606 773.657 441.968 773.475 441.456 773.088C441.045 772.797 440.704 772.418 440.458 771.978C440.213 771.538 440.068 771.049 440.036 770.546C440.039 769.824 440.185 769.11 440.465 768.445C440.745 767.779 441.155 767.176 441.669 766.67C442.333 765.834 443.25 765.237 444.282 764.966L443.615 764.511L444.282 763.773L446.597 765.704L446 766.457C445.508 766.089 444.892 765.927 444.282 766.002C443.572 766.194 442.943 766.613 442.493 767.195C442.01 767.779 441.771 768.527 441.825 769.283C441.861 769.636 441.98 769.976 442.172 770.275C442.365 770.574 442.626 770.823 442.933 771.001C443.216 771.243 443.559 771.405 443.927 771.47C444.294 771.535 444.671 771.501 445.021 771.37C445.565 771.096 446.048 770.715 446.441 770.248L446.824 769.808H446.838ZM434.313 779.635L436.543 788.51L433.703 790.967L433.106 790.215L434.143 789.32L427.667 782.021L426.616 782.915L426.02 782.177L427.071 781.282L428.931 779.635L429.968 778.74L430.564 779.493L429.528 780.388L435.037 786.721L432.652 777.775L433.703 776.88L442.223 780.388L436.713 774.125L435.662 775.02L435.066 774.267L436.117 773.372L436.855 772.705L437.835 771.81L438.502 772.563L437.452 773.458L443.87 780.828L444.907 779.933L445.574 780.686L444.538 781.58L442.748 783.142L434.327 779.635H434.313ZM416.875 793.282C416.486 792.602 416.379 791.796 416.576 791.038C416.664 790.653 416.837 790.292 417.083 789.982C417.329 789.672 417.641 789.422 417.997 789.249C418.335 789.066 418.706 788.952 419.089 788.913C419.471 788.874 419.858 788.911 420.226 789.022C420.962 789.208 421.6 789.664 422.015 790.3C422.403 790.975 422.511 791.776 422.314 792.529C422.226 792.915 422.053 793.276 421.807 793.585C421.561 793.895 421.249 794.146 420.894 794.318C420.568 794.532 420.199 794.67 419.813 794.721C419.427 794.773 419.034 794.737 418.664 794.617C417.93 794.395 417.297 793.922 416.875 793.282Z" fill="white"/>
    <path fill-rule="evenodd" clip-rule="evenodd" d="M313.465 754.456C312.159 756.174 311.633 761.286 314.147 762.735C316.12 763.899 317.597 764.41 320.821 762.493C324.045 760.576 329.838 748.292 331.457 746.872L339.651 739.999C339.509 739.843 338.813 739.147 337.791 738.153C337.961 737.983 340.319 736.094 340.503 735.81C344.511 740.49 349.081 744.658 354.108 748.221C354.519 748.52 359.958 753.902 366.647 755.989C378.561 759.781 392.393 759.142 397.065 757.75C402.021 756.33 410.541 753.192 413.637 750.65C416.777 747.973 419.632 744.98 422.157 741.718C427.994 732.927 429.655 720.97 429.258 712.223C428.68 705.833 427.472 699.516 425.651 693.364C425.481 692.768 421.561 682.131 418.849 678.737C418.309 678.056 410.257 664.536 406.878 660.518C389.737 640.282 384.156 637.654 379.442 633.352C382.282 637.768 395.872 649.185 405.102 663.173C409.945 670.515 413.992 676.351 415.526 680.825C417.059 685.298 420.042 697.667 420.439 698.874L421.661 699.044L422.285 710.192L423.208 710.618L419.871 723.029L420.908 723.526L414.191 734.887L414.972 735.824L404.889 743.407L405.287 744.558L395.829 748.477L396.213 749.798L385.264 749.656L384.881 750.621L374.94 748.392L374.727 749.812L367.627 746.617L366.874 747.611L360.001 743.663L359.546 744.046L353.554 739.531L352.929 739.928L347.632 734.631L347.021 735.143L341.611 729.888L335.931 736.151L333.232 734.191C330.279 737.131 331.315 740.539 324.172 745.807C316.774 751.26 314.36 753.249 313.394 754.512L313.465 754.456Z" fill="white"/>
    <path fill-rule="evenodd" clip-rule="evenodd" d="M365.241 652.013L344.153 672.732L428.122 755.721C428.122 757.617 427.378 759.438 426.048 760.79C425.343 761.397 424.519 761.851 423.63 762.125C422.74 762.399 421.804 762.486 420.879 762.381L339.665 677.176L325.223 691.377L313.578 679.718L328.092 666.27L326.246 664.012L330.861 659.511L333.034 661.57L341.412 653.603L365.212 652.013H365.241Z" fill="white"/>
    <path fill-rule="evenodd" clip-rule="evenodd" d="M365.071 667.434L364.403 667.065L363.65 666.695L362.912 666.397L362.245 666.028L361.492 665.73L360.824 665.503L360.157 665.275L359.561 664.977L358.879 664.835L358.283 664.608L357.615 664.452L357.019 664.31L356.422 664.239L355.826 664.082L355.229 664.011H354.718L354.122 663.926H353.525L353 663.855H351.282L350.77 663.926H350.245L349.648 664.011H349.279H348.967L348.598 664.082L348.228 664.153H347.859L347.476 664.239L347.107 664.31L346.737 664.381H346.368L345.985 664.466L345.616 664.537L345.246 664.679L344.877 664.764L344.494 664.835H344.124L343.755 664.991L343.386 665.062L343.017 665.204L342.633 665.361L342.193 665.432L341.824 665.588L341.44 665.73L341 665.886L340.631 666.028L340.248 666.184L339.807 666.326L339.438 666.482L338.984 666.624L338.543 666.852L338.16 666.994L337.72 667.15L337.265 667.292L336.3 667.661L335.334 668.044L334.368 668.414L333.403 668.712L332.423 669.01L331.457 669.308L330.492 669.536L329.526 669.834L328.56 669.976L327.51 670.203L326.544 670.43L325.578 670.572L324.527 670.728L323.562 670.87L322.596 670.941L321.545 671.098L320.58 671.169H319.614L318.563 671.254L317.597 671.325H315.595L314.629 671.396H310.753L309.858 671.325H308.807L329.455 770.389L331.244 770.091L332.948 769.793L334.667 769.495L336.229 769.125L337.72 768.671L339.14 768.302L340.56 767.862L341.895 767.407L344.579 766.513L345.843 766.072L348.385 765.178L349.648 764.794L350.841 764.425L352.105 764.127L353.369 763.829L354.562 763.601L355.982 763.459H357.246H358.581H360.001L361.336 763.687L362.756 763.985L364.176 764.354L365.511 764.879L367.002 765.476L368.422 766.214L369.913 767.038V670.345L369.089 669.82L368.195 669.223L367.456 668.783L366.633 668.257L365.88 667.803L365.142 667.434H365.071ZM376.616 667.434L377.368 667.065L378.107 666.695L378.859 666.326L379.527 666.028L380.194 665.73L380.862 665.503L381.543 665.204L382.211 664.977L382.878 664.835L383.475 664.608L384.071 664.452L384.739 664.31L385.335 664.153L385.931 664.082L386.457 664.011H387.053L387.65 663.926L388.246 663.855H390.405L391.001 663.926H391.569L392.08 664.011H392.464H392.833L393.202 664.082H393.657L394.026 664.153L394.395 664.239L394.764 664.31L395.148 664.381H395.446L395.886 664.466L396.255 664.537L396.639 664.608L397.008 664.764L397.746 664.906L398.13 665.062L398.499 665.133L398.868 665.275L399.238 665.361L399.607 665.503L400.061 665.659L400.43 665.801L400.8 665.957L401.254 666.099L401.623 666.255L402.078 666.397L402.447 666.553L402.887 666.695L403.271 666.852L403.711 667.065L404.151 667.221L404.605 667.363L405.571 667.732L406.466 668.116L407.431 668.414L408.411 668.783L409.377 669.081L410.414 669.379L412.359 669.82L413.325 670.047L414.361 670.274L415.341 670.416L416.307 670.643L417.343 670.799L418.323 670.941L419.289 671.012L420.326 671.169L421.291 671.24H422.271L423.237 671.325H424.231L425.196 671.396H426.176L427.142 671.467H430.053L430.948 671.396H432.95L412.316 770.389H412.231L410.456 770.162L408.738 769.864L407.091 769.566L405.528 769.196L404.037 768.742L402.617 768.373L401.197 767.933L399.777 767.478L398.357 767.038L397.093 766.513L395.829 766.058L394.565 765.689L393.302 765.249L392.024 764.865L390.845 764.496L389.567 764.198L388.303 763.9L387.039 763.672L385.775 763.53H384.497H383.162H381.827L380.478 763.758L379.058 764.056L377.723 764.425L376.303 764.95L374.883 765.547L373.392 766.285L371.972 767.109V670.345L372.796 669.749L374.443 668.698L375.252 668.257L376.005 667.803L376.744 667.434H376.616ZM370.808 668.556C379.754 662.52 386.23 661.257 392.265 661.853C396.795 662.456 401.214 663.709 405.386 665.574C414.915 669.592 425.949 669.834 435.492 669.379L413.949 772.576C393.685 770.787 387.195 759.611 371.844 769.523L370.808 770.19L369.842 769.523C354.562 759.583 348.001 770.787 327.808 772.647L306.279 669.379C315.737 669.82 326.771 669.678 336.385 665.574C340.519 663.7 344.915 662.469 349.421 661.924C355.457 661.257 361.946 662.52 370.808 668.556V668.556Z" fill="white"/>
    <path fill-rule="evenodd" clip-rule="evenodd" d="M270.621 855.438V804.698H285.986V823.387H286.185L295.331 804.698H313.124L298.554 828.612L314.53 855.438H295.742L286.185 834.832H285.986V855.438H270.621ZM319.245 855.438V804.698H361.35V855.438H345.729V817.351H334.979V855.438H319.245ZM371.503 855.438V804.698H389.695C392.668 804.63 395.629 805.111 398.428 806.118C400.852 806.962 403.076 808.296 404.96 810.038C406.699 811.748 408.067 813.798 408.979 816.059C409.971 818.481 410.454 821.082 410.399 823.699C410.44 826.216 410.1 828.725 409.391 831.14C408.699 833.441 407.461 835.541 405.784 837.261C404.028 839.044 401.899 840.416 399.55 841.279C396.487 842.357 393.253 842.867 390.007 842.785H386.982V855.452L371.503 855.438ZM386.968 817.351V830.132H389.283C390.036 830.182 390.792 830.074 391.501 829.815C392.21 829.556 392.858 829.151 393.401 828.627C394.004 827.967 394.46 827.186 394.739 826.337C395.018 825.487 395.114 824.588 395.02 823.699C395.02 821.384 394.509 819.68 393.401 818.771C392.263 817.784 390.787 817.275 389.283 817.351H386.968ZM436.813 855.438V848.209H434.171C427.341 848.209 422.115 846.591 418.394 843.481C414.674 840.371 412.97 835.542 412.97 829.01C412.97 823.093 414.778 818.473 418.394 815.15C422.015 811.728 427.142 810.123 433.873 810.123H436.784V803.79H452.164V810.151H455.004C461.635 810.151 466.762 811.756 470.483 815.178C474.203 818.601 475.907 823.117 475.907 829.038C475.907 835.571 474.099 840.394 470.483 843.509C466.762 846.619 461.536 848.238 454.706 848.238H452.093V855.466L436.813 855.438ZM452.192 822.776V835.557C454.341 835.732 456.49 835.204 458.313 834.051C459.028 833.437 459.585 832.66 459.936 831.785C460.287 830.909 460.422 829.963 460.329 829.024C460.329 824.906 457.617 822.79 452.192 822.79V822.776ZM436.813 822.776C431.388 822.776 428.676 824.892 428.676 829.01C428.588 829.938 428.714 830.873 429.044 831.744C429.374 832.616 429.899 833.4 430.578 834.037C432.45 835.174 434.629 835.701 436.813 835.542V822.762V822.776Z" fill="white"/>
</svg>
