<svg width="209" height="252" viewBox="0 0 209 252" fill="none" xmlns="http://www.w3.org/2000/svg">
<path fill-rule="evenodd" clip-rule="evenodd" d="M50.441 185.32C50.6487 184.994 50.9209 184.713 51.2408 184.496C51.5606 184.279 51.9215 184.129 52.3013 184.056C52.6723 183.982 53.0544 183.983 53.425 184.058C53.7957 184.134 54.1475 184.283 54.4599 184.496C54.8108 184.676 55.1191 184.928 55.364 185.237C55.609 185.545 55.785 185.903 55.8799 186.286C56.0283 187.064 55.8651 187.87 55.4255 188.529C55.2238 188.861 54.9534 189.145 54.6325 189.363C54.3116 189.581 53.9476 189.728 53.5652 189.793C53.183 189.873 52.7887 189.875 52.4057 189.799C52.0226 189.724 51.6588 189.572 51.3357 189.353C51.0145 189.144 50.7419 188.868 50.5362 188.545C50.3304 188.222 50.1963 187.858 50.1429 187.478C50.0002 186.738 50.1313 185.971 50.512 185.32H50.441ZM40.8981 178.021L43.2129 175.408L42.1762 174.442L42.7727 173.704L43.8803 174.669L45.7406 176.302L46.7914 177.197L46.195 177.95L45.1442 177.055L38.7396 184.425L39.7052 185.32L39.1088 185.987L38.0722 185.178L35.7575 183.161C34.7988 182.406 34.0345 181.432 33.528 180.321C33.3184 179.785 33.2768 179.198 33.4087 178.637C33.5406 178.077 33.8396 177.569 34.2663 177.183C34.5967 176.786 35.0021 176.458 35.4592 176.217C35.9002 175.992 36.3848 175.866 36.8793 175.848C37.4979 175.936 38.1005 176.113 38.6686 176.373C39.4524 176.827 40.1774 177.376 40.8272 178.006L40.8981 178.021ZM40.3017 178.688C40.0199 178.363 39.6645 178.11 39.265 177.95C38.8272 177.727 38.3304 177.647 37.845 177.722C37.493 177.795 37.1594 177.939 36.8641 178.144C36.5689 178.349 36.318 178.611 36.1266 178.915C35.8527 179.195 35.6544 179.54 35.5501 179.918C35.4458 180.295 35.4389 180.693 35.5302 181.074C35.8372 181.766 36.3285 182.36 36.9503 182.792L40.4437 178.688H40.3017ZM32.6333 172.213C33.4428 171.596 34.1029 170.805 34.5646 169.898C34.9166 169.236 35.0741 168.487 35.019 167.739C34.944 167.105 34.682 166.506 34.2663 166.021C33.8946 165.57 33.4019 165.235 32.8463 165.055C32.145 164.827 31.3891 164.827 30.6878 165.055C28.702 165.727 27.0335 167.107 26.0016 168.932C25.7023 169.61 25.5707 170.351 25.6181 171.091C25.7339 171.688 25.992 172.248 26.3707 172.724C26.6944 173.099 27.0956 173.4 27.5466 173.606C27.9977 173.812 28.4879 173.918 28.9837 173.917C30.3925 173.831 31.7189 173.223 32.7043 172.213H32.6333ZM34.4936 174.442C33.7037 175.1 32.7528 175.537 31.7386 175.706C30.6554 175.886 29.5434 175.758 28.5293 175.337C27.412 174.945 26.4277 174.246 25.6891 173.32C24.9129 172.409 24.3976 171.305 24.198 170.125C23.9629 169.056 24.0418 167.941 24.4252 166.916C24.74 165.928 25.3314 165.05 26.1293 164.388C26.9326 163.696 27.9191 163.252 28.9695 163.11C30.0421 162.923 31.1452 163.026 32.1646 163.408C33.2581 163.871 34.2267 164.586 34.9917 165.494C35.7567 166.402 36.2964 167.478 36.5669 168.634C36.7948 169.727 36.7161 170.863 36.3397 171.914C35.9936 172.909 35.3733 173.785 34.5504 174.442H34.4936ZM14.0729 157.231L16.9131 155.512L17.4385 156.336C17.1518 156.532 16.91 156.786 16.7289 157.083C16.5477 157.379 16.4314 157.71 16.3876 158.054C16.3015 158.813 16.4877 159.578 16.9131 160.213C17.2847 160.807 17.83 161.273 18.4751 161.548C19.1654 161.889 19.9489 161.994 20.7046 161.846C21.6915 161.662 22.6325 161.286 23.4738 160.738C24.526 160.045 25.3507 159.057 25.8453 157.898C26.0322 157.355 26.0898 156.775 26.0134 156.206C25.9369 155.636 25.7286 155.093 25.4051 154.618C25.0399 154.091 24.5629 153.651 24.0081 153.329C23.4534 153.008 22.8345 152.813 22.1957 152.758L22.2809 151.721C23.1268 151.869 23.933 152.19 24.649 152.664C25.365 153.138 25.9754 153.755 26.4418 154.476C27.0471 155.367 27.4316 156.389 27.5636 157.458C27.7359 158.579 27.5521 159.727 27.0382 160.738C26.5572 161.758 25.8118 162.631 24.8797 163.266C23.9409 163.866 22.867 164.223 21.7555 164.303C20.6538 164.335 19.5656 164.055 18.6172 163.493C17.6026 162.925 16.7777 162.071 16.2456 161.037C15.7345 160.098 15.4982 159.035 15.564 157.969H14.5273L14.0729 157.231ZM7.89561 145.757L10.8777 144.265L11.318 145.16C11.019 145.327 10.7632 145.562 10.5709 145.846C10.3786 146.129 10.2551 146.454 10.2103 146.793C10.0371 147.529 10.1434 148.304 10.5085 148.966C10.7815 149.604 11.2901 150.113 11.9286 150.386C12.6104 150.773 13.3894 150.956 14.1723 150.911C15.1804 150.811 16.1519 150.48 17.0125 149.946C18.1417 149.378 19.0579 148.462 19.6254 147.333C19.8727 146.816 19.9879 146.245 19.9606 145.673C19.9334 145.1 19.7645 144.544 19.4692 144.052C19.1429 143.505 18.7003 143.035 18.1728 142.677C17.6453 142.319 17.0456 142.08 16.4161 141.979L16.5723 140.928C17.4018 141.146 18.1789 141.528 18.8573 142.053C19.5356 142.577 20.1011 143.233 20.52 143.981C21.0328 144.954 21.3374 146.023 21.4147 147.12C21.4291 147.959 21.2715 148.792 20.9518 149.568C20.6321 150.344 20.1571 151.046 19.5558 151.631C18.9545 152.217 18.2397 152.673 17.4555 152.971C16.6713 153.27 15.8343 153.405 14.996 153.368C13.8927 153.363 12.8211 152.999 11.9428 152.331C10.9629 151.682 10.2086 150.744 9.78425 149.648C9.33168 148.697 9.20201 147.625 9.41502 146.594L8.29319 146.523L7.92396 145.7L7.89561 145.757ZM13.4765 136.285L5.14067 133.615L4.75722 133.686L5.21165 135.021L4.24601 135.319L3.79158 134.055L3.05311 131.669L2.59868 130.335L3.57853 130.036L4.01875 131.3L13.3344 128.318L12.88 126.983L13.8031 126.628L14.2575 127.963L14.996 130.349L15.4503 131.613L14.5558 131.911L14.1013 130.647L6.80213 133.033L15.0812 135.717L15.6776 135.489L15.2232 134.225L16.1888 133.856L16.5723 135.191L17.3817 137.577L17.8361 138.912L16.8704 139.21L16.4871 137.875L7.17136 140.928L7.55472 142.192L6.66007 142.49L6.20572 141.227L5.38205 138.77L5.01282 137.506L5.97846 137.208L6.36191 138.543L13.4623 136.228L13.4765 136.285ZM1.33479 117.824L11.0197 116.12L10.7215 114.699L11.6872 114.557L11.9854 115.978L12.3688 118.434L12.667 119.854L11.6872 119.996L11.3889 118.662L7.73934 119.329C7.71865 119.533 7.74224 119.738 7.80842 119.932C7.8746 120.125 7.98182 120.303 8.12279 120.451C8.39681 120.702 8.72839 120.883 9.08843 120.976L12.2836 122.013C12.6142 122.127 12.9037 122.336 13.1159 122.614C13.3281 122.892 13.4536 123.226 13.4765 123.575C13.6383 124.258 13.691 124.963 13.6327 125.662L12.667 125.89V125.733C12.6363 125.708 12.6124 125.675 12.5975 125.638C12.5827 125.601 12.5773 125.56 12.5818 125.52C12.5818 125.222 12.4398 124.995 12.2836 124.924C11.9876 124.595 11.6031 124.358 11.176 124.242L9.08843 123.504C8.81047 123.439 8.55145 123.311 8.33202 123.128C8.11259 122.946 7.9388 122.715 7.82454 122.453H7.73934C7.76457 122.944 7.66187 123.434 7.44118 123.873C7.28957 124.359 7.00999 124.796 6.63173 125.137C6.2406 125.504 5.74355 125.737 5.21165 125.804C4.61555 125.952 3.98774 125.902 3.42234 125.662C2.85382 125.394 2.36454 124.983 2.00227 124.47C1.53633 123.805 1.23015 123.042 1.10761 122.24L0.369147 118.136L0.141973 116.716L1.10761 116.503L1.33479 117.923V117.824ZM1.78922 120.295C1.93123 122.297 2.89692 123.263 4.75722 123.05C5.16846 123.045 5.57128 122.933 5.92524 122.723C6.27921 122.514 6.57183 122.215 6.7737 121.857C7.07775 121.066 7.07775 120.191 6.7737 119.4L1.78922 120.295ZM6.7737 101.067C7.16975 101.073 7.56012 101.162 7.91962 101.329C8.27913 101.495 8.59988 101.735 8.86126 102.032C9.12753 102.307 9.33232 102.635 9.46208 102.995C9.59184 103.355 9.64357 103.739 9.61385 104.12C9.61637 104.511 9.53819 104.898 9.38425 105.257C9.23031 105.616 9.00391 105.94 8.7192 106.207C8.42551 106.471 8.08169 106.672 7.70831 106.799C7.33493 106.926 6.93976 106.976 6.54653 106.946C6.16701 106.957 5.78989 106.882 5.44325 106.727C5.09661 106.572 4.78931 106.341 4.54417 106.051C4.26331 105.769 4.04484 105.431 3.90295 105.06C3.76106 104.688 3.69897 104.29 3.72059 103.893C3.72332 103.506 3.81127 103.125 3.97819 102.777C4.1451 102.428 4.38686 102.121 4.68623 101.876C4.95761 101.602 5.28382 101.388 5.64355 101.249C6.00328 101.109 6.38837 101.047 6.7737 101.067ZM12.454 89.0671L12.1558 90.331L11.9286 91.6659L10.9629 91.5239L11.2612 90.1039L1.70402 88.2861L1.10761 91.1263L2.38572 91.3534L2.15846 92.4044L0 91.9499L1.93128 81.8248L4.08974 82.265L3.94776 83.3016L2.68388 83.0886L2.15846 85.8436L11.7724 87.7039L11.9854 86.369L12.9652 86.582L12.738 88.0021L12.5109 89.195L12.454 89.0671ZM10.4517 78.1042L13.8031 79.084L14.1723 77.735L15.138 78.0332L14.6977 79.4532L14.0161 81.91L13.6469 83.1738L12.6813 82.8756L13.0504 81.6117L3.66373 78.9278L3.2945 80.1917L2.32886 79.9645L2.69809 78.6296L3.59275 75.7184C3.87153 74.5254 4.40431 73.4065 5.15479 72.4381C5.56347 72.0207 6.09095 71.7395 6.66527 71.6327C7.23959 71.526 7.83283 71.599 8.36418 71.8417C8.86966 71.9948 9.34861 72.2247 9.78425 72.5233C10.1834 72.8341 10.4923 73.2459 10.6789 73.7161C10.9071 74.2789 11.0089 74.8848 10.9772 75.4912C10.8843 76.3989 10.7133 77.2969 10.4659 78.1752L10.4517 78.1042ZM9.55708 77.8912C9.69116 77.474 9.79084 77.0465 9.85524 76.6131C9.82896 76.1084 9.67248 75.6192 9.40089 75.193C8.90559 74.66 8.25448 74.2971 7.5406 74.1564C7.17811 74.0362 6.79162 74.0071 6.41521 74.0715C6.03881 74.1358 5.684 74.2918 5.38205 74.5256C4.84188 75.0407 4.50007 75.7294 4.41641 76.4711L9.55708 77.9622V77.8912ZM13.9451 65.5933L9.85524 61.3331L9.32982 62.5259L8.36418 62.1425L9.78425 58.7912L10.6789 59.1746L10.1677 60.3674L17.0835 67.4678C17.4811 67.8289 17.8127 68.2566 18.0633 68.7317C18.1763 68.964 18.235 69.2189 18.235 69.4772C18.235 69.7355 18.1763 69.9905 18.0633 70.2228C17.8459 70.7224 17.5095 71.1612 17.0835 71.5008L15.9048 70.2228C16.3028 70.0446 16.6212 69.7261 16.7994 69.3281C16.8703 69.1103 16.88 68.8773 16.8274 68.6544C16.7748 68.4315 16.662 68.2274 16.5013 68.0643L16.1178 67.766L6.80213 68.6607L6.4329 69.6263L5.53824 69.2571L7.39854 64.6419L8.29319 65.0111L7.78198 66.275L13.8883 65.7637L14.2575 65.8347V65.7637L13.8883 65.5365L13.9451 65.5933ZM14.1013 51.279L25.4619 53.2954L26.1293 52.1026L29.7931 54.2611L28.8985 55.8232L26.0583 54.1901L21.7981 61.7165L24.6383 63.2786L23.6726 64.9259L19.9663 62.7248L20.6336 61.6171L14.0019 53.5653L13.4054 54.6871L12.5109 54.1617L13.1783 52.9689L14.1581 51.2506L14.1013 51.279ZM15.8906 54.1901L21.0313 60.4526L23.8715 55.525L16.0468 53.9629L15.5214 53.7499V53.8209L15.9758 54.1901H15.8906ZM31.2417 39.7337C31.5504 39.9745 31.803 40.2796 31.982 40.6278C32.161 40.9761 32.2621 41.3591 32.2783 41.7503C32.3017 42.142 32.2473 42.5344 32.1181 42.9049C31.9889 43.2754 31.7875 43.6166 31.5256 43.9088C31.2739 44.1961 30.9669 44.4297 30.6229 44.5956C30.2788 44.7615 29.9049 44.8564 29.5233 44.8744C29.137 44.9168 28.7461 44.8794 28.3748 44.7646C28.0035 44.6498 27.6598 44.46 27.3648 44.207C26.7963 43.6527 26.4481 42.911 26.3849 42.1195C26.3422 41.743 26.381 41.3617 26.4986 41.0015C26.6162 40.6413 26.8099 40.3107 27.0666 40.032C27.3266 39.7272 27.6456 39.4783 28.0044 39.3002C28.3631 39.122 28.7542 39.0183 29.1541 38.9953C29.5354 38.9498 29.922 38.9927 30.2841 39.1207C30.6461 39.2488 30.9738 39.4586 31.2417 39.7337ZM39.3644 30.063L42.3466 33.7978L43.3975 32.9032L43.9939 33.7126L42.9431 34.5363L40.9265 36.0984L39.8899 36.922L39.2225 36.1693L40.3301 35.3599L34.2948 27.6063L33.2581 28.43L32.5907 27.6773L33.6984 26.8679L35.7148 25.2206L36.7657 24.397L37.348 25.2206L36.3112 26.0442L38.768 29.2394L42.9431 25.9732L40.4153 22.8349L39.3644 23.6585L38.768 22.9059L39.8189 22.0964L41.8211 20.4491L42.872 19.6397L43.5395 20.4491L42.4176 21.2728L48.453 28.9412L49.5038 28.1318L50.1712 28.8702L49.0494 29.7648L47.047 31.3269L45.9962 32.1506L45.3998 31.4121L46.4506 30.5175L43.5395 26.7827L39.3644 30.063ZM55.7521 21.5426L51.2079 23.9993L51.5203 26.456L52.628 25.7886L53.0823 26.6833L50.1002 28.3874L49.5748 27.5069L50.6966 26.9105L49.2765 15.3511L50.4694 14.6836L59.8561 21.784L61.049 21.1166L61.5035 22.0112L56.8882 24.5531L56.4338 23.7295L57.6266 23.0621L55.7237 21.5426H55.7521ZM50.4694 17.6658L51.0658 23.0337L54.9426 20.8752L50.5404 17.5948L50.3985 17.2114V17.2966L50.5404 17.6658H50.4694ZM63.4347 16.0185L64.9258 19.2279L66.1897 18.7024L66.5589 19.5971L65.295 20.1225L62.9945 21.1592L61.7164 21.7556L61.3472 20.8752L62.5401 20.2787L58.5922 11.3322L57.3284 11.9287L56.9592 10.963L58.2231 10.4376L60.9779 9.17375C62.1053 8.66734 63.3213 8.38746 64.5566 8.35008C65.5932 8.35008 66.4168 9.01754 67.0133 10.3666C67.2357 10.8336 67.3613 11.3408 67.3825 11.8577C67.434 12.3733 67.3302 12.8926 67.0843 13.3488C66.7958 13.904 66.3885 14.3888 65.8914 14.7688C65.143 15.315 64.3142 15.7414 63.4347 16.0327V16.0185ZM63.0655 15.2091C63.5013 15.098 63.9081 14.8946 64.2584 14.6126C64.6656 14.2944 64.9553 13.8498 65.082 13.3488C65.2287 12.6295 65.0914 11.8814 64.6986 11.2613C64.5742 10.9025 64.358 10.5826 64.0714 10.3334C63.7849 10.0842 63.4381 9.91455 63.0655 9.84119C62.3183 9.77193 61.5673 9.92508 60.907 10.2814L63.0655 15.2091ZM72.225 11.034C72.4524 12.0295 72.8827 12.9673 73.4889 13.789C73.9468 14.3784 74.5695 14.8183 75.2781 15.0528C75.8813 15.2662 76.5351 15.2909 77.1526 15.1239C77.6926 14.9476 78.1806 14.6402 78.5727 14.2292C79.0791 13.6676 79.4141 12.9728 79.5383 12.2269C79.6706 11.2043 79.5933 10.1655 79.3112 9.17375C79.0272 8.1594 78.5761 7.19951 77.9763 6.3336C77.5182 5.75986 76.8928 5.34296 76.187 5.14074C75.5812 4.94144 74.9316 4.91681 74.3125 5.06971C73.8476 5.2041 73.4189 5.44096 73.0576 5.76289C72.6963 6.08483 72.4118 6.48364 72.225 6.93001C71.7371 8.2545 71.7371 9.70955 72.225 11.034ZM69.3848 11.7725C69.1232 10.7716 69.1232 9.72022 69.3848 8.71932C69.6841 7.67296 70.252 6.72316 71.0321 5.96437C71.8717 5.12076 72.9285 4.52605 74.0853 4.24609C75.2489 3.92579 76.4742 3.90136 77.6497 4.17506C78.7015 4.41779 79.6672 4.94276 80.4429 5.69342C81.2186 6.44408 81.7748 7.39202 82.0519 8.43528C82.326 9.43821 82.3013 10.4994 81.9809 11.4885C81.7081 12.5461 81.1361 13.5025 80.3336 14.2434C79.494 15.087 78.4373 15.6817 77.2805 15.9617C76.1761 16.2987 75.0024 16.3383 73.8779 16.0765C72.7534 15.8147 71.7178 15.2607 70.8759 14.4706C70.1316 13.7263 69.5934 12.8015 69.3139 11.7867L69.3848 11.7725ZM89.4221 1.05092L94.648 11.2613L95.9828 11.105L96.5083 15.3653L94.7189 15.5925L94.2645 12.3121L85.7441 13.3629L86.1133 16.6291L84.253 16.8564L83.7418 12.5961L85.0767 12.4541L87.5334 2.31476L86.2696 2.45678L86.1133 1.49114L87.5334 1.26392L89.3937 1.05092H89.4221ZM88.2292 4.24609L86.2269 12.0707L91.9072 11.4032L88.4707 4.17506L88.3286 3.64964H88.1724V4.24609H88.2292ZM99.3342 6.19158C99.3153 7.21705 99.5188 8.23444 99.9307 9.17375C100.218 9.85577 100.715 10.428 101.351 10.8068C101.859 11.1472 102.457 11.33 103.069 11.3322C103.673 11.3081 104.26 11.127 104.773 10.8068C105.415 10.3969 105.911 9.79589 106.193 9.08855C106.591 8.12191 106.77 7.07934 106.719 6.03535C106.702 5.02124 106.494 4.01935 106.108 3.08162C105.793 2.39816 105.303 1.81018 104.688 1.37751C104.135 1.08776 103.522 0.932121 102.899 0.923119C102.411 0.938877 101.933 1.05997 101.496 1.27814C101.06 1.4963 100.676 1.80635 100.371 2.18696C99.5312 3.35383 99.1565 4.79173 99.32 6.21997L99.3342 6.19158ZM96.494 6.19158C96.4807 5.17324 96.7354 4.16931 97.2325 3.28045C97.7884 2.31977 98.5866 1.52165 99.5472 0.965719C100.6 0.388251 101.77 0.0579906 102.97 3.53101e-05C104.16 -0.00363495 105.334 0.278871 106.392 0.823703C107.372 1.34058 108.196 2.11041 108.778 3.05323C109.298 3.91063 109.582 4.89055 109.601 5.89338C109.645 6.9375 109.388 7.97216 108.863 8.8755C108.307 9.83618 107.509 10.6343 106.548 11.1902C105.512 11.7989 104.327 12.1086 103.126 12.0849C101.934 12.1377 100.75 11.8783 99.6892 11.3322C98.7496 10.7911 97.9591 10.025 97.3887 9.10272C96.8186 8.21139 96.5087 7.17857 96.494 6.1206V6.19158ZM118.392 6.6318V6.71701C119.156 6.84158 119.862 7.20439 120.408 7.75368C120.673 8.04116 120.87 8.38408 120.986 8.7575C121.101 9.13091 121.132 9.52539 121.076 9.91217C121.063 10.3981 120.926 10.8727 120.677 11.2904C120.428 11.7081 120.077 12.055 119.655 12.2979C118.736 12.8407 117.658 13.0513 116.602 12.8943L110.922 12.1559V11.1761L112.342 11.4032L113.535 1.64733L112.115 1.49114L112.271 0.525499L117.71 1.19294C118.77 1.23298 119.779 1.65691 120.55 2.38579C120.972 2.91603 121.211 3.56866 121.232 4.24609C121.209 4.5918 121.116 4.9293 120.96 5.23834C120.803 5.54737 120.586 5.82152 120.32 6.04437C120.055 6.26721 119.747 6.43413 119.416 6.53508C119.085 6.63602 118.736 6.66893 118.392 6.6318ZM114.628 11.6021L115.679 11.7441C116.333 11.8334 116.996 11.6765 117.54 11.3039C117.821 11.1331 118.052 10.8906 118.21 10.6011C118.367 10.3117 118.444 9.98576 118.434 9.65657C118.545 9.29487 118.541 8.90754 118.421 8.54861C118.301 8.18968 118.073 7.87704 117.767 7.65426C117.253 7.31473 116.662 7.10963 116.049 7.05781L115.225 6.90162L114.628 11.6021ZM115.381 5.92177L116.19 5.99275C116.492 6.04347 116.8 6.03053 117.096 5.9547C117.392 5.87888 117.669 5.74186 117.909 5.55253C118.136 5.39092 118.323 5.17834 118.454 4.93177C118.584 4.6852 118.655 4.41146 118.661 4.13246C118.709 3.65482 118.572 3.17703 118.278 2.79758C118.073 2.56562 117.822 2.37891 117.541 2.24933C117.26 2.11974 116.954 2.05014 116.645 2.04495L115.821 1.90297L115.381 5.92177ZM129.312 6.07795L129.085 6.51822L124.399 12.9227C124.141 13.2386 123.84 13.516 123.504 13.7464C123.317 13.8689 123.104 13.9457 122.882 13.9704C122.66 13.995 122.435 13.9669 122.226 13.8884C121.83 13.7837 121.455 13.6107 121.118 13.3772L122.382 11.6589C122.439 11.7838 122.521 11.8952 122.624 11.9858C122.727 12.0764 122.847 12.1441 122.978 12.1843C123.193 12.2184 123.414 12.1779 123.602 12.0693C123.791 11.9608 123.937 11.7908 124.015 11.5879L129.383 4.48748L128.119 4.18927L128.346 3.22363L129.681 3.59282L131.471 4.04726L132.521 15.5215L133.7 15.8197L133.402 16.7143L128.488 15.4363L128.829 14.4422L130.093 14.8115L129.355 6.61759V6.17737V6.10638L129.312 6.07795ZM141.908 16.6575L137.066 14.783L135.418 16.5723L136.611 17.0268L136.242 17.9214L132.962 16.6575L133.26 15.7629L134.524 16.2031L142.419 7.68265L143.768 8.20807L144.45 20.1225L145.643 20.577L145.274 21.4574L140.346 19.5971L140.729 18.6315L141.993 19.1569V16.7001L141.908 16.6575ZM141.454 10.0968L137.733 14.0446L141.823 15.6067L141.61 10.182L141.681 9.81276H141.61L141.454 10.111V10.0968ZM160.312 16.7285L158.75 19.6397L157.856 19.1853C158.004 18.8698 158.081 18.5256 158.081 18.177C158.081 17.8285 158.004 17.4842 157.856 17.1688C157.616 16.4583 157.106 15.8713 156.435 15.5357C155.827 15.1782 155.122 15.0194 154.419 15.0813C153.626 15.1557 152.874 15.4675 152.26 15.9759C151.479 16.6023 150.844 17.3924 150.4 18.2906C149.824 19.4152 149.592 20.6845 149.733 21.9402C149.81 22.5025 150.028 23.0363 150.365 23.4928C150.703 23.9493 151.149 24.3139 151.664 24.5531C152.24 24.8473 152.878 25.0007 153.524 25.0007C154.171 25.0007 154.809 24.8473 155.385 24.5531L155.839 25.5898C155.024 25.8659 154.161 25.9755 153.302 25.9121C152.444 25.8486 151.606 25.6135 150.84 25.2206C149.859 24.7097 149.017 23.9691 148.384 23.0621C147.756 22.201 147.378 21.1841 147.29 20.1225C147.228 18.9883 147.463 17.8575 147.972 16.8421C148.488 15.8617 149.258 15.0378 150.201 14.4564C151.142 13.868 152.23 13.5579 153.34 13.5618C154.502 13.6188 155.628 13.9813 156.606 14.6126C157.526 15.1731 158.254 16.0002 158.693 16.9842L159.588 16.4729L160.341 16.8421L160.312 16.7285ZM159.56 30.9293L158.523 30.1056L157.401 29.2962L158.069 28.5436L159.119 29.3672L165.155 21.6846L162.911 19.9805L162.173 20.9461L161.278 20.3497L162.698 18.5604L170.821 24.8939L169.401 26.6833L168.506 26.0158L169.259 25.036L167.171 23.2467L161.136 31.0003L162.187 31.8239L161.59 32.6476L160.468 31.7529L159.574 31.0003L159.56 30.9293ZM169.401 35.0333L178.12 33.8404L178.418 33.5422L177.453 32.5766L178.191 31.8949L179.086 32.7896L180.875 34.6499L181.841 35.6298L181.102 36.3682L180.137 35.3315L173.121 42.1053L174.087 43.1561L173.348 43.8236L172.383 42.7727L170.665 40.9976L169.699 40.0178L170.437 39.3503L171.332 40.316L176.927 34.9481L168.279 36.2262L167.753 36.6664L168.733 37.632L168.052 38.3137L167.086 37.3338L165.382 35.5445L164.402 34.5079L165.084 33.8404L166.049 34.8771L173.15 28.0181L172.184 27.0525L172.852 26.3851L173.817 27.3507L175.606 29.211L176.501 30.1908L175.834 30.8583L174.868 29.8074L169.429 35.0333H169.401ZM184.823 41.3668L181.841 43.7526L184.155 46.5927L185.121 45.7833L185.717 46.5217L183.033 48.6802L182.437 48.0128L183.332 47.1891L181.017 44.349L177.524 47.1891L180.506 50.8387L181.471 50.0293L182.068 50.7677L180.137 52.3298L174.172 44.9596L174.911 44.3632L175.805 45.3998L183.403 39.2225L182.508 38.1717L183.261 37.5752L189.069 44.6756L187.279 46.1667L186.683 45.414L187.578 44.6756L184.823 41.3242V41.3668ZM190.787 61.8585C190.096 62.2218 189.29 62.2983 188.543 62.0715C188.166 61.9698 187.813 61.7912 187.508 61.5468C187.202 61.3025 186.95 60.9977 186.768 60.6515C186.39 59.9401 186.308 59.1081 186.541 58.3367C186.8 57.6028 187.329 56.995 188.02 56.6364C188.711 56.2777 189.512 56.1952 190.262 56.4054C190.999 56.6334 191.617 57.1439 191.98 57.8255C192.341 58.5166 192.422 59.3199 192.207 60.0692C192.107 60.4495 191.929 60.8049 191.685 61.1129C191.44 61.4209 191.135 61.6748 190.787 61.8585ZM204.122 76.8261L200.997 77.948L200.699 76.9823C201.005 76.8457 201.28 76.6499 201.509 76.4061C201.738 76.1624 201.917 75.8755 202.034 75.5623C202.185 75.2098 202.262 74.8307 202.262 74.4475C202.262 74.0643 202.185 73.6851 202.034 73.3327C201.821 72.652 201.404 72.0526 200.841 71.6144C200.202 71.1767 199.456 70.9213 198.683 70.876C197.708 70.8131 196.734 70.9886 195.842 71.3872C194.648 71.8164 193.613 72.599 192.875 73.6309C192.566 74.0981 192.378 74.634 192.326 75.1912C192.274 75.7485 192.36 76.31 192.576 76.8261C192.798 77.4399 193.163 77.9914 193.643 78.4339C194.123 78.8764 194.702 79.1968 195.331 79.368L194.948 80.4047C194.162 80.0758 193.452 79.5882 192.863 78.9724C192.274 78.3567 191.819 77.626 191.526 76.8261C191.118 75.7886 190.967 74.6682 191.085 73.5599C191.197 72.4615 191.638 71.4223 192.349 70.5778C193.035 69.6648 193.965 68.9654 195.033 68.5613C196.079 68.164 197.213 68.0608 198.314 68.2631C199.362 68.4978 200.337 68.9853 201.154 69.6831C201.996 70.4958 202.591 71.5294 202.872 72.6653C203.17 73.6853 203.17 74.7694 202.872 75.7895L203.909 76.0166L204.136 76.8261H204.122ZM199.506 83.6141C198.506 83.791 197.545 84.1419 196.666 84.6507C196.049 85.0873 195.559 85.6804 195.246 86.369C195.018 86.9367 194.963 87.5596 195.09 88.1583C195.187 88.7752 195.475 89.3462 195.914 89.7914C196.427 90.3043 197.07 90.6676 197.774 90.8422C198.803 91.0714 199.869 91.0714 200.898 90.8422C201.919 90.6938 202.891 90.3097 203.738 89.7204C204.385 89.3233 204.884 88.7246 205.158 88.0163C205.388 87.4486 205.438 86.8239 205.3 86.227C205.212 85.7347 205.011 85.2695 204.713 84.8678C204.415 84.4662 204.028 84.1392 203.582 83.9123C202.297 83.3326 200.848 83.227 199.492 83.6141H199.506ZM198.981 80.7029C200.008 80.5506 201.056 80.653 202.034 81.0011C203.048 81.3912 203.947 82.0311 204.647 82.8614C205.391 83.79 205.88 84.896 206.067 86.0708C206.338 87.1821 206.3 88.3463 205.957 89.4375C205.614 90.5287 204.979 91.5055 204.122 92.2623C203.353 92.9819 202.399 93.4735 201.367 93.6824C200.342 93.8838 199.28 93.7801 198.314 93.3842C197.262 93.0279 196.332 92.3833 195.63 91.5239C194.914 90.6108 194.427 89.5395 194.209 88.3997C193.982 87.2068 194.06 85.9757 194.437 84.8211C194.776 83.7794 195.395 82.851 196.226 82.1372C197.001 81.4271 197.953 80.9369 198.981 80.7171V80.7029ZM196.822 99.7035L197.05 104.773L206.578 104.475V103.055H207.615V104.333L207.7 106.932V108.352H206.734L206.649 106.932L196.893 107.315V108.877L192.633 109.019V107.017L195.914 106.861L195.544 97.2468L195.459 95.9119L196.51 95.8267V97.1758L206.266 96.8775V95.4575H207.246V96.8066V99.3343L207.317 100.754H206.28V99.3343L196.666 99.6325L196.822 99.7035ZM198.541 114.316L204.945 120.28H205.314L205.542 118.86L206.507 119.017L206.365 120.351L206.067 122.808L205.84 124.228L204.86 124.072L205.016 122.737L195.331 121.544L195.175 122.879L194.209 122.808L194.366 121.388L194.664 118.917L194.806 117.582H195.772L195.63 119.002L203.298 119.897L196.893 113.933L196.297 113.862L196.07 115.282L195.104 115.14L195.26 113.805L195.63 111.263L195.772 109.928L196.751 110.07L196.595 111.49L206.28 112.683L206.436 111.334H207.402L207.26 112.754L206.962 115.282L206.806 116.631L205.84 116.546L205.982 115.126L198.541 114.231V114.316ZM194.962 132.053L196.297 127.054L194.366 125.634L194.067 126.827L193.102 126.614L193.982 123.177L194.962 123.405L194.664 124.668L203.894 131.669L203.525 133.089L191.909 134.95L191.526 136.214L190.56 135.93L191.98 130.86L192.875 131.073L192.576 132.493L194.962 132.124V132.053ZM201.438 130.931L197.177 127.651L195.985 131.911L201.352 131.087L201.793 131.172V131.087L201.423 130.945L201.438 130.931ZM196.524 144.791L196.155 144.493L190.56 138.898C190.283 138.59 190.058 138.24 189.892 137.861C189.806 137.659 189.767 137.44 189.779 137.221C189.792 137.001 189.855 136.788 189.963 136.597C190.154 136.227 190.377 135.876 190.631 135.546L192.122 137.108C191.99 137.146 191.867 137.213 191.764 137.303C191.661 137.394 191.58 137.507 191.526 137.634C191.384 137.932 191.525 138.301 191.909 138.756L198.157 145.16L198.683 143.967L199.577 144.336L199.052 145.529L198.314 147.248L186.839 146.58L186.314 147.617L185.419 147.248L187.507 142.547L188.401 143.002L187.876 144.194L196.07 144.72L196.524 144.862V144.791ZM185.717 152.758L188.998 160.809L189.367 161.037L190.12 159.915L190.929 160.44L190.191 161.562L188.771 163.72L188.103 164.913L187.208 164.388L187.961 163.195L179.682 157.983L178.944 159.176L178.12 158.651L178.873 157.458L180.207 155.299L180.875 154.178L181.699 154.703L181.031 155.896L187.507 159.986L184.226 151.863L183.715 151.494L182.962 152.686L182.139 152.161L182.891 151.053L184.226 148.895L184.908 147.702L185.803 148.213L185.05 149.406L193.329 154.547L194.067 153.439L194.891 153.95L194.138 155.143L192.804 157.302L192.136 158.424L191.312 157.898L191.98 156.705L185.646 152.758H185.717ZM179.838 165.808L180.506 166.404L180.137 166.845C179.912 167.081 179.743 167.364 179.64 167.673C179.537 167.982 179.503 168.31 179.54 168.634C179.577 168.949 179.683 169.252 179.85 169.522C180.017 169.792 180.24 170.022 180.506 170.196C180.727 170.362 180.979 170.48 181.248 170.544C181.517 170.608 181.796 170.615 182.068 170.565C182.566 170.395 183.005 170.084 183.332 169.671C183.539 169.442 183.693 169.171 183.784 168.877C183.875 168.583 183.9 168.272 183.857 167.966C183.769 167.407 183.475 166.901 183.033 166.546L183.701 165.808L185.788 167.597L185.192 168.336L184.524 168.109C184.591 168.659 184.524 169.218 184.328 169.737C184.133 170.256 183.816 170.72 183.403 171.091C182.859 171.822 182.066 172.327 181.173 172.511C180.49 172.674 179.77 172.561 179.169 172.197C178.568 171.833 178.135 171.247 177.964 170.565C177.923 169.958 178.025 169.35 178.262 168.79L178.489 168.492V168.407L178.191 168.705C177.601 169.117 176.942 169.42 176.246 169.6C175.606 169.657 174.968 169.475 174.456 169.088C174.045 168.797 173.704 168.418 173.458 167.978C173.213 167.538 173.068 167.049 173.036 166.546C173.039 165.824 173.185 165.11 173.465 164.445C173.745 163.779 174.155 163.176 174.669 162.67C175.333 161.834 176.25 161.237 177.282 160.966L176.615 160.511L177.282 159.773L179.597 161.704L179 162.457C178.508 162.089 177.892 161.927 177.282 162.002C176.572 162.194 175.943 162.613 175.493 163.195C175.01 163.779 174.771 164.527 174.825 165.283C174.861 165.636 174.98 165.976 175.172 166.275C175.365 166.574 175.626 166.823 175.933 167.001C176.216 167.243 176.559 167.405 176.927 167.47C177.294 167.535 177.671 167.501 178.021 167.37C178.565 167.096 179.048 166.715 179.441 166.248L179.824 165.808H179.838ZM167.313 175.635L169.543 184.51L166.703 186.967L166.106 186.215L167.143 185.32L160.667 178.021L159.616 178.915L159.02 178.177L160.071 177.282L161.931 175.635L162.968 174.74L163.564 175.493L162.528 176.388L168.037 182.721L165.652 173.775L166.703 172.88L175.223 176.388L169.713 170.125L168.662 171.02L168.066 170.267L169.117 169.372L169.855 168.705L170.835 167.81L171.502 168.563L170.452 169.458L176.87 176.828L177.907 175.933L178.574 176.686L177.538 177.58L175.748 179.142L167.327 175.635H167.313ZM149.875 189.282C149.486 188.602 149.379 187.796 149.576 187.038C149.664 186.653 149.837 186.292 150.083 185.982C150.329 185.672 150.641 185.422 150.997 185.249C151.335 185.066 151.706 184.952 152.089 184.913C152.471 184.874 152.858 184.911 153.226 185.022C153.962 185.208 154.6 185.664 155.015 186.3C155.403 186.975 155.511 187.776 155.314 188.529C155.226 188.915 155.053 189.276 154.807 189.585C154.561 189.895 154.249 190.146 153.894 190.318C153.568 190.532 153.199 190.67 152.813 190.721C152.427 190.773 152.034 190.737 151.664 190.617C150.93 190.395 150.297 189.922 149.875 189.282Z" fill="white"/>
<path fill-rule="evenodd" clip-rule="evenodd" d="M46.465 150.456C45.1585 152.174 44.6331 157.286 47.1466 158.735C49.1205 159.899 50.5974 160.41 53.821 158.493C57.0445 156.576 62.8384 144.292 64.4573 142.872L72.6512 135.999C72.5092 135.843 71.8133 135.147 70.7909 134.153C70.9613 133.983 73.3186 132.094 73.5032 131.81C77.5115 136.49 82.0806 140.658 87.1075 144.221C87.5193 144.52 92.9583 149.902 99.6468 151.989C111.561 155.781 125.393 155.142 130.065 153.75C135.021 152.33 143.541 149.192 146.637 146.65C149.777 143.973 152.632 140.98 155.158 137.718C160.994 128.927 162.655 116.97 162.258 108.223C161.68 101.833 160.472 95.5159 158.651 89.364C158.481 88.7675 154.561 78.1311 151.849 74.7372C151.309 74.0555 143.257 60.5364 139.878 56.5176C122.737 36.2815 117.156 33.6544 112.442 29.3516C115.282 33.768 128.872 45.1854 138.102 59.1731C142.945 66.5149 146.992 72.3514 148.526 76.8247C150.059 81.2979 153.042 93.6668 153.439 94.8739L154.661 95.0443L155.285 106.192L156.208 106.618L152.871 119.029L153.908 119.526L147.191 130.887L147.972 131.824L137.889 139.407L138.287 140.558L128.829 144.477L129.213 145.798L118.264 145.656L117.881 146.621L107.94 144.392L107.727 145.812L100.627 142.617L99.874 143.611L93.0009 139.663L92.5464 140.046L86.5537 135.531L85.9288 135.928L80.632 130.631L80.0214 131.143L74.6109 125.888L68.9306 132.151L66.2324 130.191C63.2786 133.131 64.3153 136.539 57.1723 141.807C49.7737 147.26 47.3596 149.249 46.394 150.512L46.465 150.456Z" fill="white"/>
<path fill-rule="evenodd" clip-rule="evenodd" d="M98.2408 48.0127L77.1527 68.7316L161.122 151.721C161.122 153.617 160.378 155.438 159.048 156.79C158.343 157.397 157.519 157.851 156.63 158.125C155.74 158.399 154.804 158.486 153.879 158.381L72.6653 73.1764L58.2231 87.3771L46.5785 75.7183L61.0916 62.2702L59.2455 60.0123L63.8608 55.5107L66.0335 57.5698L74.4119 49.6032L98.2124 48.0127H98.2408Z" fill="white"/>
<path fill-rule="evenodd" clip-rule="evenodd" d="M98.0705 63.4339L97.4031 63.0646L96.6505 62.6954L95.912 62.3972L95.2445 62.028L94.4919 61.7297L93.8245 61.5026L93.1571 61.2754L92.5606 60.9771L91.879 60.8351L91.2825 60.6079L90.6152 60.4517L90.0187 60.3097L89.4223 60.2387L88.8258 60.0825L88.2294 60.0115H87.7181L87.1217 59.9263H86.5253L85.9999 59.8553H84.2816L83.7704 59.9263H83.245L82.6485 60.0115H82.2792H81.9669L81.5976 60.0825L81.2284 60.1535H80.8592L80.4758 60.2387L80.1066 60.3097L79.7373 60.3807H79.3681L78.9847 60.4659L78.6155 60.5369L78.2463 60.6789L77.877 60.7641L77.4936 60.8351H77.1244L76.7552 60.9913L76.386 61.0623L76.0167 61.2043L75.6333 61.3606L75.1931 61.4315L74.8238 61.5878L74.4405 61.7297L74.0003 61.886L73.631 62.028L73.2476 62.1842L72.8074 62.3262L72.4381 62.4824L71.9837 62.6244L71.5435 62.8516L71.1601 62.9936L70.7199 63.1498L70.2655 63.2918L69.2998 63.6611L68.3342 64.0445L67.3685 64.4137L66.4028 64.7119L65.423 65.0101L64.4573 65.3084L63.4917 65.5356L62.526 65.8338L61.5604 65.9758L60.5096 66.203L59.5439 66.4302L58.5783 66.5722L57.5273 66.7284L56.5617 66.8705L55.5961 66.9414L54.5452 67.0976L53.5796 67.1687H52.6139L51.5631 67.2539L50.5974 67.3248H48.5951L47.6295 67.3959H43.7527L42.858 67.3248H41.8071L62.455 166.389L64.2444 166.091L65.9484 165.793L67.6667 165.495L69.2288 165.125L70.7199 164.671L72.14 164.302L73.56 163.862L74.8949 163.407L77.5788 162.513L78.8427 162.072L81.3847 161.178L82.6485 160.794L83.8414 160.425L85.1053 160.127L86.3691 159.829L87.562 159.601L88.982 159.459H90.2459H91.5808H93.0009L94.3357 159.687L95.7558 159.985L97.1759 160.354L98.5108 160.879L100.002 161.476L101.422 162.214L102.913 163.038V66.345L102.089 65.8196L101.195 65.2232L100.456 64.7829L99.6326 64.2575L98.8799 63.8031L98.1415 63.4339H98.0705ZM109.616 63.4339L110.368 63.0646L111.107 62.6954L111.859 62.3262L112.527 62.028L113.194 61.7297L113.862 61.5026L114.543 61.2043L115.211 60.9771L115.878 60.8351L116.475 60.6079L117.071 60.4517L117.739 60.3097L118.335 60.1535L118.931 60.0825L119.457 60.0115H120.053L120.65 59.9263L121.246 59.8553H123.405L124.001 59.9263H124.569L125.08 60.0115H125.464H125.833L126.202 60.0825H126.657L127.026 60.1535L127.395 60.2387L127.764 60.3097L128.148 60.3807H128.446L128.886 60.4659L129.255 60.5369L129.639 60.6079L130.008 60.7641L130.746 60.9061L131.13 61.0623L131.499 61.1333L131.868 61.2754L132.238 61.3606L132.607 61.5026L133.061 61.6588L133.43 61.8008L133.8 61.957L134.254 62.099L134.623 62.2552L135.078 62.3972L135.447 62.5534L135.887 62.6954L136.271 62.8516L136.711 63.0646L137.151 63.2208L137.605 63.3629L138.571 63.7321L139.466 64.1155L140.431 64.4137L141.411 64.7829L142.377 65.0811L143.414 65.3793L145.359 65.8196L146.325 66.0468L147.361 66.274L148.341 66.416L149.307 66.6432L150.343 66.7994L151.323 66.9414L152.289 67.0124L153.326 67.1687L154.291 67.2396H155.271L156.237 67.3248H157.231L158.196 67.3959H159.176L160.142 67.4669H163.053L163.948 67.3959H165.95L145.316 166.389H145.231L143.456 166.162L141.738 165.864L140.091 165.566L138.528 165.196L137.037 164.742L135.617 164.373L134.197 163.933L132.777 163.478L131.357 163.038L130.093 162.513L128.829 162.058L127.565 161.689L126.302 161.249L125.024 160.865L123.845 160.496L122.567 160.198L121.303 159.9L120.039 159.672L118.775 159.53H117.497H116.162H114.827L113.478 159.758L112.058 160.056L110.723 160.425L109.303 160.95L107.883 161.547L106.392 162.285L104.972 163.109V66.345L105.796 65.7486L107.443 64.6977L108.252 64.2575L109.005 63.8031L109.744 63.4339H109.616ZM103.808 64.5557C112.754 58.5204 119.23 57.2565 125.265 57.853C129.795 58.4555 134.214 59.7086 138.386 61.5736C147.915 65.5924 158.949 65.8338 168.492 65.3793L146.949 168.576C126.685 166.787 120.195 155.611 104.844 165.523L103.808 166.19L102.842 165.523C87.562 155.583 81.0012 166.787 60.8077 168.647L39.2794 65.3793C48.7371 65.8196 59.7711 65.6776 69.385 61.5736C73.5191 59.6998 77.9153 58.469 82.4213 57.924C88.4566 57.2565 94.9464 58.5204 103.808 64.5557Z" fill="white"/>
<path fill-rule="evenodd" clip-rule="evenodd" d="M3.62128 251.438V200.698H18.9865V219.387H19.1852L28.3305 200.698H46.1241L31.5541 224.612L47.53 251.438H28.7424L19.1852 230.832H18.9865V251.438H3.62128ZM52.2446 251.438V200.698H94.3498V251.438H78.729V213.351H67.9791V251.438H52.2446ZM104.503 251.438V200.698H122.695C125.668 200.63 128.629 201.111 131.428 202.118C133.852 202.962 136.076 204.296 137.96 206.038C139.699 207.748 141.067 209.798 141.979 212.059C142.971 214.481 143.454 217.082 143.399 219.699C143.44 222.216 143.1 224.725 142.391 227.14C141.699 229.441 140.461 231.541 138.784 233.261C137.028 235.044 134.899 236.416 132.55 237.279C129.487 238.357 126.253 238.867 123.007 238.785H119.982V251.452L104.503 251.438ZM119.968 213.351V226.132H122.283C123.036 226.182 123.792 226.074 124.501 225.815C125.21 225.556 125.858 225.151 126.401 224.627C127.004 223.967 127.46 223.186 127.739 222.337C128.018 221.487 128.114 220.588 128.02 219.699C128.02 217.384 127.509 215.68 126.401 214.771C125.263 213.784 123.787 213.275 122.283 213.351H119.968ZM169.813 251.438V244.209H167.171C160.341 244.209 155.115 242.591 151.394 239.481C147.674 236.371 145.97 231.542 145.97 225.01C145.97 219.093 147.778 214.473 151.394 211.15C155.015 207.728 160.142 206.123 166.873 206.123H169.784V199.79H185.164V206.151H188.004C194.635 206.151 199.762 207.756 203.483 211.178C207.203 214.601 208.907 219.117 208.907 225.038C208.907 231.571 207.099 236.394 203.483 239.509C199.762 242.619 194.536 244.238 187.706 244.238H185.093V251.466L169.813 251.438ZM185.192 218.776V231.557C187.341 231.732 189.49 231.204 191.313 230.051C192.028 229.437 192.585 228.66 192.936 227.785C193.287 226.909 193.422 225.963 193.329 225.024C193.329 220.906 190.617 218.79 185.192 218.79V218.776ZM169.813 218.776C164.388 218.776 161.676 220.892 161.676 225.01C161.588 225.938 161.714 226.873 162.044 227.744C162.374 228.616 162.899 229.4 163.578 230.037C165.45 231.174 167.629 231.701 169.813 231.542V218.762V218.776Z" fill="white"/>
</svg>
